<?xml version="1.0" encoding="utf-8" standalone="no"?>
<!DOCTYPE svg PUBLIC "-//W3C//DTD SVG 1.1//EN"
  "http://www.w3.org/Graphics/SVG/1.1/DTD/svg11.dtd">
<svg xmlns:xlink="http://www.w3.org/1999/xlink" width="639.94375pt" height="351.274375pt" viewBox="0 0 639.94375 351.274375" xmlns="http://www.w3.org/2000/svg" version="1.1">
 <metadata>
  <rdf:RDF xmlns:dc="http://purl.org/dc/elements/1.1/" xmlns:cc="http://creativecommons.org/ns#" xmlns:rdf="http://www.w3.org/1999/02/22-rdf-syntax-ns#">
   <cc:Work>
    <dc:type rdf:resource="http://purl.org/dc/dcmitype/StillImage"/>
    <dc:date>2026-07-24T00:53:40.551427</dc:date>
    <dc:format>image/svg+xml</dc:format>
    <dc:creator>
     <cc:Agent>
      <dc:title>Matplotlib v3.10.6, https://matplotlib.org/</dc:title>
     </cc:Agent>
    </dc:creator>
   </cc:Work>
  </rdf:RDF>
 </metadata>
 <defs>
  <style type="text/css">*{stroke-linejoin: round; stroke-linecap: butt}</style>
 </defs>
 <g id="figure_1">
  <g id="patch_1">
   <path d="M 0 351.274375
L 639.94375 351.274375
L 639.94375 0
L 0 0
z
" style="fill: #0c1521"/>
  </g>
  <g id="axes_1">
   <g id="patch_2">
    <path d="M 43.78125 313.718125
L 632.74375 313.718125
L 632.74375 22.318125
L 43.78125 22.318125
z
" style="fill: #0c1521"/>
   </g>
   <g id="FillBetweenPolyCollection_1">
    <path d="M 70.552273 300.47267
L 70.552273 162.578014
L 71.088229 162.080489
L 71.624186 161.582998
L 72.160142 161.085577
L 72.696098 160.588259
L 73.232055 160.09108
L 73.768011 159.594073
L 74.303968 159.097275
L 74.839924 158.600718
L 75.37588 158.104438
L 75.911837 157.608469
L 76.447793 157.112846
L 76.98375 156.617602
L 77.519706 156.122774
L 78.055662 155.628394
L 78.591619 155.134497
L 79.127575 154.641118
L 79.663532 154.14829
L 80.199488 153.656048
L 80.735445 153.164427
L 81.271401 152.67346
L 81.807357 152.18318
L 82.343314 151.693623
L 82.87927 151.204823
L 83.415227 150.716812
L 83.951183 150.229625
L 84.487139 149.743295
L 85.023096 149.257857
L 85.559052 148.773343
L 86.095009 148.289787
L 86.630965 147.807223
L 87.166921 147.325684
L 87.702878 146.845203
L 88.238834 146.365813
L 88.774791 145.887548
L 89.310747 145.41044
L 89.846704 144.934521
L 90.38266 144.459826
L 90.918616 143.986386
L 91.454573 143.514234
L 91.990529 143.043402
L 92.526486 142.573923
L 93.062442 142.105829
L 93.598398 141.639151
L 94.134355 141.173923
L 94.670311 140.710175
L 95.206268 140.24794
L 95.742224 139.787248
L 96.27818 139.328132
L 96.814137 138.870622
L 97.350093 138.41475
L 97.88605 137.960547
L 98.422006 137.508043
L 98.957963 137.05727
L 99.493919 136.608257
L 100.029875 136.161036
L 100.565832 135.715636
L 101.101788 135.272088
L 101.637745 134.830421
L 102.173701 134.390666
L 102.709657 133.952851
L 103.245614 133.517007
L 103.78157 133.083163
L 104.317527 132.651347
L 104.853483 132.221589
L 105.389439 131.793917
L 105.925396 131.36836
L 106.461352 130.944946
L 106.997309 130.523704
L 107.533265 130.104661
L 108.069221 129.687846
L 108.605178 129.273285
L 109.141134 128.861007
L 109.677091 128.451039
L 110.213047 128.043406
L 110.749004 127.638138
L 111.28496 127.235259
L 111.820916 126.834796
L 112.356873 126.436777
L 112.892829 126.041226
L 113.428786 125.648169
L 113.964742 125.257632
L 114.500698 124.86964
L 115.036655 124.484219
L 115.572611 124.101393
L 116.108568 123.721187
L 116.644524 123.343625
L 117.18048 122.968732
L 117.716437 122.596531
L 118.252393 122.227047
L 118.78835 121.860303
L 119.324306 121.496322
L 119.860263 121.135127
L 120.396219 120.776741
L 120.932175 120.421186
L 121.468132 120.068485
L 122.004088 119.71866
L 122.540045 119.371733
L 123.076001 119.027725
L 123.611957 118.686657
L 124.147914 118.348551
L 124.68387 118.013428
L 125.219827 117.681307
L 125.755783 117.35221
L 126.291739 117.026156
L 126.827696 116.703165
L 127.363652 116.383256
L 127.899609 116.066449
L 128.435565 115.752762
L 128.971522 115.442215
L 129.507478 115.134826
L 130.043434 114.830612
L 130.579391 114.529592
L 131.115347 114.231784
L 131.651304 113.937204
L 132.18726 113.645869
L 132.723216 113.357797
L 133.259173 113.073004
L 133.795129 112.791505
L 134.331086 112.513318
L 134.867042 112.238457
L 135.402998 111.966938
L 135.938955 111.698775
L 136.474911 111.433984
L 137.010868 111.172579
L 137.546824 110.914574
L 138.082781 110.659983
L 138.618737 110.40882
L 139.154693 110.161098
L 139.69065 109.916829
L 140.226606 109.676027
L 140.762563 109.438703
L 141.298519 109.20487
L 141.834475 108.97454
L 142.370432 108.747724
L 142.906388 108.524433
L 143.442345 108.304678
L 143.978301 108.08847
L 144.514257 107.875819
L 145.050214 107.666734
L 145.58617 107.461225
L 146.122127 107.259303
L 146.658083 107.060975
L 147.194039 106.86625
L 147.729996 106.675137
L 148.265952 106.487644
L 148.801909 106.303778
L 149.337865 106.123547
L 149.873822 105.946958
L 150.409778 105.774018
L 150.945734 105.604734
L 151.481691 105.43911
L 152.017647 105.277155
L 152.553604 105.118871
L 153.08956 104.964267
L 153.625516 104.813345
L 154.161473 104.66611
L 154.697429 104.522567
L 155.233386 104.38272
L 155.769342 104.246573
L 156.305298 104.114128
L 156.841255 103.985388
L 157.377211 103.860357
L 157.913168 103.739036
L 158.449124 103.621428
L 158.985081 103.507535
L 159.521037 103.397357
L 160.056993 103.290895
L 160.59295 103.188151
L 161.128906 103.089125
L 161.664863 102.993816
L 162.200819 102.902225
L 162.736775 102.814352
L 163.272732 102.730194
L 163.808688 102.649751
L 164.344645 102.573022
L 164.880601 102.500004
L 165.416557 102.430696
L 165.952514 102.365095
L 166.48847 102.303197
L 167.024427 102.245001
L 167.560383 102.190502
L 168.09634 102.139696
L 168.632296 102.09258
L 169.168252 102.04915
L 169.704209 102.009399
L 170.240165 101.973324
L 170.776122 101.940919
L 171.312078 101.912179
L 171.848034 101.887096
L 172.383991 101.865665
L 172.919947 101.84788
L 173.455904 101.833733
L 173.99186 101.823217
L 174.527816 101.816324
L 175.063773 101.813047
L 175.599729 101.813377
L 176.135686 101.817306
L 176.671642 101.824825
L 177.207599 101.835924
L 177.743555 101.850595
L 178.279511 101.868827
L 178.815468 101.890611
L 179.351424 101.915936
L 179.887381 101.944791
L 180.423337 101.977165
L 180.959293 102.013047
L 181.49525 102.052426
L 182.031206 102.095289
L 182.567163 102.141625
L 183.103119 102.19142
L 183.639075 102.244662
L 184.175032 102.301337
L 184.710988 102.361434
L 185.246945 102.424936
L 185.782901 102.491832
L 186.318857 102.562105
L 186.854814 102.635743
L 187.39077 102.712729
L 187.926727 102.793049
L 188.462683 102.876687
L 188.99864 102.963628
L 189.534596 103.053855
L 190.070552 103.147352
L 190.606509 103.244103
L 191.142465 103.34409
L 191.678422 103.447296
L 192.214378 103.553705
L 192.750334 103.663297
L 193.286291 103.776056
L 193.822247 103.891963
L 194.358204 104.010999
L 194.89416 104.133146
L 195.430116 104.258385
L 195.966073 104.386695
L 196.502029 104.518058
L 197.037986 104.652453
L 197.573942 104.789861
L 198.109899 104.930261
L 198.645855 105.073633
L 199.181811 105.219954
L 199.717768 105.369205
L 200.253724 105.521364
L 200.789681 105.676409
L 201.325637 105.834318
L 201.861593 105.995069
L 202.39755 106.15864
L 202.933506 106.325007
L 203.469463 106.494148
L 204.005419 106.666041
L 204.541375 106.84066
L 205.077332 107.017983
L 205.613288 107.197986
L 206.149245 107.380645
L 206.685201 107.565935
L 207.221158 107.753832
L 207.757114 107.944311
L 208.29307 108.137347
L 208.829027 108.332915
L 209.364983 108.530989
L 209.90094 108.731544
L 210.436896 108.934554
L 210.972852 109.139992
L 211.508809 109.347833
L 212.044765 109.55805
L 212.580722 109.770615
L 213.116678 109.985503
L 213.652634 110.202686
L 214.188591 110.422137
L 214.724547 110.643828
L 215.260504 110.867731
L 215.79646 111.093819
L 216.332417 111.322064
L 216.868373 111.552437
L 217.404329 111.784909
L 217.940286 112.019453
L 218.476242 112.256039
L 219.012199 112.494638
L 219.548155 112.735221
L 220.084111 112.977759
L 220.620068 113.222222
L 221.156024 113.46858
L 221.691981 113.716804
L 222.227937 113.966864
L 222.763893 114.218729
L 223.29985 114.472369
L 223.835806 114.727754
L 224.371763 114.984853
L 224.907719 115.243635
L 225.443675 115.504069
L 225.979632 115.766124
L 226.515588 116.02977
L 227.051545 116.294974
L 227.587501 116.561705
L 228.123458 116.829931
L 228.659414 117.099621
L 229.19537 117.370744
L 229.731327 117.643266
L 230.267283 117.917155
L 230.80324 118.19238
L 231.339196 118.468909
L 231.875152 118.746708
L 232.411109 119.025745
L 232.947065 119.305987
L 233.483022 119.587402
L 234.018978 119.869957
L 234.554934 120.153619
L 235.090891 120.438354
L 235.626847 120.724129
L 236.162804 121.010912
L 236.69876 121.298668
L 237.234717 121.587365
L 237.770673 121.876969
L 238.306629 122.167446
L 238.842586 122.458762
L 239.378542 122.750885
L 239.914499 123.043779
L 240.450455 123.337411
L 240.986411 123.631747
L 241.522368 123.926754
L 242.058324 124.222397
L 242.594281 124.518641
L 243.130237 124.815453
L 243.666193 125.112799
L 244.20215 125.410644
L 244.738106 125.708954
L 245.274063 126.007695
L 245.810019 126.306831
L 246.345976 126.60633
L 246.881932 126.906155
L 247.417888 127.206274
L 247.953845 127.50665
L 248.489801 127.807251
L 249.025758 128.10804
L 249.561714 128.408984
L 250.09767 128.710048
L 250.633627 129.011198
L 251.169583 129.312398
L 251.70554 129.613615
L 252.241496 129.914813
L 252.777452 130.215958
L 253.313409 130.517016
L 253.849365 130.817951
L 254.385322 131.118729
L 254.921278 131.419316
L 255.457235 131.719677
L 255.993191 132.019778
L 256.529147 132.319584
L 257.065104 132.61906
L 257.60106 132.918172
L 258.137017 133.216886
L 258.672973 133.515167
L 259.208929 133.812981
L 259.744886 134.110293
L 260.280842 134.40707
L 260.816799 134.703277
L 261.352755 134.99888
L 261.888711 135.293844
L 262.424668 135.588136
L 262.960624 135.881722
L 263.496581 136.174568
L 264.032537 136.466639
L 264.568493 136.757903
L 265.10445 137.048324
L 265.640406 137.337871
L 266.176363 137.626508
L 266.712319 137.914203
L 267.248276 138.200922
L 267.784232 138.486632
L 268.320188 138.771299
L 268.856145 139.05489
L 269.392101 139.337373
L 269.928058 139.618713
L 270.464014 139.898879
L 270.99997 140.177838
L 271.535927 140.455556
L 272.071883 140.732001
L 272.60784 141.007142
L 273.143796 141.280945
L 273.679752 141.553377
L 274.215709 141.824409
L 274.751665 142.094006
L 275.287622 142.362137
L 275.823578 142.628771
L 276.359535 142.893876
L 276.895491 143.15742
L 277.431447 143.419372
L 277.967404 143.679701
L 278.50336 143.938375
L 279.039317 144.195365
L 279.575273 144.450638
L 280.111229 144.704165
L 280.647186 144.955915
L 281.183142 145.205858
L 281.719099 145.453963
L 282.255055 145.700201
L 282.791011 145.944541
L 283.326968 146.186954
L 283.862924 146.42741
L 284.398881 146.665881
L 284.934837 146.902336
L 285.470794 147.136747
L 286.00675 147.369086
L 286.542706 147.599322
L 287.078663 147.827429
L 287.614619 148.053378
L 288.150576 148.27714
L 288.686532 148.498688
L 289.222488 148.717993
L 289.758445 148.93503
L 290.294401 149.149769
L 290.830358 149.362185
L 291.366314 149.572249
L 291.90227 149.779936
L 292.438227 149.985219
L 292.974183 150.188072
L 293.51014 150.388468
L 294.046096 150.586382
L 294.582053 150.781788
L 295.118009 150.97466
L 295.653965 151.164974
L 296.189922 151.352704
L 296.725878 151.537826
L 297.261835 151.720315
L 297.797791 151.900146
L 298.333747 152.077296
L 298.869704 152.251741
L 299.40566 152.423457
L 299.941617 152.592421
L 300.477573 152.758609
L 301.013529 152.921999
L 301.549486 153.082568
L 302.085442 153.240294
L 302.621399 153.395154
L 303.157355 153.547126
L 303.693311 153.696189
L 304.229268 153.842322
L 304.765224 153.985503
L 305.301181 154.125711
L 305.837137 154.262926
L 306.373094 154.397127
L 306.90905 154.528295
L 307.445006 154.656408
L 307.980963 154.781448
L 308.516919 154.903396
L 309.052876 155.022231
L 309.588832 155.137936
L 310.124788 155.250492
L 310.660745 155.359881
L 311.196701 155.466084
L 311.732658 155.569084
L 312.268614 155.668864
L 312.80457 155.765405
L 313.340527 155.858693
L 313.876483 155.948709
L 314.41244 156.035438
L 314.948396 156.118863
L 315.484353 156.198969
L 316.020309 156.275741
L 316.556265 156.349162
L 317.092222 156.419219
L 317.628178 156.485897
L 318.164135 156.549181
L 318.700091 156.609058
L 319.236047 156.665513
L 319.772004 156.718534
L 320.30796 156.768107
L 320.843917 156.81422
L 321.379873 156.856859
L 321.915829 156.896013
L 322.451786 156.931671
L 322.987742 156.963819
L 323.523699 156.992447
L 324.059655 157.017545
L 324.595612 157.0391
L 325.131568 157.057104
L 325.667524 157.071546
L 326.203481 157.082415
L 326.739437 157.089703
L 327.275394 157.093401
L 327.81135 157.0935
L 328.347306 157.08999
L 328.883263 157.082865
L 329.419219 157.072116
L 329.955176 157.057735
L 330.491132 157.039715
L 331.027088 157.01805
L 331.563045 156.992733
L 332.099001 156.963756
L 332.634958 156.931116
L 333.170914 156.894804
L 333.706871 156.854818
L 334.242827 156.81115
L 334.778783 156.763797
L 335.31474 156.712755
L 335.850696 156.658018
L 336.386653 156.599584
L 336.922609 156.537448
L 337.458565 156.471608
L 337.994522 156.402062
L 338.530478 156.328805
L 339.066435 156.251838
L 339.602391 156.171156
L 340.138347 156.08676
L 340.674304 155.998647
L 341.21026 155.906817
L 341.746217 155.81127
L 342.282173 155.712004
L 342.818129 155.609021
L 343.354086 155.502321
L 343.890042 155.391904
L 344.425999 155.277771
L 344.961955 155.159924
L 345.497912 155.038365
L 346.033868 154.913096
L 346.569824 154.784118
L 347.105781 154.651435
L 347.641737 154.515049
L 348.177694 154.374964
L 348.71365 154.231184
L 349.249606 154.083713
L 349.785563 153.932554
L 350.321519 153.777712
L 350.857476 153.619193
L 351.393432 153.457001
L 351.929388 153.291142
L 352.465345 153.121622
L 353.001301 152.948448
L 353.537258 152.771624
L 354.073214 152.59116
L 354.609171 152.40706
L 355.145127 152.219334
L 355.681083 152.027989
L 356.21704 151.833032
L 356.752996 151.634473
L 357.288953 151.432319
L 357.824909 151.226581
L 358.360865 151.017266
L 358.896822 150.804386
L 359.432778 150.587949
L 359.968735 150.367967
L 360.504691 150.144449
L 361.040647 149.917407
L 361.576604 149.686851
L 362.11256 149.452794
L 362.648517 149.215246
L 363.184473 148.97422
L 363.72043 148.729729
L 364.256386 148.481785
L 364.792342 148.230401
L 365.328299 147.97559
L 365.864255 147.717366
L 366.400212 147.455743
L 366.936168 147.190735
L 367.472124 146.922357
L 368.008081 146.650622
L 368.544037 146.375547
L 369.079994 146.097146
L 369.61595 145.815435
L 370.151906 145.530431
L 370.687863 145.242148
L 371.223819 144.950605
L 371.759776 144.655816
L 372.295732 144.357801
L 372.831689 144.056575
L 373.367645 143.752157
L 373.903601 143.444564
L 374.439558 143.133814
L 374.975514 142.819927
L 375.511471 142.50292
L 376.047427 142.182812
L 376.583383 141.859623
L 377.11934 141.533373
L 377.655296 141.204081
L 378.191253 140.871766
L 378.727209 140.536451
L 379.263165 140.198154
L 379.799122 139.856896
L 380.335078 139.5127
L 380.871035 139.165586
L 381.406991 138.815575
L 381.942947 138.462691
L 382.478904 138.106953
L 383.01486 137.748386
L 383.550817 137.387011
L 384.086773 137.022851
L 384.62273 136.65593
L 385.158686 136.286271
L 385.694642 135.913896
L 386.230599 135.538831
L 386.766555 135.161099
L 387.302512 134.780723
L 387.838468 134.39773
L 388.374424 134.012142
L 388.910381 133.623986
L 389.446337 133.233287
L 389.982294 132.840069
L 390.51825 132.444358
L 391.054206 132.04618
L 391.590163 131.645562
L 392.126119 131.242529
L 392.662076 130.837107
L 393.198032 130.429324
L 393.733989 130.019206
L 394.269945 129.60678
L 394.805901 129.192074
L 395.341858 128.775115
L 395.877814 128.35593
L 396.413771 127.934547
L 396.949727 127.510995
L 397.485683 127.085301
L 398.02164 126.657494
L 398.557596 126.227603
L 399.093553 125.795656
L 399.629509 125.361682
L 400.165465 124.92571
L 400.701422 124.48777
L 401.237378 124.047891
L 401.773335 123.606102
L 402.309291 123.162434
L 402.845248 122.716916
L 403.381204 122.269579
L 403.91716 121.820452
L 404.453117 121.369567
L 404.989073 120.916953
L 405.52503 120.462641
L 406.060986 120.006663
L 406.596942 119.549049
L 407.132899 119.089831
L 407.668855 118.629039
L 408.204812 118.166705
L 408.740768 117.702861
L 409.276724 117.237539
L 409.812681 116.770769
L 410.348637 116.302585
L 410.884594 115.833018
L 411.42055 115.362101
L 411.956507 114.889865
L 412.492463 114.416343
L 413.028419 113.941568
L 413.564376 113.465572
L 414.100332 112.988389
L 414.636289 112.51005
L 415.172245 112.030589
L 415.708201 111.550039
L 416.244158 111.068433
L 416.780114 110.585804
L 417.316071 110.102186
L 417.852027 109.617612
L 418.387983 109.132115
L 418.92394 108.645729
L 419.459896 108.158488
L 419.995853 107.670425
L 420.531809 107.181575
L 421.067765 106.691971
L 421.603722 106.201646
L 422.139678 105.710636
L 422.675635 105.218973
L 423.211591 104.726693
L 423.747548 104.233829
L 424.283504 103.740415
L 424.81946 103.246487
L 425.355417 102.752077
L 425.891373 102.25722
L 426.42733 101.761952
L 426.963286 101.266305
L 427.499242 100.770315
L 428.035199 100.274016
L 428.571155 99.777443
L 429.107112 99.28063
L 429.643068 98.783611
L 430.179024 98.286422
L 430.714981 97.789096
L 431.250937 97.291669
L 431.786894 96.794175
L 432.32285 96.296649
L 432.858807 95.799125
L 433.394763 95.301637
L 433.930719 94.804221
L 434.466676 94.306912
L 435.002632 93.809742
L 435.538589 93.312748
L 436.074545 92.815964
L 436.610501 92.319424
L 437.146458 91.823163
L 437.682414 91.327215
L 438.218371 90.831615
L 438.754327 90.336398
L 439.290283 89.841597
L 439.82624 89.347247
L 440.362196 88.853382
L 440.898153 88.360037
L 441.434109 87.867247
L 441.970066 87.375044
L 442.506022 86.883463
L 443.041978 86.392539
L 443.577935 85.902305
L 444.113891 85.412796
L 444.649848 84.924045
L 445.185804 84.436086
L 445.72176 83.948953
L 446.257717 83.46268
L 446.793673 82.9773
L 447.32963 82.492847
L 447.865586 82.009354
L 448.401542 81.526855
L 448.937499 81.045383
L 449.473455 80.564971
L 450.009412 80.085652
L 450.545368 79.60746
L 451.081325 79.130427
L 451.617281 78.654587
L 452.153237 78.179971
L 452.689194 77.706613
L 453.22515 77.234545
L 453.761107 76.763799
L 454.297063 76.294408
L 454.833019 75.826404
L 455.368976 75.359819
L 455.904932 74.894684
L 456.440889 74.431033
L 456.976845 73.968896
L 457.512801 73.508304
L 458.048758 73.04929
L 458.584714 72.591885
L 459.120671 72.136119
L 459.656627 71.682024
L 460.192583 71.229631
L 460.72854 70.77897
L 461.264496 70.330072
L 461.800453 69.882967
L 462.336409 69.437685
L 462.872366 68.994257
L 463.408322 68.552712
L 463.944278 68.113081
L 464.480235 67.675392
L 465.016191 67.239676
L 465.552148 66.805961
L 466.088104 66.374276
L 466.62406 65.944651
L 467.160017 65.517115
L 467.695973 65.091695
L 468.23193 64.66842
L 468.767886 64.247318
L 469.303842 63.828418
L 469.839799 63.411746
L 470.375755 62.997332
L 470.911712 62.585201
L 471.447668 62.175382
L 471.983625 61.767901
L 472.519581 61.362785
L 473.055537 60.960061
L 473.591494 60.559755
L 474.12745 60.161893
L 474.663407 59.766501
L 475.199363 59.373606
L 475.735319 58.983232
L 476.271276 58.595404
L 476.807232 58.210149
L 477.343189 57.827491
L 477.879145 57.447454
L 478.415101 57.070063
L 478.951058 56.695342
L 479.487014 56.323316
L 480.022971 55.954007
L 480.558927 55.58744
L 481.094884 55.223637
L 481.63084 54.862622
L 482.166796 54.504417
L 482.702753 54.149045
L 483.238709 53.796529
L 483.774666 53.446889
L 484.310622 53.100149
L 484.846578 52.756329
L 485.382535 52.415452
L 485.918491 52.077537
L 486.454448 51.742606
L 486.990404 51.410679
L 487.52636 51.081777
L 488.062317 50.755919
L 488.598273 50.433125
L 489.13423 50.113415
L 489.670186 49.796808
L 490.206143 49.483323
L 490.742099 49.172978
L 491.278055 48.865793
L 491.814012 48.561784
L 492.349968 48.26097
L 492.885925 47.963368
L 493.421881 47.668996
L 493.957837 47.377871
L 494.493794 47.090009
L 495.02975 46.805427
L 495.565707 46.524141
L 496.101663 46.246167
L 496.637619 45.97152
L 497.173576 45.700216
L 497.709532 45.43227
L 498.245489 45.167697
L 498.781445 44.90651
L 499.317401 44.648724
L 499.853358 44.394353
L 500.389314 44.143411
L 500.925271 43.89591
L 501.461227 43.651864
L 501.997184 43.411284
L 502.53314 43.174185
L 503.069096 42.940577
L 503.605053 42.710472
L 504.141009 42.483883
L 504.676966 42.260819
L 505.212922 42.041292
L 505.748878 41.825312
L 506.284835 41.612889
L 506.820791 41.404034
L 507.356748 41.198756
L 507.892704 40.997064
L 508.42866 40.798968
L 508.964617 40.604475
L 509.500573 40.413594
L 510.03653 40.226334
L 510.572486 40.042702
L 511.108443 39.862705
L 511.644399 39.68635
L 512.180355 39.513645
L 512.716312 39.344596
L 513.252268 39.179208
L 513.788225 39.017488
L 514.324181 38.859441
L 514.860137 38.705073
L 515.396094 38.554388
L 515.93205 38.407391
L 516.468007 38.264085
L 517.003963 38.124476
L 517.539919 37.988566
L 518.075876 37.85636
L 518.611832 37.727858
L 519.147789 37.603066
L 519.683745 37.481984
L 520.219702 37.364614
L 520.755658 37.25096
L 521.291614 37.14102
L 521.827571 37.034798
L 522.363527 36.932293
L 522.899484 36.833505
L 523.43544 36.738436
L 523.971396 36.647084
L 524.507353 36.559449
L 525.043309 36.475531
L 525.579266 36.395327
L 526.115222 36.318836
L 526.651178 36.246057
L 527.187135 36.176987
L 527.723091 36.111624
L 528.259048 36.049964
L 528.795004 35.992006
L 529.330961 35.937744
L 529.866917 35.887176
L 530.402873 35.840297
L 530.93883 35.797103
L 531.474786 35.757589
L 532.010743 35.721751
L 532.546699 35.689581
L 533.082655 35.661076
L 533.618612 35.636228
L 534.154568 35.615032
L 534.690525 35.597481
L 535.226481 35.583567
L 535.762437 35.573285
L 536.298394 35.566625
L 536.83435 35.56358
L 537.370307 35.564141
L 537.906263 35.568301
L 538.442219 35.57605
L 538.978176 35.58738
L 539.514132 35.60228
L 540.050089 35.620741
L 540.586045 35.642752
L 541.122002 35.668304
L 541.657958 35.697386
L 542.193914 35.729986
L 542.729871 35.766094
L 543.265827 35.805697
L 543.801784 35.848783
L 544.33774 35.895342
L 544.873696 35.945359
L 545.409653 35.998822
L 545.945609 36.055718
L 546.481566 36.116033
L 547.017522 36.179755
L 547.553478 36.246868
L 548.089435 36.317358
L 548.625391 36.391211
L 549.161348 36.468412
L 549.697304 36.548946
L 550.233261 36.632797
L 550.769217 36.71995
L 551.305173 36.810387
L 551.84113 36.904094
L 552.377086 37.001053
L 552.913043 37.101248
L 553.448999 37.204661
L 553.984955 37.311274
L 554.520912 37.421071
L 555.056868 37.534033
L 555.592825 37.650142
L 556.128781 37.769378
L 556.664737 37.891725
L 557.200694 38.017161
L 557.73665 38.145668
L 558.272607 38.277227
L 558.808563 38.411816
L 559.34452 38.549417
L 559.880476 38.690009
L 560.416432 38.833571
L 560.952389 38.980081
L 561.488345 39.12952
L 562.024302 39.281865
L 562.560258 39.437095
L 563.096214 39.595187
L 563.632171 39.75612
L 564.168127 39.919871
L 564.704084 40.086417
L 565.24004 40.255736
L 565.775996 40.427804
L 566.311953 40.602598
L 566.847909 40.780095
L 567.383866 40.960269
L 567.919822 41.143098
L 568.455779 41.328556
L 568.991735 41.51662
L 569.527691 41.707264
L 570.063648 41.900464
L 570.599604 42.096193
L 571.135561 42.294428
L 571.671517 42.495141
L 572.207473 42.698308
L 572.74343 42.903902
L 573.279386 43.111896
L 573.815343 43.322264
L 574.351299 43.53498
L 574.887255 43.750016
L 575.423212 43.967346
L 575.959168 44.186942
L 576.495125 44.408776
L 577.031081 44.63282
L 577.567037 44.859048
L 578.102994 45.08743
L 578.63895 45.317939
L 579.174907 45.550545
L 579.710863 45.785221
L 580.24682 46.021937
L 580.782776 46.260665
L 581.318732 46.501374
L 581.854689 46.744037
L 582.390645 46.988622
L 582.926602 47.235102
L 583.462558 47.483445
L 583.998514 47.733621
L 584.534471 47.985602
L 585.070427 48.239355
L 585.606384 48.494851
L 586.14234 48.752059
L 586.678296 49.010948
L 587.214253 49.271487
L 587.750209 49.533646
L 588.286166 49.797392
L 588.822122 50.062695
L 589.358079 50.329523
L 589.894035 50.597845
L 590.429991 50.867628
L 590.965948 51.138841
L 591.501904 51.411452
L 592.037861 51.685429
L 592.573817 51.960739
L 593.109773 52.23735
L 593.64573 52.515229
L 594.181686 52.794345
L 594.717643 53.074664
L 595.253599 53.356153
L 595.789555 53.63878
L 596.325512 53.922511
L 596.861468 54.207314
L 597.397425 54.493156
L 597.933381 54.780002
L 598.469338 55.06782
L 599.005294 55.356576
L 599.54125 55.646237
L 600.077207 55.936769
L 600.613163 56.228138
L 601.14912 56.520311
L 601.685076 56.813254
L 602.221032 57.106932
L 602.756989 57.401313
L 603.292945 57.696361
L 603.828902 57.992044
L 604.364858 58.288326
L 604.900814 58.585173
L 605.436771 58.882552
L 605.972727 59.180428
L 605.972727 300.47267
L 605.972727 300.47267
L 605.436771 300.47267
L 604.900814 300.47267
L 604.364858 300.47267
L 603.828902 300.47267
L 603.292945 300.47267
L 602.756989 300.47267
L 602.221032 300.47267
L 601.685076 300.47267
L 601.14912 300.47267
L 600.613163 300.47267
L 600.077207 300.47267
L 599.54125 300.47267
L 599.005294 300.47267
L 598.469338 300.47267
L 597.933381 300.47267
L 597.397425 300.47267
L 596.861468 300.47267
L 596.325512 300.47267
L 595.789555 300.47267
L 595.253599 300.47267
L 594.717643 300.47267
L 594.181686 300.47267
L 593.64573 300.47267
L 593.109773 300.47267
L 592.573817 300.47267
L 592.037861 300.47267
L 591.501904 300.47267
L 590.965948 300.47267
L 590.429991 300.47267
L 589.894035 300.47267
L 589.358079 300.47267
L 588.822122 300.47267
L 588.286166 300.47267
L 587.750209 300.47267
L 587.214253 300.47267
L 586.678296 300.47267
L 586.14234 300.47267
L 585.606384 300.47267
L 585.070427 300.47267
L 584.534471 300.47267
L 583.998514 300.47267
L 583.462558 300.47267
L 582.926602 300.47267
L 582.390645 300.47267
L 581.854689 300.47267
L 581.318732 300.47267
L 580.782776 300.47267
L 580.24682 300.47267
L 579.710863 300.47267
L 579.174907 300.47267
L 578.63895 300.47267
L 578.102994 300.47267
L 577.567037 300.47267
L 577.031081 300.47267
L 576.495125 300.47267
L 575.959168 300.47267
L 575.423212 300.47267
L 574.887255 300.47267
L 574.351299 300.47267
L 573.815343 300.47267
L 573.279386 300.47267
L 572.74343 300.47267
L 572.207473 300.47267
L 571.671517 300.47267
L 571.135561 300.47267
L 570.599604 300.47267
L 570.063648 300.47267
L 569.527691 300.47267
L 568.991735 300.47267
L 568.455779 300.47267
L 567.919822 300.47267
L 567.383866 300.47267
L 566.847909 300.47267
L 566.311953 300.47267
L 565.775996 300.47267
L 565.24004 300.47267
L 564.704084 300.47267
L 564.168127 300.47267
L 563.632171 300.47267
L 563.096214 300.47267
L 562.560258 300.47267
L 562.024302 300.47267
L 561.488345 300.47267
L 560.952389 300.47267
L 560.416432 300.47267
L 559.880476 300.47267
L 559.34452 300.47267
L 558.808563 300.47267
L 558.272607 300.47267
L 557.73665 300.47267
L 557.200694 300.47267
L 556.664737 300.47267
L 556.128781 300.47267
L 555.592825 300.47267
L 555.056868 300.47267
L 554.520912 300.47267
L 553.984955 300.47267
L 553.448999 300.47267
L 552.913043 300.47267
L 552.377086 300.47267
L 551.84113 300.47267
L 551.305173 300.47267
L 550.769217 300.47267
L 550.233261 300.47267
L 549.697304 300.47267
L 549.161348 300.47267
L 548.625391 300.47267
L 548.089435 300.47267
L 547.553478 300.47267
L 547.017522 300.47267
L 546.481566 300.47267
L 545.945609 300.47267
L 545.409653 300.47267
L 544.873696 300.47267
L 544.33774 300.47267
L 543.801784 300.47267
L 543.265827 300.47267
L 542.729871 300.47267
L 542.193914 300.47267
L 541.657958 300.47267
L 541.122002 300.47267
L 540.586045 300.47267
L 540.050089 300.47267
L 539.514132 300.47267
L 538.978176 300.47267
L 538.442219 300.47267
L 537.906263 300.47267
L 537.370307 300.47267
L 536.83435 300.47267
L 536.298394 300.47267
L 535.762437 300.47267
L 535.226481 300.47267
L 534.690525 300.47267
L 534.154568 300.47267
L 533.618612 300.47267
L 533.082655 300.47267
L 532.546699 300.47267
L 532.010743 300.47267
L 531.474786 300.47267
L 530.93883 300.47267
L 530.402873 300.47267
L 529.866917 300.47267
L 529.330961 300.47267
L 528.795004 300.47267
L 528.259048 300.47267
L 527.723091 300.47267
L 527.187135 300.47267
L 526.651178 300.47267
L 526.115222 300.47267
L 525.579266 300.47267
L 525.043309 300.47267
L 524.507353 300.47267
L 523.971396 300.47267
L 523.43544 300.47267
L 522.899484 300.47267
L 522.363527 300.47267
L 521.827571 300.47267
L 521.291614 300.47267
L 520.755658 300.47267
L 520.219702 300.47267
L 519.683745 300.47267
L 519.147789 300.47267
L 518.611832 300.47267
L 518.075876 300.47267
L 517.539919 300.47267
L 517.003963 300.47267
L 516.468007 300.47267
L 515.93205 300.47267
L 515.396094 300.47267
L 514.860137 300.47267
L 514.324181 300.47267
L 513.788225 300.47267
L 513.252268 300.47267
L 512.716312 300.47267
L 512.180355 300.47267
L 511.644399 300.47267
L 511.108443 300.47267
L 510.572486 300.47267
L 510.03653 300.47267
L 509.500573 300.47267
L 508.964617 300.47267
L 508.42866 300.47267
L 507.892704 300.47267
L 507.356748 300.47267
L 506.820791 300.47267
L 506.284835 300.47267
L 505.748878 300.47267
L 505.212922 300.47267
L 504.676966 300.47267
L 504.141009 300.47267
L 503.605053 300.47267
L 503.069096 300.47267
L 502.53314 300.47267
L 501.997184 300.47267
L 501.461227 300.47267
L 500.925271 300.47267
L 500.389314 300.47267
L 499.853358 300.47267
L 499.317401 300.47267
L 498.781445 300.47267
L 498.245489 300.47267
L 497.709532 300.47267
L 497.173576 300.47267
L 496.637619 300.47267
L 496.101663 300.47267
L 495.565707 300.47267
L 495.02975 300.47267
L 494.493794 300.47267
L 493.957837 300.47267
L 493.421881 300.47267
L 492.885925 300.47267
L 492.349968 300.47267
L 491.814012 300.47267
L 491.278055 300.47267
L 490.742099 300.47267
L 490.206143 300.47267
L 489.670186 300.47267
L 489.13423 300.47267
L 488.598273 300.47267
L 488.062317 300.47267
L 487.52636 300.47267
L 486.990404 300.47267
L 486.454448 300.47267
L 485.918491 300.47267
L 485.382535 300.47267
L 484.846578 300.47267
L 484.310622 300.47267
L 483.774666 300.47267
L 483.238709 300.47267
L 482.702753 300.47267
L 482.166796 300.47267
L 481.63084 300.47267
L 481.094884 300.47267
L 480.558927 300.47267
L 480.022971 300.47267
L 479.487014 300.47267
L 478.951058 300.47267
L 478.415101 300.47267
L 477.879145 300.47267
L 477.343189 300.47267
L 476.807232 300.47267
L 476.271276 300.47267
L 475.735319 300.47267
L 475.199363 300.47267
L 474.663407 300.47267
L 474.12745 300.47267
L 473.591494 300.47267
L 473.055537 300.47267
L 472.519581 300.47267
L 471.983625 300.47267
L 471.447668 300.47267
L 470.911712 300.47267
L 470.375755 300.47267
L 469.839799 300.47267
L 469.303842 300.47267
L 468.767886 300.47267
L 468.23193 300.47267
L 467.695973 300.47267
L 467.160017 300.47267
L 466.62406 300.47267
L 466.088104 300.47267
L 465.552148 300.47267
L 465.016191 300.47267
L 464.480235 300.47267
L 463.944278 300.47267
L 463.408322 300.47267
L 462.872366 300.47267
L 462.336409 300.47267
L 461.800453 300.47267
L 461.264496 300.47267
L 460.72854 300.47267
L 460.192583 300.47267
L 459.656627 300.47267
L 459.120671 300.47267
L 458.584714 300.47267
L 458.048758 300.47267
L 457.512801 300.47267
L 456.976845 300.47267
L 456.440889 300.47267
L 455.904932 300.47267
L 455.368976 300.47267
L 454.833019 300.47267
L 454.297063 300.47267
L 453.761107 300.47267
L 453.22515 300.47267
L 452.689194 300.47267
L 452.153237 300.47267
L 451.617281 300.47267
L 451.081325 300.47267
L 450.545368 300.47267
L 450.009412 300.47267
L 449.473455 300.47267
L 448.937499 300.47267
L 448.401542 300.47267
L 447.865586 300.47267
L 447.32963 300.47267
L 446.793673 300.47267
L 446.257717 300.47267
L 445.72176 300.47267
L 445.185804 300.47267
L 444.649848 300.47267
L 444.113891 300.47267
L 443.577935 300.47267
L 443.041978 300.47267
L 442.506022 300.47267
L 441.970066 300.47267
L 441.434109 300.47267
L 440.898153 300.47267
L 440.362196 300.47267
L 439.82624 300.47267
L 439.290283 300.47267
L 438.754327 300.47267
L 438.218371 300.47267
L 437.682414 300.47267
L 437.146458 300.47267
L 436.610501 300.47267
L 436.074545 300.47267
L 435.538589 300.47267
L 435.002632 300.47267
L 434.466676 300.47267
L 433.930719 300.47267
L 433.394763 300.47267
L 432.858807 300.47267
L 432.32285 300.47267
L 431.786894 300.47267
L 431.250937 300.47267
L 430.714981 300.47267
L 430.179024 300.47267
L 429.643068 300.47267
L 429.107112 300.47267
L 428.571155 300.47267
L 428.035199 300.47267
L 427.499242 300.47267
L 426.963286 300.47267
L 426.42733 300.47267
L 425.891373 300.47267
L 425.355417 300.47267
L 424.81946 300.47267
L 424.283504 300.47267
L 423.747548 300.47267
L 423.211591 300.47267
L 422.675635 300.47267
L 422.139678 300.47267
L 421.603722 300.47267
L 421.067765 300.47267
L 420.531809 300.47267
L 419.995853 300.47267
L 419.459896 300.47267
L 418.92394 300.47267
L 418.387983 300.47267
L 417.852027 300.47267
L 417.316071 300.47267
L 416.780114 300.47267
L 416.244158 300.47267
L 415.708201 300.47267
L 415.172245 300.47267
L 414.636289 300.47267
L 414.100332 300.47267
L 413.564376 300.47267
L 413.028419 300.47267
L 412.492463 300.47267
L 411.956507 300.47267
L 411.42055 300.47267
L 410.884594 300.47267
L 410.348637 300.47267
L 409.812681 300.47267
L 409.276724 300.47267
L 408.740768 300.47267
L 408.204812 300.47267
L 407.668855 300.47267
L 407.132899 300.47267
L 406.596942 300.47267
L 406.060986 300.47267
L 405.52503 300.47267
L 404.989073 300.47267
L 404.453117 300.47267
L 403.91716 300.47267
L 403.381204 300.47267
L 402.845248 300.47267
L 402.309291 300.47267
L 401.773335 300.47267
L 401.237378 300.47267
L 400.701422 300.47267
L 400.165465 300.47267
L 399.629509 300.47267
L 399.093553 300.47267
L 398.557596 300.47267
L 398.02164 300.47267
L 397.485683 300.47267
L 396.949727 300.47267
L 396.413771 300.47267
L 395.877814 300.47267
L 395.341858 300.47267
L 394.805901 300.47267
L 394.269945 300.47267
L 393.733989 300.47267
L 393.198032 300.47267
L 392.662076 300.47267
L 392.126119 300.47267
L 391.590163 300.47267
L 391.054206 300.47267
L 390.51825 300.47267
L 389.982294 300.47267
L 389.446337 300.47267
L 388.910381 300.47267
L 388.374424 300.47267
L 387.838468 300.47267
L 387.302512 300.47267
L 386.766555 300.47267
L 386.230599 300.47267
L 385.694642 300.47267
L 385.158686 300.47267
L 384.62273 300.47267
L 384.086773 300.47267
L 383.550817 300.47267
L 383.01486 300.47267
L 382.478904 300.47267
L 381.942947 300.47267
L 381.406991 300.47267
L 380.871035 300.47267
L 380.335078 300.47267
L 379.799122 300.47267
L 379.263165 300.47267
L 378.727209 300.47267
L 378.191253 300.47267
L 377.655296 300.47267
L 377.11934 300.47267
L 376.583383 300.47267
L 376.047427 300.47267
L 375.511471 300.47267
L 374.975514 300.47267
L 374.439558 300.47267
L 373.903601 300.47267
L 373.367645 300.47267
L 372.831689 300.47267
L 372.295732 300.47267
L 371.759776 300.47267
L 371.223819 300.47267
L 370.687863 300.47267
L 370.151906 300.47267
L 369.61595 300.47267
L 369.079994 300.47267
L 368.544037 300.47267
L 368.008081 300.47267
L 367.472124 300.47267
L 366.936168 300.47267
L 366.400212 300.47267
L 365.864255 300.47267
L 365.328299 300.47267
L 364.792342 300.47267
L 364.256386 300.47267
L 363.72043 300.47267
L 363.184473 300.47267
L 362.648517 300.47267
L 362.11256 300.47267
L 361.576604 300.47267
L 361.040647 300.47267
L 360.504691 300.47267
L 359.968735 300.47267
L 359.432778 300.47267
L 358.896822 300.47267
L 358.360865 300.47267
L 357.824909 300.47267
L 357.288953 300.47267
L 356.752996 300.47267
L 356.21704 300.47267
L 355.681083 300.47267
L 355.145127 300.47267
L 354.609171 300.47267
L 354.073214 300.47267
L 353.537258 300.47267
L 353.001301 300.47267
L 352.465345 300.47267
L 351.929388 300.47267
L 351.393432 300.47267
L 350.857476 300.47267
L 350.321519 300.47267
L 349.785563 300.47267
L 349.249606 300.47267
L 348.71365 300.47267
L 348.177694 300.47267
L 347.641737 300.47267
L 347.105781 300.47267
L 346.569824 300.47267
L 346.033868 300.47267
L 345.497912 300.47267
L 344.961955 300.47267
L 344.425999 300.47267
L 343.890042 300.47267
L 343.354086 300.47267
L 342.818129 300.47267
L 342.282173 300.47267
L 341.746217 300.47267
L 341.21026 300.47267
L 340.674304 300.47267
L 340.138347 300.47267
L 339.602391 300.47267
L 339.066435 300.47267
L 338.530478 300.47267
L 337.994522 300.47267
L 337.458565 300.47267
L 336.922609 300.47267
L 336.386653 300.47267
L 335.850696 300.47267
L 335.31474 300.47267
L 334.778783 300.47267
L 334.242827 300.47267
L 333.706871 300.47267
L 333.170914 300.47267
L 332.634958 300.47267
L 332.099001 300.47267
L 331.563045 300.47267
L 331.027088 300.47267
L 330.491132 300.47267
L 329.955176 300.47267
L 329.419219 300.47267
L 328.883263 300.47267
L 328.347306 300.47267
L 327.81135 300.47267
L 327.275394 300.47267
L 326.739437 300.47267
L 326.203481 300.47267
L 325.667524 300.47267
L 325.131568 300.47267
L 324.595612 300.47267
L 324.059655 300.47267
L 323.523699 300.47267
L 322.987742 300.47267
L 322.451786 300.47267
L 321.915829 300.47267
L 321.379873 300.47267
L 320.843917 300.47267
L 320.30796 300.47267
L 319.772004 300.47267
L 319.236047 300.47267
L 318.700091 300.47267
L 318.164135 300.47267
L 317.628178 300.47267
L 317.092222 300.47267
L 316.556265 300.47267
L 316.020309 300.47267
L 315.484353 300.47267
L 314.948396 300.47267
L 314.41244 300.47267
L 313.876483 300.47267
L 313.340527 300.47267
L 312.80457 300.47267
L 312.268614 300.47267
L 311.732658 300.47267
L 311.196701 300.47267
L 310.660745 300.47267
L 310.124788 300.47267
L 309.588832 300.47267
L 309.052876 300.47267
L 308.516919 300.47267
L 307.980963 300.47267
L 307.445006 300.47267
L 306.90905 300.47267
L 306.373094 300.47267
L 305.837137 300.47267
L 305.301181 300.47267
L 304.765224 300.47267
L 304.229268 300.47267
L 303.693311 300.47267
L 303.157355 300.47267
L 302.621399 300.47267
L 302.085442 300.47267
L 301.549486 300.47267
L 301.013529 300.47267
L 300.477573 300.47267
L 299.941617 300.47267
L 299.40566 300.47267
L 298.869704 300.47267
L 298.333747 300.47267
L 297.797791 300.47267
L 297.261835 300.47267
L 296.725878 300.47267
L 296.189922 300.47267
L 295.653965 300.47267
L 295.118009 300.47267
L 294.582053 300.47267
L 294.046096 300.47267
L 293.51014 300.47267
L 292.974183 300.47267
L 292.438227 300.47267
L 291.90227 300.47267
L 291.366314 300.47267
L 290.830358 300.47267
L 290.294401 300.47267
L 289.758445 300.47267
L 289.222488 300.47267
L 288.686532 300.47267
L 288.150576 300.47267
L 287.614619 300.47267
L 287.078663 300.47267
L 286.542706 300.47267
L 286.00675 300.47267
L 285.470794 300.47267
L 284.934837 300.47267
L 284.398881 300.47267
L 283.862924 300.47267
L 283.326968 300.47267
L 282.791011 300.47267
L 282.255055 300.47267
L 281.719099 300.47267
L 281.183142 300.47267
L 280.647186 300.47267
L 280.111229 300.47267
L 279.575273 300.47267
L 279.039317 300.47267
L 278.50336 300.47267
L 277.967404 300.47267
L 277.431447 300.47267
L 276.895491 300.47267
L 276.359535 300.47267
L 275.823578 300.47267
L 275.287622 300.47267
L 274.751665 300.47267
L 274.215709 300.47267
L 273.679752 300.47267
L 273.143796 300.47267
L 272.60784 300.47267
L 272.071883 300.47267
L 271.535927 300.47267
L 270.99997 300.47267
L 270.464014 300.47267
L 269.928058 300.47267
L 269.392101 300.47267
L 268.856145 300.47267
L 268.320188 300.47267
L 267.784232 300.47267
L 267.248276 300.47267
L 266.712319 300.47267
L 266.176363 300.47267
L 265.640406 300.47267
L 265.10445 300.47267
L 264.568493 300.47267
L 264.032537 300.47267
L 263.496581 300.47267
L 262.960624 300.47267
L 262.424668 300.47267
L 261.888711 300.47267
L 261.352755 300.47267
L 260.816799 300.47267
L 260.280842 300.47267
L 259.744886 300.47267
L 259.208929 300.47267
L 258.672973 300.47267
L 258.137017 300.47267
L 257.60106 300.47267
L 257.065104 300.47267
L 256.529147 300.47267
L 255.993191 300.47267
L 255.457235 300.47267
L 254.921278 300.47267
L 254.385322 300.47267
L 253.849365 300.47267
L 253.313409 300.47267
L 252.777452 300.47267
L 252.241496 300.47267
L 251.70554 300.47267
L 251.169583 300.47267
L 250.633627 300.47267
L 250.09767 300.47267
L 249.561714 300.47267
L 249.025758 300.47267
L 248.489801 300.47267
L 247.953845 300.47267
L 247.417888 300.47267
L 246.881932 300.47267
L 246.345976 300.47267
L 245.810019 300.47267
L 245.274063 300.47267
L 244.738106 300.47267
L 244.20215 300.47267
L 243.666193 300.47267
L 243.130237 300.47267
L 242.594281 300.47267
L 242.058324 300.47267
L 241.522368 300.47267
L 240.986411 300.47267
L 240.450455 300.47267
L 239.914499 300.47267
L 239.378542 300.47267
L 238.842586 300.47267
L 238.306629 300.47267
L 237.770673 300.47267
L 237.234717 300.47267
L 236.69876 300.47267
L 236.162804 300.47267
L 235.626847 300.47267
L 235.090891 300.47267
L 234.554934 300.47267
L 234.018978 300.47267
L 233.483022 300.47267
L 232.947065 300.47267
L 232.411109 300.47267
L 231.875152 300.47267
L 231.339196 300.47267
L 230.80324 300.47267
L 230.267283 300.47267
L 229.731327 300.47267
L 229.19537 300.47267
L 228.659414 300.47267
L 228.123458 300.47267
L 227.587501 300.47267
L 227.051545 300.47267
L 226.515588 300.47267
L 225.979632 300.47267
L 225.443675 300.47267
L 224.907719 300.47267
L 224.371763 300.47267
L 223.835806 300.47267
L 223.29985 300.47267
L 222.763893 300.47267
L 222.227937 300.47267
L 221.691981 300.47267
L 221.156024 300.47267
L 220.620068 300.47267
L 220.084111 300.47267
L 219.548155 300.47267
L 219.012199 300.47267
L 218.476242 300.47267
L 217.940286 300.47267
L 217.404329 300.47267
L 216.868373 300.47267
L 216.332417 300.47267
L 215.79646 300.47267
L 215.260504 300.47267
L 214.724547 300.47267
L 214.188591 300.47267
L 213.652634 300.47267
L 213.116678 300.47267
L 212.580722 300.47267
L 212.044765 300.47267
L 211.508809 300.47267
L 210.972852 300.47267
L 210.436896 300.47267
L 209.90094 300.47267
L 209.364983 300.47267
L 208.829027 300.47267
L 208.29307 300.47267
L 207.757114 300.47267
L 207.221158 300.47267
L 206.685201 300.47267
L 206.149245 300.47267
L 205.613288 300.47267
L 205.077332 300.47267
L 204.541375 300.47267
L 204.005419 300.47267
L 203.469463 300.47267
L 202.933506 300.47267
L 202.39755 300.47267
L 201.861593 300.47267
L 201.325637 300.47267
L 200.789681 300.47267
L 200.253724 300.47267
L 199.717768 300.47267
L 199.181811 300.47267
L 198.645855 300.47267
L 198.109899 300.47267
L 197.573942 300.47267
L 197.037986 300.47267
L 196.502029 300.47267
L 195.966073 300.47267
L 195.430116 300.47267
L 194.89416 300.47267
L 194.358204 300.47267
L 193.822247 300.47267
L 193.286291 300.47267
L 192.750334 300.47267
L 192.214378 300.47267
L 191.678422 300.47267
L 191.142465 300.47267
L 190.606509 300.47267
L 190.070552 300.47267
L 189.534596 300.47267
L 188.99864 300.47267
L 188.462683 300.47267
L 187.926727 300.47267
L 187.39077 300.47267
L 186.854814 300.47267
L 186.318857 300.47267
L 185.782901 300.47267
L 185.246945 300.47267
L 184.710988 300.47267
L 184.175032 300.47267
L 183.639075 300.47267
L 183.103119 300.47267
L 182.567163 300.47267
L 182.031206 300.47267
L 181.49525 300.47267
L 180.959293 300.47267
L 180.423337 300.47267
L 179.887381 300.47267
L 179.351424 300.47267
L 178.815468 300.47267
L 178.279511 300.47267
L 177.743555 300.47267
L 177.207599 300.47267
L 176.671642 300.47267
L 176.135686 300.47267
L 175.599729 300.47267
L 175.063773 300.47267
L 174.527816 300.47267
L 173.99186 300.47267
L 173.455904 300.47267
L 172.919947 300.47267
L 172.383991 300.47267
L 171.848034 300.47267
L 171.312078 300.47267
L 170.776122 300.47267
L 170.240165 300.47267
L 169.704209 300.47267
L 169.168252 300.47267
L 168.632296 300.47267
L 168.09634 300.47267
L 167.560383 300.47267
L 167.024427 300.47267
L 166.48847 300.47267
L 165.952514 300.47267
L 165.416557 300.47267
L 164.880601 300.47267
L 164.344645 300.47267
L 163.808688 300.47267
L 163.272732 300.47267
L 162.736775 300.47267
L 162.200819 300.47267
L 161.664863 300.47267
L 161.128906 300.47267
L 160.59295 300.47267
L 160.056993 300.47267
L 159.521037 300.47267
L 158.985081 300.47267
L 158.449124 300.47267
L 157.913168 300.47267
L 157.377211 300.47267
L 156.841255 300.47267
L 156.305298 300.47267
L 155.769342 300.47267
L 155.233386 300.47267
L 154.697429 300.47267
L 154.161473 300.47267
L 153.625516 300.47267
L 153.08956 300.47267
L 152.553604 300.47267
L 152.017647 300.47267
L 151.481691 300.47267
L 150.945734 300.47267
L 150.409778 300.47267
L 149.873822 300.47267
L 149.337865 300.47267
L 148.801909 300.47267
L 148.265952 300.47267
L 147.729996 300.47267
L 147.194039 300.47267
L 146.658083 300.47267
L 146.122127 300.47267
L 145.58617 300.47267
L 145.050214 300.47267
L 144.514257 300.47267
L 143.978301 300.47267
L 143.442345 300.47267
L 142.906388 300.47267
L 142.370432 300.47267
L 141.834475 300.47267
L 141.298519 300.47267
L 140.762563 300.47267
L 140.226606 300.47267
L 139.69065 300.47267
L 139.154693 300.47267
L 138.618737 300.47267
L 138.082781 300.47267
L 137.546824 300.47267
L 137.010868 300.47267
L 136.474911 300.47267
L 135.938955 300.47267
L 135.402998 300.47267
L 134.867042 300.47267
L 134.331086 300.47267
L 133.795129 300.47267
L 133.259173 300.47267
L 132.723216 300.47267
L 132.18726 300.47267
L 131.651304 300.47267
L 131.115347 300.47267
L 130.579391 300.47267
L 130.043434 300.47267
L 129.507478 300.47267
L 128.971522 300.47267
L 128.435565 300.47267
L 127.899609 300.47267
L 127.363652 300.47267
L 126.827696 300.47267
L 126.291739 300.47267
L 125.755783 300.47267
L 125.219827 300.47267
L 124.68387 300.47267
L 124.147914 300.47267
L 123.611957 300.47267
L 123.076001 300.47267
L 122.540045 300.47267
L 122.004088 300.47267
L 121.468132 300.47267
L 120.932175 300.47267
L 120.396219 300.47267
L 119.860263 300.47267
L 119.324306 300.47267
L 118.78835 300.47267
L 118.252393 300.47267
L 117.716437 300.47267
L 117.18048 300.47267
L 116.644524 300.47267
L 116.108568 300.47267
L 115.572611 300.47267
L 115.036655 300.47267
L 114.500698 300.47267
L 113.964742 300.47267
L 113.428786 300.47267
L 112.892829 300.47267
L 112.356873 300.47267
L 111.820916 300.47267
L 111.28496 300.47267
L 110.749004 300.47267
L 110.213047 300.47267
L 109.677091 300.47267
L 109.141134 300.47267
L 108.605178 300.47267
L 108.069221 300.47267
L 107.533265 300.47267
L 106.997309 300.47267
L 106.461352 300.47267
L 105.925396 300.47267
L 105.389439 300.47267
L 104.853483 300.47267
L 104.317527 300.47267
L 103.78157 300.47267
L 103.245614 300.47267
L 102.709657 300.47267
L 102.173701 300.47267
L 101.637745 300.47267
L 101.101788 300.47267
L 100.565832 300.47267
L 100.029875 300.47267
L 99.493919 300.47267
L 98.957963 300.47267
L 98.422006 300.47267
L 97.88605 300.47267
L 97.350093 300.47267
L 96.814137 300.47267
L 96.27818 300.47267
L 95.742224 300.47267
L 95.206268 300.47267
L 94.670311 300.47267
L 94.134355 300.47267
L 93.598398 300.47267
L 93.062442 300.47267
L 92.526486 300.47267
L 91.990529 300.47267
L 91.454573 300.47267
L 90.918616 300.47267
L 90.38266 300.47267
L 89.846704 300.47267
L 89.310747 300.47267
L 88.774791 300.47267
L 88.238834 300.47267
L 87.702878 300.47267
L 87.166921 300.47267
L 86.630965 300.47267
L 86.095009 300.47267
L 85.559052 300.47267
L 85.023096 300.47267
L 84.487139 300.47267
L 83.951183 300.47267
L 83.415227 300.47267
L 82.87927 300.47267
L 82.343314 300.47267
L 81.807357 300.47267
L 81.271401 300.47267
L 80.735445 300.47267
L 80.199488 300.47267
L 79.663532 300.47267
L 79.127575 300.47267
L 78.591619 300.47267
L 78.055662 300.47267
L 77.519706 300.47267
L 76.98375 300.47267
L 76.447793 300.47267
L 75.911837 300.47267
L 75.37588 300.47267
L 74.839924 300.47267
L 74.303968 300.47267
L 73.768011 300.47267
L 73.232055 300.47267
L 72.696098 300.47267
L 72.160142 300.47267
L 71.624186 300.47267
L 71.088229 300.47267
L 70.552273 300.47267
z
" clip-path="url(#p108b201038)" style="fill: #8dd3c7; fill-opacity: 0.18"/>
   </g>
   <g id="matplotlib.axis_1">
    <g id="xtick_1">
     <g id="line2d_1">
      <path d="M 70.552273 313.718125
L 70.552273 22.318125
" clip-path="url(#p108b201038)" style="fill: none; stroke: #ffffff; stroke-opacity: 0.2; stroke-width: 0.8; stroke-linecap: square"/>
     </g>
     <g id="line2d_2">
      <defs>
       <path id="m4a5ca1104a" d="M 0 0
L 0 3.5
" style="stroke: #ffffff; stroke-width: 0.8"/>
      </defs>
      <g>
       <use xlink:href="#m4a5ca1104a" x="70.552273" y="313.718125" style="fill: #ffffff; stroke: #ffffff; stroke-width: 0.8"/>
      </g>
     </g>
     <g id="text_1">
      <!-- 0 -->
      <g style="fill: #ffffff" transform="translate(67.371023 328.316562) scale(0.1 -0.1)">
       <defs>
        <path id="DejaVuSans-30" d="M 2034 4250
Q 1547 4250 1301 3770
Q 1056 3291 1056 2328
Q 1056 1369 1301 889
Q 1547 409 2034 409
Q 2525 409 2770 889
Q 3016 1369 3016 2328
Q 3016 3291 2770 3770
Q 2525 4250 2034 4250
z
M 2034 4750
Q 2819 4750 3233 4129
Q 3647 3509 3647 2328
Q 3647 1150 3233 529
Q 2819 -91 2034 -91
Q 1250 -91 836 529
Q 422 1150 422 2328
Q 422 3509 836 4129
Q 1250 4750 2034 4750
z
" transform="scale(0.015625)"/>
       </defs>
       <use xlink:href="#DejaVuSans-30"/>
      </g>
     </g>
    </g>
    <g id="xtick_2">
     <g id="line2d_3">
      <path d="M 159.789015 313.718125
L 159.789015 22.318125
" clip-path="url(#p108b201038)" style="fill: none; stroke: #ffffff; stroke-opacity: 0.2; stroke-width: 0.8; stroke-linecap: square"/>
     </g>
     <g id="line2d_4">
      <g>
       <use xlink:href="#m4a5ca1104a" x="159.789015" y="313.718125" style="fill: #ffffff; stroke: #ffffff; stroke-width: 0.8"/>
      </g>
     </g>
     <g id="text_2">
      <!-- 1 -->
      <g style="fill: #ffffff" transform="translate(156.607765 328.316562) scale(0.1 -0.1)">
       <defs>
        <path id="DejaVuSans-31" d="M 794 531
L 1825 531
L 1825 4091
L 703 3866
L 703 4441
L 1819 4666
L 2450 4666
L 2450 531
L 3481 531
L 3481 0
L 794 0
L 794 531
z
" transform="scale(0.015625)"/>
       </defs>
       <use xlink:href="#DejaVuSans-31"/>
      </g>
     </g>
    </g>
    <g id="xtick_3">
     <g id="line2d_5">
      <path d="M 249.025758 313.718125
L 249.025758 22.318125
" clip-path="url(#p108b201038)" style="fill: none; stroke: #ffffff; stroke-opacity: 0.2; stroke-width: 0.8; stroke-linecap: square"/>
     </g>
     <g id="line2d_6">
      <g>
       <use xlink:href="#m4a5ca1104a" x="249.025758" y="313.718125" style="fill: #ffffff; stroke: #ffffff; stroke-width: 0.8"/>
      </g>
     </g>
     <g id="text_3">
      <!-- 2 -->
      <g style="fill: #ffffff" transform="translate(245.844508 328.316562) scale(0.1 -0.1)">
       <defs>
        <path id="DejaVuSans-32" d="M 1228 531
L 3431 531
L 3431 0
L 469 0
L 469 531
Q 828 903 1448 1529
Q 2069 2156 2228 2338
Q 2531 2678 2651 2914
Q 2772 3150 2772 3378
Q 2772 3750 2511 3984
Q 2250 4219 1831 4219
Q 1534 4219 1204 4116
Q 875 4013 500 3803
L 500 4441
Q 881 4594 1212 4672
Q 1544 4750 1819 4750
Q 2544 4750 2975 4387
Q 3406 4025 3406 3419
Q 3406 3131 3298 2873
Q 3191 2616 2906 2266
Q 2828 2175 2409 1742
Q 1991 1309 1228 531
z
" transform="scale(0.015625)"/>
       </defs>
       <use xlink:href="#DejaVuSans-32"/>
      </g>
     </g>
    </g>
    <g id="xtick_4">
     <g id="line2d_7">
      <path d="M 338.2625 313.718125
L 338.2625 22.318125
" clip-path="url(#p108b201038)" style="fill: none; stroke: #ffffff; stroke-opacity: 0.2; stroke-width: 0.8; stroke-linecap: square"/>
     </g>
     <g id="line2d_8">
      <g>
       <use xlink:href="#m4a5ca1104a" x="338.2625" y="313.718125" style="fill: #ffffff; stroke: #ffffff; stroke-width: 0.8"/>
      </g>
     </g>
     <g id="text_4">
      <!-- 3 -->
      <g style="fill: #ffffff" transform="translate(335.08125 328.316562) scale(0.1 -0.1)">
       <defs>
        <path id="DejaVuSans-33" d="M 2597 2516
Q 3050 2419 3304 2112
Q 3559 1806 3559 1356
Q 3559 666 3084 287
Q 2609 -91 1734 -91
Q 1441 -91 1130 -33
Q 819 25 488 141
L 488 750
Q 750 597 1062 519
Q 1375 441 1716 441
Q 2309 441 2620 675
Q 2931 909 2931 1356
Q 2931 1769 2642 2001
Q 2353 2234 1838 2234
L 1294 2234
L 1294 2753
L 1863 2753
Q 2328 2753 2575 2939
Q 2822 3125 2822 3475
Q 2822 3834 2567 4026
Q 2313 4219 1838 4219
Q 1578 4219 1281 4162
Q 984 4106 628 3988
L 628 4550
Q 988 4650 1302 4700
Q 1616 4750 1894 4750
Q 2613 4750 3031 4423
Q 3450 4097 3450 3541
Q 3450 3153 3228 2886
Q 3006 2619 2597 2516
z
" transform="scale(0.015625)"/>
       </defs>
       <use xlink:href="#DejaVuSans-33"/>
      </g>
     </g>
    </g>
    <g id="xtick_5">
     <g id="line2d_9">
      <path d="M 427.499242 313.718125
L 427.499242 22.318125
" clip-path="url(#p108b201038)" style="fill: none; stroke: #ffffff; stroke-opacity: 0.2; stroke-width: 0.8; stroke-linecap: square"/>
     </g>
     <g id="line2d_10">
      <g>
       <use xlink:href="#m4a5ca1104a" x="427.499242" y="313.718125" style="fill: #ffffff; stroke: #ffffff; stroke-width: 0.8"/>
      </g>
     </g>
     <g id="text_5">
      <!-- 4 -->
      <g style="fill: #ffffff" transform="translate(424.317992 328.316562) scale(0.1 -0.1)">
       <defs>
        <path id="DejaVuSans-34" d="M 2419 4116
L 825 1625
L 2419 1625
L 2419 4116
z
M 2253 4666
L 3047 4666
L 3047 1625
L 3713 1625
L 3713 1100
L 3047 1100
L 3047 0
L 2419 0
L 2419 1100
L 313 1100
L 313 1709
L 2253 4666
z
" transform="scale(0.015625)"/>
       </defs>
       <use xlink:href="#DejaVuSans-34"/>
      </g>
     </g>
    </g>
    <g id="xtick_6">
     <g id="line2d_11">
      <path d="M 516.735985 313.718125
L 516.735985 22.318125
" clip-path="url(#p108b201038)" style="fill: none; stroke: #ffffff; stroke-opacity: 0.2; stroke-width: 0.8; stroke-linecap: square"/>
     </g>
     <g id="line2d_12">
      <g>
       <use xlink:href="#m4a5ca1104a" x="516.735985" y="313.718125" style="fill: #ffffff; stroke: #ffffff; stroke-width: 0.8"/>
      </g>
     </g>
     <g id="text_6">
      <!-- 5 -->
      <g style="fill: #ffffff" transform="translate(513.554735 328.316562) scale(0.1 -0.1)">
       <defs>
        <path id="DejaVuSans-35" d="M 691 4666
L 3169 4666
L 3169 4134
L 1269 4134
L 1269 2991
Q 1406 3038 1543 3061
Q 1681 3084 1819 3084
Q 2600 3084 3056 2656
Q 3513 2228 3513 1497
Q 3513 744 3044 326
Q 2575 -91 1722 -91
Q 1428 -91 1123 -41
Q 819 9 494 109
L 494 744
Q 775 591 1075 516
Q 1375 441 1709 441
Q 2250 441 2565 725
Q 2881 1009 2881 1497
Q 2881 1984 2565 2268
Q 2250 2553 1709 2553
Q 1456 2553 1204 2497
Q 953 2441 691 2322
L 691 4666
z
" transform="scale(0.015625)"/>
       </defs>
       <use xlink:href="#DejaVuSans-35"/>
      </g>
     </g>
    </g>
    <g id="xtick_7">
     <g id="line2d_13">
      <path d="M 605.972727 313.718125
L 605.972727 22.318125
" clip-path="url(#p108b201038)" style="fill: none; stroke: #ffffff; stroke-opacity: 0.2; stroke-width: 0.8; stroke-linecap: square"/>
     </g>
     <g id="line2d_14">
      <g>
       <use xlink:href="#m4a5ca1104a" x="605.972727" y="313.718125" style="fill: #ffffff; stroke: #ffffff; stroke-width: 0.8"/>
      </g>
     </g>
     <g id="text_7">
      <!-- 6 -->
      <g style="fill: #ffffff" transform="translate(602.791477 328.316562) scale(0.1 -0.1)">
       <defs>
        <path id="DejaVuSans-36" d="M 2113 2584
Q 1688 2584 1439 2293
Q 1191 2003 1191 1497
Q 1191 994 1439 701
Q 1688 409 2113 409
Q 2538 409 2786 701
Q 3034 994 3034 1497
Q 3034 2003 2786 2293
Q 2538 2584 2113 2584
z
M 3366 4563
L 3366 3988
Q 3128 4100 2886 4159
Q 2644 4219 2406 4219
Q 1781 4219 1451 3797
Q 1122 3375 1075 2522
Q 1259 2794 1537 2939
Q 1816 3084 2150 3084
Q 2853 3084 3261 2657
Q 3669 2231 3669 1497
Q 3669 778 3244 343
Q 2819 -91 2113 -91
Q 1303 -91 875 529
Q 447 1150 447 2328
Q 447 3434 972 4092
Q 1497 4750 2381 4750
Q 2619 4750 2861 4703
Q 3103 4656 3366 4563
z
" transform="scale(0.015625)"/>
       </defs>
       <use xlink:href="#DejaVuSans-36"/>
      </g>
     </g>
    </g>
    <g id="text_8">
     <!-- x -->
     <g style="fill: #ffffff" transform="translate(335.303125 341.994687) scale(0.1 -0.1)">
      <defs>
       <path id="DejaVuSans-78" d="M 3513 3500
L 2247 1797
L 3578 0
L 2900 0
L 1881 1375
L 863 0
L 184 0
L 1544 1831
L 300 3500
L 978 3500
L 1906 2253
L 2834 3500
L 3513 3500
z
" transform="scale(0.015625)"/>
      </defs>
      <use xlink:href="#DejaVuSans-78"/>
     </g>
    </g>
   </g>
   <g id="matplotlib.axis_2">
    <g id="ytick_1">
     <g id="line2d_15">
      <path d="M 43.78125 300.47267
L 632.74375 300.47267
" clip-path="url(#p108b201038)" style="fill: none; stroke: #ffffff; stroke-opacity: 0.2; stroke-width: 0.8; stroke-linecap: square"/>
     </g>
     <g id="line2d_16">
      <defs>
       <path id="mfb3d7c14fc" d="M 0 0
L -3.5 0
" style="stroke: #ffffff; stroke-width: 0.8"/>
      </defs>
      <g>
       <use xlink:href="#mfb3d7c14fc" x="43.78125" y="300.47267" style="fill: #ffffff; stroke: #ffffff; stroke-width: 0.8"/>
      </g>
     </g>
     <g id="text_9">
      <!-- 0.0 -->
      <g style="fill: #ffffff" transform="translate(20.878125 304.271889) scale(0.1 -0.1)">
       <defs>
        <path id="DejaVuSans-2e" d="M 684 794
L 1344 794
L 1344 0
L 684 0
L 684 794
z
" transform="scale(0.015625)"/>
       </defs>
       <use xlink:href="#DejaVuSans-30"/>
       <use xlink:href="#DejaVuSans-2e" transform="translate(63.623047 0)"/>
       <use xlink:href="#DejaVuSans-30" transform="translate(95.410156 0)"/>
      </g>
     </g>
    </g>
    <g id="ytick_2">
     <g id="line2d_17">
      <path d="M 43.78125 249.400576
L 632.74375 249.400576
" clip-path="url(#p108b201038)" style="fill: none; stroke: #ffffff; stroke-opacity: 0.2; stroke-width: 0.8; stroke-linecap: square"/>
     </g>
     <g id="line2d_18">
      <g>
       <use xlink:href="#mfb3d7c14fc" x="43.78125" y="249.400576" style="fill: #ffffff; stroke: #ffffff; stroke-width: 0.8"/>
      </g>
     </g>
     <g id="text_10">
      <!-- 0.5 -->
      <g style="fill: #ffffff" transform="translate(20.878125 253.199794) scale(0.1 -0.1)">
       <use xlink:href="#DejaVuSans-30"/>
       <use xlink:href="#DejaVuSans-2e" transform="translate(63.623047 0)"/>
       <use xlink:href="#DejaVuSans-35" transform="translate(95.410156 0)"/>
      </g>
     </g>
    </g>
    <g id="ytick_3">
     <g id="line2d_19">
      <path d="M 43.78125 198.328481
L 632.74375 198.328481
" clip-path="url(#p108b201038)" style="fill: none; stroke: #ffffff; stroke-opacity: 0.2; stroke-width: 0.8; stroke-linecap: square"/>
     </g>
     <g id="line2d_20">
      <g>
       <use xlink:href="#mfb3d7c14fc" x="43.78125" y="198.328481" style="fill: #ffffff; stroke: #ffffff; stroke-width: 0.8"/>
      </g>
     </g>
     <g id="text_11">
      <!-- 1.0 -->
      <g style="fill: #ffffff" transform="translate(20.878125 202.1277) scale(0.1 -0.1)">
       <use xlink:href="#DejaVuSans-31"/>
       <use xlink:href="#DejaVuSans-2e" transform="translate(63.623047 0)"/>
       <use xlink:href="#DejaVuSans-30" transform="translate(95.410156 0)"/>
      </g>
     </g>
    </g>
    <g id="ytick_4">
     <g id="line2d_21">
      <path d="M 43.78125 147.256386
L 632.74375 147.256386
" clip-path="url(#p108b201038)" style="fill: none; stroke: #ffffff; stroke-opacity: 0.2; stroke-width: 0.8; stroke-linecap: square"/>
     </g>
     <g id="line2d_22">
      <g>
       <use xlink:href="#mfb3d7c14fc" x="43.78125" y="147.256386" style="fill: #ffffff; stroke: #ffffff; stroke-width: 0.8"/>
      </g>
     </g>
     <g id="text_12">
      <!-- 1.5 -->
      <g style="fill: #ffffff" transform="translate(20.878125 151.055605) scale(0.1 -0.1)">
       <use xlink:href="#DejaVuSans-31"/>
       <use xlink:href="#DejaVuSans-2e" transform="translate(63.623047 0)"/>
       <use xlink:href="#DejaVuSans-35" transform="translate(95.410156 0)"/>
      </g>
     </g>
    </g>
    <g id="ytick_5">
     <g id="line2d_23">
      <path d="M 43.78125 96.184291
L 632.74375 96.184291
" clip-path="url(#p108b201038)" style="fill: none; stroke: #ffffff; stroke-opacity: 0.2; stroke-width: 0.8; stroke-linecap: square"/>
     </g>
     <g id="line2d_24">
      <g>
       <use xlink:href="#mfb3d7c14fc" x="43.78125" y="96.184291" style="fill: #ffffff; stroke: #ffffff; stroke-width: 0.8"/>
      </g>
     </g>
     <g id="text_13">
      <!-- 2.0 -->
      <g style="fill: #ffffff" transform="translate(20.878125 99.98351) scale(0.1 -0.1)">
       <use xlink:href="#DejaVuSans-32"/>
       <use xlink:href="#DejaVuSans-2e" transform="translate(63.623047 0)"/>
       <use xlink:href="#DejaVuSans-30" transform="translate(95.410156 0)"/>
      </g>
     </g>
    </g>
    <g id="ytick_6">
     <g id="line2d_25">
      <path d="M 43.78125 45.112196
L 632.74375 45.112196
" clip-path="url(#p108b201038)" style="fill: none; stroke: #ffffff; stroke-opacity: 0.2; stroke-width: 0.8; stroke-linecap: square"/>
     </g>
     <g id="line2d_26">
      <g>
       <use xlink:href="#mfb3d7c14fc" x="43.78125" y="45.112196" style="fill: #ffffff; stroke: #ffffff; stroke-width: 0.8"/>
      </g>
     </g>
     <g id="text_14">
      <!-- 2.5 -->
      <g style="fill: #ffffff" transform="translate(20.878125 48.911415) scale(0.1 -0.1)">
       <use xlink:href="#DejaVuSans-32"/>
       <use xlink:href="#DejaVuSans-2e" transform="translate(63.623047 0)"/>
       <use xlink:href="#DejaVuSans-35" transform="translate(95.410156 0)"/>
      </g>
     </g>
    </g>
    <g id="text_15">
     <!-- y -->
     <g style="fill: #ffffff" transform="translate(14.798438 170.9775) rotate(-90) scale(0.1 -0.1)">
      <defs>
       <path id="DejaVuSans-79" d="M 2059 -325
Q 1816 -950 1584 -1140
Q 1353 -1331 966 -1331
L 506 -1331
L 506 -850
L 844 -850
Q 1081 -850 1212 -737
Q 1344 -625 1503 -206
L 1606 56
L 191 3500
L 800 3500
L 1894 763
L 2988 3500
L 3597 3500
L 2059 -325
z
" transform="scale(0.015625)"/>
      </defs>
      <use xlink:href="#DejaVuSans-79"/>
     </g>
    </g>
   </g>
   <g id="line2d_27">
    <path d="M 70.552273 162.578014
L 86.095009 148.289787
L 94.670311 140.710175
L 101.637745 134.830421
L 108.069221 129.687846
L 113.964742 125.257632
L 119.324306 121.496322
L 124.68387 118.013428
L 129.507478 115.134826
L 134.331086 112.513318
L 139.154693 110.161098
L 143.442345 108.304678
L 147.729996 106.675137
L 152.017647 105.277155
L 156.305298 104.114128
L 160.59295 103.188151
L 164.880601 102.500004
L 169.168252 102.04915
L 173.455904 101.833733
L 177.743555 101.850595
L 182.031206 102.095289
L 186.318857 102.562105
L 190.606509 103.244103
L 194.89416 104.133146
L 199.717768 105.369205
L 204.541375 106.84066
L 209.364983 108.530989
L 214.724547 110.643828
L 220.620068 113.222222
L 227.051545 116.294974
L 234.018978 119.869957
L 243.130237 124.815453
L 271.535927 140.455556
L 278.50336 143.938375
L 284.934837 146.902336
L 290.830358 149.362185
L 296.189922 151.352704
L 301.013529 152.921999
L 305.837137 154.262926
L 310.660745 155.359881
L 314.948396 156.118863
L 319.236047 156.665513
L 323.523699 156.992447
L 327.81135 157.0935
L 332.099001 156.963756
L 336.386653 156.599584
L 340.674304 155.998647
L 344.961955 155.159924
L 349.249606 154.083713
L 353.537258 152.771624
L 357.824909 151.226581
L 362.11256 149.452794
L 366.400212 147.455743
L 371.223819 144.950605
L 376.047427 142.182812
L 380.871035 139.165586
L 386.230599 135.538831
L 391.590163 131.645562
L 397.485683 127.085301
L 403.91716 121.820452
L 410.884594 115.833018
L 419.459896 108.158488
L 432.32285 96.296649
L 447.865586 82.009354
L 456.440889 74.431033
L 463.408322 68.552712
L 469.839799 63.411746
L 475.735319 58.983232
L 481.094884 55.223637
L 486.454448 51.742606
L 491.278055 48.865793
L 496.101663 46.246167
L 500.925271 43.89591
L 505.212922 42.041292
L 509.500573 40.413594
L 513.788225 39.017488
L 518.075876 37.85636
L 522.363527 36.932293
L 526.651178 36.246057
L 530.93883 35.797103
L 535.226481 35.583567
L 539.514132 35.60228
L 543.801784 35.848783
L 548.089435 36.317358
L 552.377086 37.001053
L 556.664737 37.891725
L 561.488345 39.12952
L 566.311953 40.602598
L 571.135561 42.294428
L 576.495125 44.408776
L 582.390645 46.988622
L 588.822122 50.062695
L 595.789555 53.63878
L 604.900814 58.585173
L 605.972727 59.180428
L 605.972727 59.180428
" clip-path="url(#p108b201038)" style="fill: none; stroke: #8dd3c7; stroke-width: 2.5; stroke-linecap: square"/>
   </g>
   <g id="line2d_28">
    <path d="M 70.552273 59.180428
L 80.735445 53.63878
L 88.238834 49.797392
L 94.670311 46.744037
L 100.565832 44.186942
L 105.925396 42.096193
L 111.28496 40.255736
L 116.108568 38.833571
L 120.932175 37.650142
L 125.219827 36.810387
L 129.507478 36.179755
L 133.795129 35.766094
L 138.082781 35.57605
L 142.370432 35.615032
L 146.658083 35.887176
L 150.945734 36.395327
L 155.233386 37.14102
L 159.521037 38.124476
L 163.808688 39.344596
L 168.09634 40.798968
L 172.383991 42.483883
L 176.671642 44.394353
L 181.49525 46.805427
L 186.318857 49.483323
L 191.142465 52.415452
L 196.502029 55.954007
L 201.861593 59.766501
L 207.757114 64.247318
L 214.188591 69.437685
L 221.156024 75.359819
L 229.19537 82.492847
L 240.450455 92.815964
L 260.816799 111.550039
L 269.392101 119.089831
L 276.359535 124.92571
L 282.791011 130.019206
L 288.686532 134.39773
L 294.046096 138.106953
L 299.40566 141.533373
L 304.229268 144.357801
L 309.052876 146.922357
L 313.876483 149.215246
L 318.164135 151.017266
L 322.451786 152.59116
L 326.739437 153.932554
L 331.027088 155.038365
L 335.31474 155.906817
L 339.602391 156.537448
L 343.890042 156.931116
L 348.177694 157.08999
L 352.465345 157.017545
L 356.752996 156.718534
L 361.040647 156.198969
L 365.328299 155.466084
L 370.151906 154.397127
L 374.975514 153.082568
L 379.799122 151.537826
L 385.158686 149.572249
L 390.51825 147.369086
L 396.413771 144.704165
L 402.845248 141.553377
L 410.348637 137.626508
L 420.531809 132.019778
L 441.434109 120.438354
L 448.937499 116.561705
L 455.368976 113.46858
L 461.264496 110.867731
L 466.62406 108.731544
L 471.983625 106.84066
L 476.807232 105.369205
L 481.63084 104.133146
L 486.454448 103.147352
L 490.742099 102.491832
L 495.02975 102.052426
L 499.317401 101.835924
L 503.605053 101.84788
L 507.892704 102.09258
L 512.180355 102.573022
L 516.468007 103.290895
L 520.755658 104.246573
L 525.043309 105.43911
L 529.330961 106.86625
L 533.618612 108.524433
L 537.906263 110.40882
L 542.729871 112.791505
L 547.553478 115.442215
L 552.377086 118.348551
L 557.73665 121.860303
L 563.096214 125.648169
L 568.991735 130.104661
L 575.423212 135.272088
L 582.390645 141.173923
L 590.429991 148.289787
L 601.14912 158.104438
L 605.972727 162.578014
L 605.972727 162.578014
" clip-path="url(#p108b201038)" style="fill: none; stroke: #feffb3; stroke-width: 2.5; stroke-linecap: square"/>
   </g>
   <g id="line2d_29">
    <path d="M 338.2625 313.718125
L 338.2625 22.318125
" clip-path="url(#p108b201038)" style="fill: none; stroke-dasharray: 5.55,2.4; stroke-dashoffset: 0; stroke: #808080; stroke-width: 1.5"/>
   </g>
   <g id="patch_3">
    <path d="M 43.78125 313.718125
L 43.78125 22.318125
" style="fill: none; stroke: #ffffff; stroke-width: 0.8; stroke-linejoin: miter; stroke-linecap: square"/>
   </g>
   <g id="patch_4">
    <path d="M 632.74375 313.718125
L 632.74375 22.318125
" style="fill: none; stroke: #ffffff; stroke-width: 0.8; stroke-linejoin: miter; stroke-linecap: square"/>
   </g>
   <g id="patch_5">
    <path d="M 43.78125 313.718125
L 632.74375 313.718125
" style="fill: none; stroke: #ffffff; stroke-width: 0.8; stroke-linejoin: miter; stroke-linecap: square"/>
   </g>
   <g id="patch_6">
    <path d="M 43.78125 22.318125
L 632.74375 22.318125
" style="fill: none; stroke: #ffffff; stroke-width: 0.8; stroke-linejoin: miter; stroke-linecap: square"/>
   </g>
   <g id="text_16">
    <!-- A function and its reflection -->
    <g style="fill: #ffffff" transform="translate(255.302188 16.318125) scale(0.12 -0.12)">
     <defs>
      <path id="DejaVuSans-41" d="M 2188 4044
L 1331 1722
L 3047 1722
L 2188 4044
z
M 1831 4666
L 2547 4666
L 4325 0
L 3669 0
L 3244 1197
L 1141 1197
L 716 0
L 50 0
L 1831 4666
z
" transform="scale(0.015625)"/>
      <path id="DejaVuSans-20" transform="scale(0.015625)"/>
      <path id="DejaVuSans-66" d="M 2375 4863
L 2375 4384
L 1825 4384
Q 1516 4384 1395 4259
Q 1275 4134 1275 3809
L 1275 3500
L 2222 3500
L 2222 3053
L 1275 3053
L 1275 0
L 697 0
L 697 3053
L 147 3053
L 147 3500
L 697 3500
L 697 3744
Q 697 4328 969 4595
Q 1241 4863 1831 4863
L 2375 4863
z
" transform="scale(0.015625)"/>
      <path id="DejaVuSans-75" d="M 544 1381
L 544 3500
L 1119 3500
L 1119 1403
Q 1119 906 1312 657
Q 1506 409 1894 409
Q 2359 409 2629 706
Q 2900 1003 2900 1516
L 2900 3500
L 3475 3500
L 3475 0
L 2900 0
L 2900 538
Q 2691 219 2414 64
Q 2138 -91 1772 -91
Q 1169 -91 856 284
Q 544 659 544 1381
z
M 1991 3584
L 1991 3584
z
" transform="scale(0.015625)"/>
      <path id="DejaVuSans-6e" d="M 3513 2113
L 3513 0
L 2938 0
L 2938 2094
Q 2938 2591 2744 2837
Q 2550 3084 2163 3084
Q 1697 3084 1428 2787
Q 1159 2491 1159 1978
L 1159 0
L 581 0
L 581 3500
L 1159 3500
L 1159 2956
Q 1366 3272 1645 3428
Q 1925 3584 2291 3584
Q 2894 3584 3203 3211
Q 3513 2838 3513 2113
z
" transform="scale(0.015625)"/>
      <path id="DejaVuSans-63" d="M 3122 3366
L 3122 2828
Q 2878 2963 2633 3030
Q 2388 3097 2138 3097
Q 1578 3097 1268 2742
Q 959 2388 959 1747
Q 959 1106 1268 751
Q 1578 397 2138 397
Q 2388 397 2633 464
Q 2878 531 3122 666
L 3122 134
Q 2881 22 2623 -34
Q 2366 -91 2075 -91
Q 1284 -91 818 406
Q 353 903 353 1747
Q 353 2603 823 3093
Q 1294 3584 2113 3584
Q 2378 3584 2631 3529
Q 2884 3475 3122 3366
z
" transform="scale(0.015625)"/>
      <path id="DejaVuSans-74" d="M 1172 4494
L 1172 3500
L 2356 3500
L 2356 3053
L 1172 3053
L 1172 1153
Q 1172 725 1289 603
Q 1406 481 1766 481
L 2356 481
L 2356 0
L 1766 0
Q 1100 0 847 248
Q 594 497 594 1153
L 594 3053
L 172 3053
L 172 3500
L 594 3500
L 594 4494
L 1172 4494
z
" transform="scale(0.015625)"/>
      <path id="DejaVuSans-69" d="M 603 3500
L 1178 3500
L 1178 0
L 603 0
L 603 3500
z
M 603 4863
L 1178 4863
L 1178 4134
L 603 4134
L 603 4863
z
" transform="scale(0.015625)"/>
      <path id="DejaVuSans-6f" d="M 1959 3097
Q 1497 3097 1228 2736
Q 959 2375 959 1747
Q 959 1119 1226 758
Q 1494 397 1959 397
Q 2419 397 2687 759
Q 2956 1122 2956 1747
Q 2956 2369 2687 2733
Q 2419 3097 1959 3097
z
M 1959 3584
Q 2709 3584 3137 3096
Q 3566 2609 3566 1747
Q 3566 888 3137 398
Q 2709 -91 1959 -91
Q 1206 -91 779 398
Q 353 888 353 1747
Q 353 2609 779 3096
Q 1206 3584 1959 3584
z
" transform="scale(0.015625)"/>
      <path id="DejaVuSans-61" d="M 2194 1759
Q 1497 1759 1228 1600
Q 959 1441 959 1056
Q 959 750 1161 570
Q 1363 391 1709 391
Q 2188 391 2477 730
Q 2766 1069 2766 1631
L 2766 1759
L 2194 1759
z
M 3341 1997
L 3341 0
L 2766 0
L 2766 531
Q 2569 213 2275 61
Q 1981 -91 1556 -91
Q 1019 -91 701 211
Q 384 513 384 1019
Q 384 1609 779 1909
Q 1175 2209 1959 2209
L 2766 2209
L 2766 2266
Q 2766 2663 2505 2880
Q 2244 3097 1772 3097
Q 1472 3097 1187 3025
Q 903 2953 641 2809
L 641 3341
Q 956 3463 1253 3523
Q 1550 3584 1831 3584
Q 2591 3584 2966 3190
Q 3341 2797 3341 1997
z
" transform="scale(0.015625)"/>
      <path id="DejaVuSans-64" d="M 2906 2969
L 2906 4863
L 3481 4863
L 3481 0
L 2906 0
L 2906 525
Q 2725 213 2448 61
Q 2172 -91 1784 -91
Q 1150 -91 751 415
Q 353 922 353 1747
Q 353 2572 751 3078
Q 1150 3584 1784 3584
Q 2172 3584 2448 3432
Q 2725 3281 2906 2969
z
M 947 1747
Q 947 1113 1208 752
Q 1469 391 1925 391
Q 2381 391 2643 752
Q 2906 1113 2906 1747
Q 2906 2381 2643 2742
Q 2381 3103 1925 3103
Q 1469 3103 1208 2742
Q 947 2381 947 1747
z
" transform="scale(0.015625)"/>
      <path id="DejaVuSans-73" d="M 2834 3397
L 2834 2853
Q 2591 2978 2328 3040
Q 2066 3103 1784 3103
Q 1356 3103 1142 2972
Q 928 2841 928 2578
Q 928 2378 1081 2264
Q 1234 2150 1697 2047
L 1894 2003
Q 2506 1872 2764 1633
Q 3022 1394 3022 966
Q 3022 478 2636 193
Q 2250 -91 1575 -91
Q 1294 -91 989 -36
Q 684 19 347 128
L 347 722
Q 666 556 975 473
Q 1284 391 1588 391
Q 1994 391 2212 530
Q 2431 669 2431 922
Q 2431 1156 2273 1281
Q 2116 1406 1581 1522
L 1381 1569
Q 847 1681 609 1914
Q 372 2147 372 2553
Q 372 3047 722 3315
Q 1072 3584 1716 3584
Q 2034 3584 2315 3537
Q 2597 3491 2834 3397
z
" transform="scale(0.015625)"/>
      <path id="DejaVuSans-72" d="M 2631 2963
Q 2534 3019 2420 3045
Q 2306 3072 2169 3072
Q 1681 3072 1420 2755
Q 1159 2438 1159 1844
L 1159 0
L 581 0
L 581 3500
L 1159 3500
L 1159 2956
Q 1341 3275 1631 3429
Q 1922 3584 2338 3584
Q 2397 3584 2469 3576
Q 2541 3569 2628 3553
L 2631 2963
z
" transform="scale(0.015625)"/>
      <path id="DejaVuSans-65" d="M 3597 1894
L 3597 1613
L 953 1613
Q 991 1019 1311 708
Q 1631 397 2203 397
Q 2534 397 2845 478
Q 3156 559 3463 722
L 3463 178
Q 3153 47 2828 -22
Q 2503 -91 2169 -91
Q 1331 -91 842 396
Q 353 884 353 1716
Q 353 2575 817 3079
Q 1281 3584 2069 3584
Q 2775 3584 3186 3129
Q 3597 2675 3597 1894
z
M 3022 2063
Q 3016 2534 2758 2815
Q 2500 3097 2075 3097
Q 1594 3097 1305 2825
Q 1016 2553 972 2059
L 3022 2063
z
" transform="scale(0.015625)"/>
      <path id="DejaVuSans-6c" d="M 603 4863
L 1178 4863
L 1178 0
L 603 0
L 603 4863
z
" transform="scale(0.015625)"/>
     </defs>
     <use xlink:href="#DejaVuSans-41"/>
     <use xlink:href="#DejaVuSans-20" transform="translate(68.408203 0)"/>
     <use xlink:href="#DejaVuSans-66" transform="translate(100.195312 0)"/>
     <use xlink:href="#DejaVuSans-75" transform="translate(135.400391 0)"/>
     <use xlink:href="#DejaVuSans-6e" transform="translate(198.779297 0)"/>
     <use xlink:href="#DejaVuSans-63" transform="translate(262.158203 0)"/>
     <use xlink:href="#DejaVuSans-74" transform="translate(317.138672 0)"/>
     <use xlink:href="#DejaVuSans-69" transform="translate(356.347656 0)"/>
     <use xlink:href="#DejaVuSans-6f" transform="translate(384.130859 0)"/>
     <use xlink:href="#DejaVuSans-6e" transform="translate(445.3125 0)"/>
     <use xlink:href="#DejaVuSans-20" transform="translate(508.691406 0)"/>
     <use xlink:href="#DejaVuSans-61" transform="translate(540.478516 0)"/>
     <use xlink:href="#DejaVuSans-6e" transform="translate(601.757812 0)"/>
     <use xlink:href="#DejaVuSans-64" transform="translate(665.136719 0)"/>
     <use xlink:href="#DejaVuSans-20" transform="translate(728.613281 0)"/>
     <use xlink:href="#DejaVuSans-69" transform="translate(760.400391 0)"/>
     <use xlink:href="#DejaVuSans-74" transform="translate(788.183594 0)"/>
     <use xlink:href="#DejaVuSans-73" transform="translate(827.392578 0)"/>
     <use xlink:href="#DejaVuSans-20" transform="translate(879.492188 0)"/>
     <use xlink:href="#DejaVuSans-72" transform="translate(911.279297 0)"/>
     <use xlink:href="#DejaVuSans-65" transform="translate(950.142578 0)"/>
     <use xlink:href="#DejaVuSans-66" transform="translate(1011.666016 0)"/>
     <use xlink:href="#DejaVuSans-6c" transform="translate(1046.871094 0)"/>
     <use xlink:href="#DejaVuSans-65" transform="translate(1074.654297 0)"/>
     <use xlink:href="#DejaVuSans-63" transform="translate(1136.177734 0)"/>
     <use xlink:href="#DejaVuSans-74" transform="translate(1191.158203 0)"/>
     <use xlink:href="#DejaVuSans-69" transform="translate(1230.367188 0)"/>
     <use xlink:href="#DejaVuSans-6f" transform="translate(1258.150391 0)"/>
     <use xlink:href="#DejaVuSans-6e" transform="translate(1319.332031 0)"/>
    </g>
   </g>
   <g id="legend_1">
    <g id="patch_7">
     <path d="M 295.1125 74.3525
L 381.4125 74.3525
Q 383.4125 74.3525 383.4125 72.3525
L 383.4125 29.318125
Q 383.4125 27.318125 381.4125 27.318125
L 295.1125 27.318125
Q 293.1125 27.318125 293.1125 29.318125
L 293.1125 72.3525
Q 293.1125 74.3525 295.1125 74.3525
z
" style="opacity: 0.8; stroke: #cccccc; stroke-linejoin: miter"/>
    </g>
    <g id="line2d_30">
     <path d="M 297.1125 35.416562
L 307.1125 35.416562
L 317.1125 35.416562
" style="fill: none; stroke: #8dd3c7; stroke-width: 2.5; stroke-linecap: square"/>
    </g>
    <g id="text_17">
     <!-- $f(x)$ -->
     <g style="fill: #ffffff" transform="translate(325.1125 38.916562) scale(0.1 -0.1)">
      <defs>
       <path id="DejaVuSans-Oblique-66" d="M 3059 4863
L 2969 4384
L 2419 4384
Q 2106 4384 1964 4261
Q 1822 4138 1753 3809
L 1691 3500
L 2638 3500
L 2553 3053
L 1606 3053
L 1013 0
L 434 0
L 1031 3053
L 481 3053
L 563 3500
L 1113 3500
L 1159 3744
Q 1278 4363 1576 4613
Q 1875 4863 2516 4863
L 3059 4863
z
" transform="scale(0.015625)"/>
       <path id="DejaVuSans-28" d="M 1984 4856
Q 1566 4138 1362 3434
Q 1159 2731 1159 2009
Q 1159 1288 1364 580
Q 1569 -128 1984 -844
L 1484 -844
Q 1016 -109 783 600
Q 550 1309 550 2009
Q 550 2706 781 3412
Q 1013 4119 1484 4856
L 1984 4856
z
" transform="scale(0.015625)"/>
       <path id="DejaVuSans-Oblique-78" d="M 3841 3500
L 2234 1784
L 3219 0
L 2559 0
L 1819 1388
L 531 0
L -166 0
L 1556 1844
L 641 3500
L 1300 3500
L 1972 2234
L 3144 3500
L 3841 3500
z
" transform="scale(0.015625)"/>
       <path id="DejaVuSans-29" d="M 513 4856
L 1013 4856
Q 1481 4119 1714 3412
Q 1947 2706 1947 2009
Q 1947 1309 1714 600
Q 1481 -109 1013 -844
L 513 -844
Q 928 -128 1133 580
Q 1338 1288 1338 2009
Q 1338 2731 1133 3434
Q 928 4138 513 4856
z
" transform="scale(0.015625)"/>
      </defs>
      <use xlink:href="#DejaVuSans-Oblique-66" transform="translate(0 0.015625)"/>
      <use xlink:href="#DejaVuSans-28" transform="translate(35.205078 0.015625)"/>
      <use xlink:href="#DejaVuSans-Oblique-78" transform="translate(74.21875 0.015625)"/>
      <use xlink:href="#DejaVuSans-29" transform="translate(133.398438 0.015625)"/>
     </g>
    </g>
    <g id="line2d_31">
     <path d="M 297.1125 50.094687
L 307.1125 50.094687
L 317.1125 50.094687
" style="fill: none; stroke: #feffb3; stroke-width: 2.5; stroke-linecap: square"/>
    </g>
    <g id="text_18">
     <!-- $f(a+b-x)$ -->
     <g style="fill: #ffffff" transform="translate(325.1125 53.594687) scale(0.1 -0.1)">
      <defs>
       <path id="DejaVuSans-Oblique-61" d="M 3438 1997
L 3047 0
L 2472 0
L 2578 531
Q 2325 219 2001 64
Q 1678 -91 1281 -91
Q 834 -91 548 182
Q 263 456 263 884
Q 263 1497 752 1853
Q 1241 2209 2100 2209
L 2900 2209
L 2931 2363
Q 2938 2388 2941 2417
Q 2944 2447 2944 2509
Q 2944 2788 2717 2942
Q 2491 3097 2081 3097
Q 1800 3097 1504 3025
Q 1209 2953 897 2809
L 997 3341
Q 1322 3463 1633 3523
Q 1944 3584 2234 3584
Q 2853 3584 3176 3315
Q 3500 3047 3500 2534
Q 3500 2431 3484 2292
Q 3469 2153 3438 1997
z
M 2816 1759
L 2241 1759
Q 1534 1759 1195 1570
Q 856 1381 856 984
Q 856 709 1029 553
Q 1203 397 1509 397
Q 1978 397 2328 733
Q 2678 1069 2791 1631
L 2816 1759
z
" transform="scale(0.015625)"/>
       <path id="DejaVuSans-2b" d="M 2944 4013
L 2944 2272
L 4684 2272
L 4684 1741
L 2944 1741
L 2944 0
L 2419 0
L 2419 1741
L 678 1741
L 678 2272
L 2419 2272
L 2419 4013
L 2944 4013
z
" transform="scale(0.015625)"/>
       <path id="DejaVuSans-Oblique-62" d="M 3169 2138
Q 3169 2591 2961 2847
Q 2753 3103 2388 3103
Q 2122 3103 1889 2973
Q 1656 2844 1484 2597
Q 1303 2338 1198 1995
Q 1094 1653 1094 1313
Q 1094 881 1298 636
Q 1503 391 1863 391
Q 2134 391 2365 517
Q 2597 644 2772 891
Q 2950 1147 3059 1487
Q 3169 1828 3169 2138
z
M 1381 2969
Q 1594 3256 1914 3420
Q 2234 3584 2584 3584
Q 3122 3584 3439 3221
Q 3756 2859 3756 2241
Q 3756 1734 3570 1259
Q 3384 784 3041 416
Q 2816 172 2522 40
Q 2228 -91 1906 -91
Q 1566 -91 1316 65
Q 1066 222 909 531
L 806 0
L 231 0
L 1178 4863
L 1753 4863
L 1381 2969
z
" transform="scale(0.015625)"/>
       <path id="DejaVuSans-2212" d="M 678 2272
L 4684 2272
L 4684 1741
L 678 1741
L 678 2272
z
" transform="scale(0.015625)"/>
      </defs>
      <use xlink:href="#DejaVuSans-Oblique-66" transform="translate(0 0.015625)"/>
      <use xlink:href="#DejaVuSans-28" transform="translate(35.205078 0.015625)"/>
      <use xlink:href="#DejaVuSans-Oblique-61" transform="translate(74.21875 0.015625)"/>
      <use xlink:href="#DejaVuSans-2b" transform="translate(154.980469 0.015625)"/>
      <use xlink:href="#DejaVuSans-Oblique-62" transform="translate(258.251953 0.015625)"/>
      <use xlink:href="#DejaVuSans-2212" transform="translate(341.210938 0.015625)"/>
      <use xlink:href="#DejaVuSans-Oblique-78" transform="translate(444.482422 0.015625)"/>
      <use xlink:href="#DejaVuSans-29" transform="translate(503.662109 0.015625)"/>
     </g>
    </g>
    <g id="line2d_32">
     <path d="M 297.1125 64.772812
L 307.1125 64.772812
L 317.1125 64.772812
" style="fill: none; stroke-dasharray: 5.55,2.4; stroke-dashoffset: 0; stroke: #808080; stroke-width: 1.5"/>
    </g>
    <g id="text_19">
     <!-- midpoint -->
     <g style="fill: #ffffff" transform="translate(325.1125 68.272812) scale(0.1 -0.1)">
      <defs>
       <path id="DejaVuSans-6d" d="M 3328 2828
Q 3544 3216 3844 3400
Q 4144 3584 4550 3584
Q 5097 3584 5394 3201
Q 5691 2819 5691 2113
L 5691 0
L 5113 0
L 5113 2094
Q 5113 2597 4934 2840
Q 4756 3084 4391 3084
Q 3944 3084 3684 2787
Q 3425 2491 3425 1978
L 3425 0
L 2847 0
L 2847 2094
Q 2847 2600 2669 2842
Q 2491 3084 2119 3084
Q 1678 3084 1418 2786
Q 1159 2488 1159 1978
L 1159 0
L 581 0
L 581 3500
L 1159 3500
L 1159 2956
Q 1356 3278 1631 3431
Q 1906 3584 2284 3584
Q 2666 3584 2933 3390
Q 3200 3197 3328 2828
z
" transform="scale(0.015625)"/>
       <path id="DejaVuSans-70" d="M 1159 525
L 1159 -1331
L 581 -1331
L 581 3500
L 1159 3500
L 1159 2969
Q 1341 3281 1617 3432
Q 1894 3584 2278 3584
Q 2916 3584 3314 3078
Q 3713 2572 3713 1747
Q 3713 922 3314 415
Q 2916 -91 2278 -91
Q 1894 -91 1617 61
Q 1341 213 1159 525
z
M 3116 1747
Q 3116 2381 2855 2742
Q 2594 3103 2138 3103
Q 1681 3103 1420 2742
Q 1159 2381 1159 1747
Q 1159 1113 1420 752
Q 1681 391 2138 391
Q 2594 391 2855 752
Q 3116 1113 3116 1747
z
" transform="scale(0.015625)"/>
      </defs>
      <use xlink:href="#DejaVuSans-6d"/>
      <use xlink:href="#DejaVuSans-69" transform="translate(97.412109 0)"/>
      <use xlink:href="#DejaVuSans-64" transform="translate(125.195312 0)"/>
      <use xlink:href="#DejaVuSans-70" transform="translate(188.671875 0)"/>
      <use xlink:href="#DejaVuSans-6f" transform="translate(252.148438 0)"/>
      <use xlink:href="#DejaVuSans-69" transform="translate(313.330078 0)"/>
      <use xlink:href="#DejaVuSans-6e" transform="translate(341.113281 0)"/>
      <use xlink:href="#DejaVuSans-74" transform="translate(404.492188 0)"/>
     </g>
    </g>
   </g>
  </g>
 </g>
 <defs>
  <clipPath id="p108b201038">
   <rect x="43.78125" y="22.318125" width="588.9625" height="291.4"/>
  </clipPath>
 </defs>
</svg>
