<?xml version="1.0" encoding="utf-8" standalone="no"?>
<!DOCTYPE svg PUBLIC "-//W3C//DTD SVG 1.1//EN"
  "http://www.w3.org/Graphics/SVG/1.1/DTD/svg11.dtd">
<svg xmlns:xlink="http://www.w3.org/1999/xlink" width="783.772916pt" height="352.474375pt" viewBox="0 0 783.772916 352.474375" xmlns="http://www.w3.org/2000/svg" version="1.1">
 <metadata>
  <rdf:RDF xmlns:dc="http://purl.org/dc/elements/1.1/" xmlns:cc="http://creativecommons.org/ns#" xmlns:rdf="http://www.w3.org/1999/02/22-rdf-syntax-ns#">
   <cc:Work>
    <dc:type rdf:resource="http://purl.org/dc/dcmitype/StillImage"/>
    <dc:date>2026-07-12T12:01:45.715921</dc:date>
    <dc:format>image/svg+xml</dc:format>
    <dc:creator>
     <cc:Agent>
      <dc:title>Matplotlib v3.10.6, https://matplotlib.org/</dc:title>
     </cc:Agent>
    </dc:creator>
   </cc:Work>
  </rdf:RDF>
 </metadata>
 <defs>
  <style type="text/css">*{stroke-linejoin: round; stroke-linecap: butt}</style>
 </defs>
 <g id="figure_1">
  <g id="patch_1">
   <path d="M 0 352.474375 
L 783.772916 352.474375 
L 783.772916 0 
L 0 0 
z
" style="fill: #0c1521"/>
  </g>
  <g id="axes_1">
   <g id="patch_2">
    <path d="M 45.478125 314.918125 
L 776.572916 314.918125 
L 776.572916 22.318125 
L 45.478125 22.318125 
z
" style="fill: #101d2d"/>
   </g>
   <g id="matplotlib.axis_1">
    <g id="xtick_1">
     <g id="line2d_1">
      <path d="M 78.709706 314.918125 
L 78.709706 22.318125 
" clip-path="url(#pca5e46d201)" style="fill: none; stroke: #7890a8; stroke-opacity: 0.25; stroke-width: 0.8; stroke-linecap: square"/>
     </g>
     <g id="line2d_2">
      <defs>
       <path id="mf950e409f2" d="M 0 0 
L 0 3.5 
" style="stroke: #d5e1eb; stroke-width: 0.8"/>
      </defs>
      <g>
       <use xlink:href="#mf950e409f2" x="78.709706" y="314.918125" style="fill: #d5e1eb; stroke: #d5e1eb; stroke-width: 0.8"/>
      </g>
     </g>
     <g id="text_1">
      <!-- 0 -->
      <g style="fill: #d5e1eb" transform="translate(75.528456 329.516563) scale(0.1 -0.1)">
       <defs>
        <path id="DejaVuSans-30" d="M 2034 4250 
Q 1547 4250 1301 3770 
Q 1056 3291 1056 2328 
Q 1056 1369 1301 889 
Q 1547 409 2034 409 
Q 2525 409 2770 889 
Q 3016 1369 3016 2328 
Q 3016 3291 2770 3770 
Q 2525 4250 2034 4250 
z
M 2034 4750 
Q 2819 4750 3233 4129 
Q 3647 3509 3647 2328 
Q 3647 1150 3233 529 
Q 2819 -91 2034 -91 
Q 1250 -91 836 529 
Q 422 1150 422 2328 
Q 422 3509 836 4129 
Q 1250 4750 2034 4750 
z
" transform="scale(0.015625)"/>
       </defs>
       <use xlink:href="#DejaVuSans-30"/>
      </g>
     </g>
    </g>
    <g id="xtick_2">
     <g id="line2d_3">
      <path d="M 205.547803 314.918125 
L 205.547803 22.318125 
" clip-path="url(#pca5e46d201)" style="fill: none; stroke: #7890a8; stroke-opacity: 0.25; stroke-width: 0.8; stroke-linecap: square"/>
     </g>
     <g id="line2d_4">
      <g>
       <use xlink:href="#mf950e409f2" x="205.547803" y="314.918125" style="fill: #d5e1eb; stroke: #d5e1eb; stroke-width: 0.8"/>
      </g>
     </g>
     <g id="text_2">
      <!-- 100 -->
      <g style="fill: #d5e1eb" transform="translate(196.004053 329.516563) scale(0.1 -0.1)">
       <defs>
        <path id="DejaVuSans-31" d="M 794 531 
L 1825 531 
L 1825 4091 
L 703 3866 
L 703 4441 
L 1819 4666 
L 2450 4666 
L 2450 531 
L 3481 531 
L 3481 0 
L 794 0 
L 794 531 
z
" transform="scale(0.015625)"/>
       </defs>
       <use xlink:href="#DejaVuSans-31"/>
       <use xlink:href="#DejaVuSans-30" transform="translate(63.623047 0)"/>
       <use xlink:href="#DejaVuSans-30" transform="translate(127.246094 0)"/>
      </g>
     </g>
    </g>
    <g id="xtick_3">
     <g id="line2d_5">
      <path d="M 332.3859 314.918125 
L 332.3859 22.318125 
" clip-path="url(#pca5e46d201)" style="fill: none; stroke: #7890a8; stroke-opacity: 0.25; stroke-width: 0.8; stroke-linecap: square"/>
     </g>
     <g id="line2d_6">
      <g>
       <use xlink:href="#mf950e409f2" x="332.3859" y="314.918125" style="fill: #d5e1eb; stroke: #d5e1eb; stroke-width: 0.8"/>
      </g>
     </g>
     <g id="text_3">
      <!-- 200 -->
      <g style="fill: #d5e1eb" transform="translate(322.84215 329.516563) scale(0.1 -0.1)">
       <defs>
        <path id="DejaVuSans-32" d="M 1228 531 
L 3431 531 
L 3431 0 
L 469 0 
L 469 531 
Q 828 903 1448 1529 
Q 2069 2156 2228 2338 
Q 2531 2678 2651 2914 
Q 2772 3150 2772 3378 
Q 2772 3750 2511 3984 
Q 2250 4219 1831 4219 
Q 1534 4219 1204 4116 
Q 875 4013 500 3803 
L 500 4441 
Q 881 4594 1212 4672 
Q 1544 4750 1819 4750 
Q 2544 4750 2975 4387 
Q 3406 4025 3406 3419 
Q 3406 3131 3298 2873 
Q 3191 2616 2906 2266 
Q 2828 2175 2409 1742 
Q 1991 1309 1228 531 
z
" transform="scale(0.015625)"/>
       </defs>
       <use xlink:href="#DejaVuSans-32"/>
       <use xlink:href="#DejaVuSans-30" transform="translate(63.623047 0)"/>
       <use xlink:href="#DejaVuSans-30" transform="translate(127.246094 0)"/>
      </g>
     </g>
    </g>
    <g id="xtick_4">
     <g id="line2d_7">
      <path d="M 459.223997 314.918125 
L 459.223997 22.318125 
" clip-path="url(#pca5e46d201)" style="fill: none; stroke: #7890a8; stroke-opacity: 0.25; stroke-width: 0.8; stroke-linecap: square"/>
     </g>
     <g id="line2d_8">
      <g>
       <use xlink:href="#mf950e409f2" x="459.223997" y="314.918125" style="fill: #d5e1eb; stroke: #d5e1eb; stroke-width: 0.8"/>
      </g>
     </g>
     <g id="text_4">
      <!-- 300 -->
      <g style="fill: #d5e1eb" transform="translate(449.680247 329.516563) scale(0.1 -0.1)">
       <defs>
        <path id="DejaVuSans-33" d="M 2597 2516 
Q 3050 2419 3304 2112 
Q 3559 1806 3559 1356 
Q 3559 666 3084 287 
Q 2609 -91 1734 -91 
Q 1441 -91 1130 -33 
Q 819 25 488 141 
L 488 750 
Q 750 597 1062 519 
Q 1375 441 1716 441 
Q 2309 441 2620 675 
Q 2931 909 2931 1356 
Q 2931 1769 2642 2001 
Q 2353 2234 1838 2234 
L 1294 2234 
L 1294 2753 
L 1863 2753 
Q 2328 2753 2575 2939 
Q 2822 3125 2822 3475 
Q 2822 3834 2567 4026 
Q 2313 4219 1838 4219 
Q 1578 4219 1281 4162 
Q 984 4106 628 3988 
L 628 4550 
Q 988 4650 1302 4700 
Q 1616 4750 1894 4750 
Q 2613 4750 3031 4423 
Q 3450 4097 3450 3541 
Q 3450 3153 3228 2886 
Q 3006 2619 2597 2516 
z
" transform="scale(0.015625)"/>
       </defs>
       <use xlink:href="#DejaVuSans-33"/>
       <use xlink:href="#DejaVuSans-30" transform="translate(63.623047 0)"/>
       <use xlink:href="#DejaVuSans-30" transform="translate(127.246094 0)"/>
      </g>
     </g>
    </g>
    <g id="xtick_5">
     <g id="line2d_9">
      <path d="M 586.062094 314.918125 
L 586.062094 22.318125 
" clip-path="url(#pca5e46d201)" style="fill: none; stroke: #7890a8; stroke-opacity: 0.25; stroke-width: 0.8; stroke-linecap: square"/>
     </g>
     <g id="line2d_10">
      <g>
       <use xlink:href="#mf950e409f2" x="586.062094" y="314.918125" style="fill: #d5e1eb; stroke: #d5e1eb; stroke-width: 0.8"/>
      </g>
     </g>
     <g id="text_5">
      <!-- 400 -->
      <g style="fill: #d5e1eb" transform="translate(576.518344 329.516563) scale(0.1 -0.1)">
       <defs>
        <path id="DejaVuSans-34" d="M 2419 4116 
L 825 1625 
L 2419 1625 
L 2419 4116 
z
M 2253 4666 
L 3047 4666 
L 3047 1625 
L 3713 1625 
L 3713 1100 
L 3047 1100 
L 3047 0 
L 2419 0 
L 2419 1100 
L 313 1100 
L 313 1709 
L 2253 4666 
z
" transform="scale(0.015625)"/>
       </defs>
       <use xlink:href="#DejaVuSans-34"/>
       <use xlink:href="#DejaVuSans-30" transform="translate(63.623047 0)"/>
       <use xlink:href="#DejaVuSans-30" transform="translate(127.246094 0)"/>
      </g>
     </g>
    </g>
    <g id="xtick_6">
     <g id="line2d_11">
      <path d="M 712.900191 314.918125 
L 712.900191 22.318125 
" clip-path="url(#pca5e46d201)" style="fill: none; stroke: #7890a8; stroke-opacity: 0.25; stroke-width: 0.8; stroke-linecap: square"/>
     </g>
     <g id="line2d_12">
      <g>
       <use xlink:href="#mf950e409f2" x="712.900191" y="314.918125" style="fill: #d5e1eb; stroke: #d5e1eb; stroke-width: 0.8"/>
      </g>
     </g>
     <g id="text_6">
      <!-- 500 -->
      <g style="fill: #d5e1eb" transform="translate(703.356441 329.516563) scale(0.1 -0.1)">
       <defs>
        <path id="DejaVuSans-35" d="M 691 4666 
L 3169 4666 
L 3169 4134 
L 1269 4134 
L 1269 2991 
Q 1406 3038 1543 3061 
Q 1681 3084 1819 3084 
Q 2600 3084 3056 2656 
Q 3513 2228 3513 1497 
Q 3513 744 3044 326 
Q 2575 -91 1722 -91 
Q 1428 -91 1123 -41 
Q 819 9 494 109 
L 494 744 
Q 775 591 1075 516 
Q 1375 441 1709 441 
Q 2250 441 2565 725 
Q 2881 1009 2881 1497 
Q 2881 1984 2565 2268 
Q 2250 2553 1709 2553 
Q 1456 2553 1204 2497 
Q 953 2441 691 2322 
L 691 4666 
z
" transform="scale(0.015625)"/>
       </defs>
       <use xlink:href="#DejaVuSans-35"/>
       <use xlink:href="#DejaVuSans-30" transform="translate(63.623047 0)"/>
       <use xlink:href="#DejaVuSans-30" transform="translate(127.246094 0)"/>
      </g>
     </g>
    </g>
    <g id="text_7">
     <!-- Step number -->
     <g style="fill: #e7edf4" transform="translate(378.537239 343.194687) scale(0.1 -0.1)">
      <defs>
       <path id="DejaVuSans-53" d="M 3425 4513 
L 3425 3897 
Q 3066 4069 2747 4153 
Q 2428 4238 2131 4238 
Q 1616 4238 1336 4038 
Q 1056 3838 1056 3469 
Q 1056 3159 1242 3001 
Q 1428 2844 1947 2747 
L 2328 2669 
Q 3034 2534 3370 2195 
Q 3706 1856 3706 1288 
Q 3706 609 3251 259 
Q 2797 -91 1919 -91 
Q 1588 -91 1214 -16 
Q 841 59 441 206 
L 441 856 
Q 825 641 1194 531 
Q 1563 422 1919 422 
Q 2459 422 2753 634 
Q 3047 847 3047 1241 
Q 3047 1584 2836 1778 
Q 2625 1972 2144 2069 
L 1759 2144 
Q 1053 2284 737 2584 
Q 422 2884 422 3419 
Q 422 4038 858 4394 
Q 1294 4750 2059 4750 
Q 2388 4750 2728 4690 
Q 3069 4631 3425 4513 
z
" transform="scale(0.015625)"/>
       <path id="DejaVuSans-74" d="M 1172 4494 
L 1172 3500 
L 2356 3500 
L 2356 3053 
L 1172 3053 
L 1172 1153 
Q 1172 725 1289 603 
Q 1406 481 1766 481 
L 2356 481 
L 2356 0 
L 1766 0 
Q 1100 0 847 248 
Q 594 497 594 1153 
L 594 3053 
L 172 3053 
L 172 3500 
L 594 3500 
L 594 4494 
L 1172 4494 
z
" transform="scale(0.015625)"/>
       <path id="DejaVuSans-65" d="M 3597 1894 
L 3597 1613 
L 953 1613 
Q 991 1019 1311 708 
Q 1631 397 2203 397 
Q 2534 397 2845 478 
Q 3156 559 3463 722 
L 3463 178 
Q 3153 47 2828 -22 
Q 2503 -91 2169 -91 
Q 1331 -91 842 396 
Q 353 884 353 1716 
Q 353 2575 817 3079 
Q 1281 3584 2069 3584 
Q 2775 3584 3186 3129 
Q 3597 2675 3597 1894 
z
M 3022 2063 
Q 3016 2534 2758 2815 
Q 2500 3097 2075 3097 
Q 1594 3097 1305 2825 
Q 1016 2553 972 2059 
L 3022 2063 
z
" transform="scale(0.015625)"/>
       <path id="DejaVuSans-70" d="M 1159 525 
L 1159 -1331 
L 581 -1331 
L 581 3500 
L 1159 3500 
L 1159 2969 
Q 1341 3281 1617 3432 
Q 1894 3584 2278 3584 
Q 2916 3584 3314 3078 
Q 3713 2572 3713 1747 
Q 3713 922 3314 415 
Q 2916 -91 2278 -91 
Q 1894 -91 1617 61 
Q 1341 213 1159 525 
z
M 3116 1747 
Q 3116 2381 2855 2742 
Q 2594 3103 2138 3103 
Q 1681 3103 1420 2742 
Q 1159 2381 1159 1747 
Q 1159 1113 1420 752 
Q 1681 391 2138 391 
Q 2594 391 2855 752 
Q 3116 1113 3116 1747 
z
" transform="scale(0.015625)"/>
       <path id="DejaVuSans-20" transform="scale(0.015625)"/>
       <path id="DejaVuSans-6e" d="M 3513 2113 
L 3513 0 
L 2938 0 
L 2938 2094 
Q 2938 2591 2744 2837 
Q 2550 3084 2163 3084 
Q 1697 3084 1428 2787 
Q 1159 2491 1159 1978 
L 1159 0 
L 581 0 
L 581 3500 
L 1159 3500 
L 1159 2956 
Q 1366 3272 1645 3428 
Q 1925 3584 2291 3584 
Q 2894 3584 3203 3211 
Q 3513 2838 3513 2113 
z
" transform="scale(0.015625)"/>
       <path id="DejaVuSans-75" d="M 544 1381 
L 544 3500 
L 1119 3500 
L 1119 1403 
Q 1119 906 1312 657 
Q 1506 409 1894 409 
Q 2359 409 2629 706 
Q 2900 1003 2900 1516 
L 2900 3500 
L 3475 3500 
L 3475 0 
L 2900 0 
L 2900 538 
Q 2691 219 2414 64 
Q 2138 -91 1772 -91 
Q 1169 -91 856 284 
Q 544 659 544 1381 
z
M 1991 3584 
L 1991 3584 
z
" transform="scale(0.015625)"/>
       <path id="DejaVuSans-6d" d="M 3328 2828 
Q 3544 3216 3844 3400 
Q 4144 3584 4550 3584 
Q 5097 3584 5394 3201 
Q 5691 2819 5691 2113 
L 5691 0 
L 5113 0 
L 5113 2094 
Q 5113 2597 4934 2840 
Q 4756 3084 4391 3084 
Q 3944 3084 3684 2787 
Q 3425 2491 3425 1978 
L 3425 0 
L 2847 0 
L 2847 2094 
Q 2847 2600 2669 2842 
Q 2491 3084 2119 3084 
Q 1678 3084 1418 2786 
Q 1159 2488 1159 1978 
L 1159 0 
L 581 0 
L 581 3500 
L 1159 3500 
L 1159 2956 
Q 1356 3278 1631 3431 
Q 1906 3584 2284 3584 
Q 2666 3584 2933 3390 
Q 3200 3197 3328 2828 
z
" transform="scale(0.015625)"/>
       <path id="DejaVuSans-62" d="M 3116 1747 
Q 3116 2381 2855 2742 
Q 2594 3103 2138 3103 
Q 1681 3103 1420 2742 
Q 1159 2381 1159 1747 
Q 1159 1113 1420 752 
Q 1681 391 2138 391 
Q 2594 391 2855 752 
Q 3116 1113 3116 1747 
z
M 1159 2969 
Q 1341 3281 1617 3432 
Q 1894 3584 2278 3584 
Q 2916 3584 3314 3078 
Q 3713 2572 3713 1747 
Q 3713 922 3314 415 
Q 2916 -91 2278 -91 
Q 1894 -91 1617 61 
Q 1341 213 1159 525 
L 1159 0 
L 581 0 
L 581 4863 
L 1159 4863 
L 1159 2969 
z
" transform="scale(0.015625)"/>
       <path id="DejaVuSans-72" d="M 2631 2963 
Q 2534 3019 2420 3045 
Q 2306 3072 2169 3072 
Q 1681 3072 1420 2755 
Q 1159 2438 1159 1844 
L 1159 0 
L 581 0 
L 581 3500 
L 1159 3500 
L 1159 2956 
Q 1341 3275 1631 3429 
Q 1922 3584 2338 3584 
Q 2397 3584 2469 3576 
Q 2541 3569 2628 3553 
L 2631 2963 
z
" transform="scale(0.015625)"/>
      </defs>
      <use xlink:href="#DejaVuSans-53"/>
      <use xlink:href="#DejaVuSans-74" transform="translate(63.476562 0)"/>
      <use xlink:href="#DejaVuSans-65" transform="translate(102.685547 0)"/>
      <use xlink:href="#DejaVuSans-70" transform="translate(164.208984 0)"/>
      <use xlink:href="#DejaVuSans-20" transform="translate(227.685547 0)"/>
      <use xlink:href="#DejaVuSans-6e" transform="translate(259.472656 0)"/>
      <use xlink:href="#DejaVuSans-75" transform="translate(322.851562 0)"/>
      <use xlink:href="#DejaVuSans-6d" transform="translate(386.230469 0)"/>
      <use xlink:href="#DejaVuSans-62" transform="translate(483.642578 0)"/>
      <use xlink:href="#DejaVuSans-65" transform="translate(547.119141 0)"/>
      <use xlink:href="#DejaVuSans-72" transform="translate(608.642578 0)"/>
     </g>
    </g>
   </g>
   <g id="matplotlib.axis_2">
    <g id="ytick_1">
     <g id="line2d_13">
      <path d="M 45.478125 273.539756 
L 776.572916 273.539756 
" clip-path="url(#pca5e46d201)" style="fill: none; stroke: #7890a8; stroke-opacity: 0.25; stroke-width: 0.8; stroke-linecap: square"/>
     </g>
     <g id="line2d_14">
      <defs>
       <path id="m48fcc683e5" d="M 0 0 
L -3.5 0 
" style="stroke: #d5e1eb; stroke-width: 0.8"/>
      </defs>
      <g>
       <use xlink:href="#m48fcc683e5" x="45.478125" y="273.539756" style="fill: #d5e1eb; stroke: #d5e1eb; stroke-width: 0.8"/>
      </g>
     </g>
     <g id="text_8">
      <!-- $\mathdefault{10^{1}}$ -->
      <g style="fill: #d5e1eb" transform="translate(20.878125 277.338975) scale(0.1 -0.1)">
       <use xlink:href="#DejaVuSans-31" transform="translate(0 0.684375)"/>
       <use xlink:href="#DejaVuSans-30" transform="translate(63.623047 0.684375)"/>
       <use xlink:href="#DejaVuSans-31" transform="translate(128.203125 38.965625) scale(0.7)"/>
      </g>
     </g>
    </g>
    <g id="ytick_2">
     <g id="line2d_15">
      <path d="M 45.478125 217.383018 
L 776.572916 217.383018 
" clip-path="url(#pca5e46d201)" style="fill: none; stroke: #7890a8; stroke-opacity: 0.25; stroke-width: 0.8; stroke-linecap: square"/>
     </g>
     <g id="line2d_16">
      <g>
       <use xlink:href="#m48fcc683e5" x="45.478125" y="217.383018" style="fill: #d5e1eb; stroke: #d5e1eb; stroke-width: 0.8"/>
      </g>
     </g>
     <g id="text_9">
      <!-- $\mathdefault{10^{3}}$ -->
      <g style="fill: #d5e1eb" transform="translate(20.878125 221.182237) scale(0.1 -0.1)">
       <use xlink:href="#DejaVuSans-31" transform="translate(0 0.765625)"/>
       <use xlink:href="#DejaVuSans-30" transform="translate(63.623047 0.765625)"/>
       <use xlink:href="#DejaVuSans-33" transform="translate(128.203125 39.046875) scale(0.7)"/>
      </g>
     </g>
    </g>
    <g id="ytick_3">
     <g id="line2d_17">
      <path d="M 45.478125 161.22628 
L 776.572916 161.22628 
" clip-path="url(#pca5e46d201)" style="fill: none; stroke: #7890a8; stroke-opacity: 0.25; stroke-width: 0.8; stroke-linecap: square"/>
     </g>
     <g id="line2d_18">
      <g>
       <use xlink:href="#m48fcc683e5" x="45.478125" y="161.22628" style="fill: #d5e1eb; stroke: #d5e1eb; stroke-width: 0.8"/>
      </g>
     </g>
     <g id="text_10">
      <!-- $\mathdefault{10^{5}}$ -->
      <g style="fill: #d5e1eb" transform="translate(20.878125 165.025499) scale(0.1 -0.1)">
       <use xlink:href="#DejaVuSans-31" transform="translate(0 0.684375)"/>
       <use xlink:href="#DejaVuSans-30" transform="translate(63.623047 0.684375)"/>
       <use xlink:href="#DejaVuSans-35" transform="translate(128.203125 38.965625) scale(0.7)"/>
      </g>
     </g>
    </g>
    <g id="ytick_4">
     <g id="line2d_19">
      <path d="M 45.478125 105.069542 
L 776.572916 105.069542 
" clip-path="url(#pca5e46d201)" style="fill: none; stroke: #7890a8; stroke-opacity: 0.25; stroke-width: 0.8; stroke-linecap: square"/>
     </g>
     <g id="line2d_20">
      <g>
       <use xlink:href="#m48fcc683e5" x="45.478125" y="105.069542" style="fill: #d5e1eb; stroke: #d5e1eb; stroke-width: 0.8"/>
      </g>
     </g>
     <g id="text_11">
      <!-- $\mathdefault{10^{7}}$ -->
      <g style="fill: #d5e1eb" transform="translate(20.878125 108.86876) scale(0.1 -0.1)">
       <defs>
        <path id="DejaVuSans-37" d="M 525 4666 
L 3525 4666 
L 3525 4397 
L 1831 0 
L 1172 0 
L 2766 4134 
L 525 4134 
L 525 4666 
z
" transform="scale(0.015625)"/>
       </defs>
       <use xlink:href="#DejaVuSans-31" transform="translate(0 0.684375)"/>
       <use xlink:href="#DejaVuSans-30" transform="translate(63.623047 0.684375)"/>
       <use xlink:href="#DejaVuSans-37" transform="translate(128.203125 38.965625) scale(0.7)"/>
      </g>
     </g>
    </g>
    <g id="ytick_5">
     <g id="line2d_21">
      <path d="M 45.478125 48.912804 
L 776.572916 48.912804 
" clip-path="url(#pca5e46d201)" style="fill: none; stroke: #7890a8; stroke-opacity: 0.25; stroke-width: 0.8; stroke-linecap: square"/>
     </g>
     <g id="line2d_22">
      <g>
       <use xlink:href="#m48fcc683e5" x="45.478125" y="48.912804" style="fill: #d5e1eb; stroke: #d5e1eb; stroke-width: 0.8"/>
      </g>
     </g>
     <g id="text_12">
      <!-- $\mathdefault{10^{9}}$ -->
      <g style="fill: #d5e1eb" transform="translate(20.878125 52.712022) scale(0.1 -0.1)">
       <defs>
        <path id="DejaVuSans-39" d="M 703 97 
L 703 672 
Q 941 559 1184 500 
Q 1428 441 1663 441 
Q 2288 441 2617 861 
Q 2947 1281 2994 2138 
Q 2813 1869 2534 1725 
Q 2256 1581 1919 1581 
Q 1219 1581 811 2004 
Q 403 2428 403 3163 
Q 403 3881 828 4315 
Q 1253 4750 1959 4750 
Q 2769 4750 3195 4129 
Q 3622 3509 3622 2328 
Q 3622 1225 3098 567 
Q 2575 -91 1691 -91 
Q 1453 -91 1209 -44 
Q 966 3 703 97 
z
M 1959 2075 
Q 2384 2075 2632 2365 
Q 2881 2656 2881 3163 
Q 2881 3666 2632 3958 
Q 2384 4250 1959 4250 
Q 1534 4250 1286 3958 
Q 1038 3666 1038 3163 
Q 1038 2656 1286 2365 
Q 1534 2075 1959 2075 
z
" transform="scale(0.015625)"/>
       </defs>
       <use xlink:href="#DejaVuSans-31" transform="translate(0 0.765625)"/>
       <use xlink:href="#DejaVuSans-30" transform="translate(63.623047 0.765625)"/>
       <use xlink:href="#DejaVuSans-39" transform="translate(128.203125 39.046875) scale(0.7)"/>
      </g>
     </g>
    </g>
    <g id="text_13">
     <!-- Term value (logarithmic scale) -->
     <g style="fill: #e7edf4" transform="translate(14.798437 244.215781) rotate(-90) scale(0.1 -0.1)">
      <defs>
       <path id="DejaVuSans-54" d="M -19 4666 
L 3928 4666 
L 3928 4134 
L 2272 4134 
L 2272 0 
L 1638 0 
L 1638 4134 
L -19 4134 
L -19 4666 
z
" transform="scale(0.015625)"/>
       <path id="DejaVuSans-76" d="M 191 3500 
L 800 3500 
L 1894 563 
L 2988 3500 
L 3597 3500 
L 2284 0 
L 1503 0 
L 191 3500 
z
" transform="scale(0.015625)"/>
       <path id="DejaVuSans-61" d="M 2194 1759 
Q 1497 1759 1228 1600 
Q 959 1441 959 1056 
Q 959 750 1161 570 
Q 1363 391 1709 391 
Q 2188 391 2477 730 
Q 2766 1069 2766 1631 
L 2766 1759 
L 2194 1759 
z
M 3341 1997 
L 3341 0 
L 2766 0 
L 2766 531 
Q 2569 213 2275 61 
Q 1981 -91 1556 -91 
Q 1019 -91 701 211 
Q 384 513 384 1019 
Q 384 1609 779 1909 
Q 1175 2209 1959 2209 
L 2766 2209 
L 2766 2266 
Q 2766 2663 2505 2880 
Q 2244 3097 1772 3097 
Q 1472 3097 1187 3025 
Q 903 2953 641 2809 
L 641 3341 
Q 956 3463 1253 3523 
Q 1550 3584 1831 3584 
Q 2591 3584 2966 3190 
Q 3341 2797 3341 1997 
z
" transform="scale(0.015625)"/>
       <path id="DejaVuSans-6c" d="M 603 4863 
L 1178 4863 
L 1178 0 
L 603 0 
L 603 4863 
z
" transform="scale(0.015625)"/>
       <path id="DejaVuSans-28" d="M 1984 4856 
Q 1566 4138 1362 3434 
Q 1159 2731 1159 2009 
Q 1159 1288 1364 580 
Q 1569 -128 1984 -844 
L 1484 -844 
Q 1016 -109 783 600 
Q 550 1309 550 2009 
Q 550 2706 781 3412 
Q 1013 4119 1484 4856 
L 1984 4856 
z
" transform="scale(0.015625)"/>
       <path id="DejaVuSans-6f" d="M 1959 3097 
Q 1497 3097 1228 2736 
Q 959 2375 959 1747 
Q 959 1119 1226 758 
Q 1494 397 1959 397 
Q 2419 397 2687 759 
Q 2956 1122 2956 1747 
Q 2956 2369 2687 2733 
Q 2419 3097 1959 3097 
z
M 1959 3584 
Q 2709 3584 3137 3096 
Q 3566 2609 3566 1747 
Q 3566 888 3137 398 
Q 2709 -91 1959 -91 
Q 1206 -91 779 398 
Q 353 888 353 1747 
Q 353 2609 779 3096 
Q 1206 3584 1959 3584 
z
" transform="scale(0.015625)"/>
       <path id="DejaVuSans-67" d="M 2906 1791 
Q 2906 2416 2648 2759 
Q 2391 3103 1925 3103 
Q 1463 3103 1205 2759 
Q 947 2416 947 1791 
Q 947 1169 1205 825 
Q 1463 481 1925 481 
Q 2391 481 2648 825 
Q 2906 1169 2906 1791 
z
M 3481 434 
Q 3481 -459 3084 -895 
Q 2688 -1331 1869 -1331 
Q 1566 -1331 1297 -1286 
Q 1028 -1241 775 -1147 
L 775 -588 
Q 1028 -725 1275 -790 
Q 1522 -856 1778 -856 
Q 2344 -856 2625 -561 
Q 2906 -266 2906 331 
L 2906 616 
Q 2728 306 2450 153 
Q 2172 0 1784 0 
Q 1141 0 747 490 
Q 353 981 353 1791 
Q 353 2603 747 3093 
Q 1141 3584 1784 3584 
Q 2172 3584 2450 3431 
Q 2728 3278 2906 2969 
L 2906 3500 
L 3481 3500 
L 3481 434 
z
" transform="scale(0.015625)"/>
       <path id="DejaVuSans-69" d="M 603 3500 
L 1178 3500 
L 1178 0 
L 603 0 
L 603 3500 
z
M 603 4863 
L 1178 4863 
L 1178 4134 
L 603 4134 
L 603 4863 
z
" transform="scale(0.015625)"/>
       <path id="DejaVuSans-68" d="M 3513 2113 
L 3513 0 
L 2938 0 
L 2938 2094 
Q 2938 2591 2744 2837 
Q 2550 3084 2163 3084 
Q 1697 3084 1428 2787 
Q 1159 2491 1159 1978 
L 1159 0 
L 581 0 
L 581 4863 
L 1159 4863 
L 1159 2956 
Q 1366 3272 1645 3428 
Q 1925 3584 2291 3584 
Q 2894 3584 3203 3211 
Q 3513 2838 3513 2113 
z
" transform="scale(0.015625)"/>
       <path id="DejaVuSans-63" d="M 3122 3366 
L 3122 2828 
Q 2878 2963 2633 3030 
Q 2388 3097 2138 3097 
Q 1578 3097 1268 2742 
Q 959 2388 959 1747 
Q 959 1106 1268 751 
Q 1578 397 2138 397 
Q 2388 397 2633 464 
Q 2878 531 3122 666 
L 3122 134 
Q 2881 22 2623 -34 
Q 2366 -91 2075 -91 
Q 1284 -91 818 406 
Q 353 903 353 1747 
Q 353 2603 823 3093 
Q 1294 3584 2113 3584 
Q 2378 3584 2631 3529 
Q 2884 3475 3122 3366 
z
" transform="scale(0.015625)"/>
       <path id="DejaVuSans-73" d="M 2834 3397 
L 2834 2853 
Q 2591 2978 2328 3040 
Q 2066 3103 1784 3103 
Q 1356 3103 1142 2972 
Q 928 2841 928 2578 
Q 928 2378 1081 2264 
Q 1234 2150 1697 2047 
L 1894 2003 
Q 2506 1872 2764 1633 
Q 3022 1394 3022 966 
Q 3022 478 2636 193 
Q 2250 -91 1575 -91 
Q 1294 -91 989 -36 
Q 684 19 347 128 
L 347 722 
Q 666 556 975 473 
Q 1284 391 1588 391 
Q 1994 391 2212 530 
Q 2431 669 2431 922 
Q 2431 1156 2273 1281 
Q 2116 1406 1581 1522 
L 1381 1569 
Q 847 1681 609 1914 
Q 372 2147 372 2553 
Q 372 3047 722 3315 
Q 1072 3584 1716 3584 
Q 2034 3584 2315 3537 
Q 2597 3491 2834 3397 
z
" transform="scale(0.015625)"/>
       <path id="DejaVuSans-29" d="M 513 4856 
L 1013 4856 
Q 1481 4119 1714 3412 
Q 1947 2706 1947 2009 
Q 1947 1309 1714 600 
Q 1481 -109 1013 -844 
L 513 -844 
Q 928 -128 1133 580 
Q 1338 1288 1338 2009 
Q 1338 2731 1133 3434 
Q 928 4138 513 4856 
z
" transform="scale(0.015625)"/>
      </defs>
      <use xlink:href="#DejaVuSans-54"/>
      <use xlink:href="#DejaVuSans-65" transform="translate(44.083984 0)"/>
      <use xlink:href="#DejaVuSans-72" transform="translate(105.607422 0)"/>
      <use xlink:href="#DejaVuSans-6d" transform="translate(144.970703 0)"/>
      <use xlink:href="#DejaVuSans-20" transform="translate(242.382812 0)"/>
      <use xlink:href="#DejaVuSans-76" transform="translate(274.169922 0)"/>
      <use xlink:href="#DejaVuSans-61" transform="translate(333.349609 0)"/>
      <use xlink:href="#DejaVuSans-6c" transform="translate(394.628906 0)"/>
      <use xlink:href="#DejaVuSans-75" transform="translate(422.412109 0)"/>
      <use xlink:href="#DejaVuSans-65" transform="translate(485.791016 0)"/>
      <use xlink:href="#DejaVuSans-20" transform="translate(547.314453 0)"/>
      <use xlink:href="#DejaVuSans-28" transform="translate(579.101562 0)"/>
      <use xlink:href="#DejaVuSans-6c" transform="translate(618.115234 0)"/>
      <use xlink:href="#DejaVuSans-6f" transform="translate(645.898438 0)"/>
      <use xlink:href="#DejaVuSans-67" transform="translate(707.080078 0)"/>
      <use xlink:href="#DejaVuSans-61" transform="translate(770.556641 0)"/>
      <use xlink:href="#DejaVuSans-72" transform="translate(831.835938 0)"/>
      <use xlink:href="#DejaVuSans-69" transform="translate(872.949219 0)"/>
      <use xlink:href="#DejaVuSans-74" transform="translate(900.732422 0)"/>
      <use xlink:href="#DejaVuSans-68" transform="translate(939.941406 0)"/>
      <use xlink:href="#DejaVuSans-6d" transform="translate(1003.320312 0)"/>
      <use xlink:href="#DejaVuSans-69" transform="translate(1100.732422 0)"/>
      <use xlink:href="#DejaVuSans-63" transform="translate(1128.515625 0)"/>
      <use xlink:href="#DejaVuSans-20" transform="translate(1183.496094 0)"/>
      <use xlink:href="#DejaVuSans-73" transform="translate(1215.283203 0)"/>
      <use xlink:href="#DejaVuSans-63" transform="translate(1267.382812 0)"/>
      <use xlink:href="#DejaVuSans-61" transform="translate(1322.363281 0)"/>
      <use xlink:href="#DejaVuSans-6c" transform="translate(1383.642578 0)"/>
      <use xlink:href="#DejaVuSans-65" transform="translate(1411.425781 0)"/>
      <use xlink:href="#DejaVuSans-29" transform="translate(1472.949219 0)"/>
     </g>
    </g>
   </g>
   <g id="line2d_23">
    <path d="M 78.709706 135.306019 
L 79.978087 121.909227 
L 81.246468 130.361659 
L 82.514849 116.964869 
L 83.78323 125.4173 
L 85.051611 112.020511 
L 87.588373 128.925374 
L 88.856754 115.528584 
L 90.125135 123.981016 
L 91.393516 110.584227 
L 93.930278 127.48909 
L 95.198659 114.0923 
L 96.46704 122.544732 
L 97.735421 109.147943 
L 99.003802 117.600375 
L 100.272183 104.203587 
L 101.540564 112.656018 
L 102.808945 99.259231 
L 105.345707 116.164093 
L 106.614088 102.767306 
L 107.882469 111.219737 
L 109.15085 97.82295 
L 110.419231 106.275381 
L 111.687612 92.878594 
L 112.955993 101.331025 
L 114.224374 87.934238 
L 115.492755 96.386669 
L 116.761135 82.989883 
L 118.029516 91.442314 
L 119.297897 78.045527 
L 120.566278 86.497958 
L 121.834659 73.101172 
L 124.371421 90.006034 
L 125.639802 76.609247 
L 126.908183 85.061679 
L 128.176564 71.664892 
L 129.444945 80.117323 
L 130.713326 66.720537 
L 131.981707 75.172968 
L 133.250088 61.776181 
L 134.518469 70.228613 
L 135.78685 56.831826 
L 137.055231 65.284257 
L 138.323612 51.887471 
L 139.591993 60.339902 
L 140.860374 46.943115 
L 142.128755 55.395546 
L 143.397136 41.99876 
L 145.933898 58.903622 
L 147.202279 45.506836 
L 148.47066 53.959267 
L 149.739041 40.56248 
L 151.007422 49.014912 
L 152.275803 35.618125 
L 161.154469 94.785144 
L 162.42285 81.388357 
L 163.691231 89.840789 
L 164.959612 76.444002 
L 168.764755 101.801296 
L 170.033136 88.404509 
L 171.301517 96.85694 
L 172.569898 83.460153 
L 173.838279 91.912585 
L 175.10666 78.515798 
L 176.375041 86.968229 
L 177.643422 73.571442 
L 178.911803 82.023874 
L 180.180184 68.627087 
L 181.448565 77.079518 
L 182.716946 63.682731 
L 183.985327 72.135163 
L 185.253708 58.738376 
L 186.522089 67.190807 
L 187.79047 53.794021 
L 191.595613 79.151315 
L 192.863994 65.754528 
L 194.132375 74.206959 
L 195.400756 60.810173 
L 196.669137 69.262604 
L 197.937518 55.865817 
L 200.474279 72.77068 
L 201.74266 59.373893 
L 203.011041 67.826324 
L 204.279422 54.429538 
L 206.816184 71.3344 
L 208.084565 57.937614 
L 209.352946 66.390045 
L 210.621327 52.993258 
L 213.158089 69.898121 
L 214.42647 56.501334 
L 215.694851 64.953766 
L 216.963232 51.556979 
L 219.499994 68.461841 
L 220.768375 55.065055 
L 222.036756 63.517486 
L 223.305137 50.120699 
L 224.573518 58.573131 
L 225.841899 45.176344 
L 227.11028 53.628775 
L 228.378661 40.231989 
L 232.183804 65.589283 
L 233.452185 52.192496 
L 238.525709 86.002221 
L 239.79409 72.605434 
L 241.06247 81.057866 
L 242.330851 67.661079 
L 243.599232 76.11351 
L 244.867613 62.716724 
L 246.135994 71.169155 
L 247.404375 57.772368 
L 248.672756 66.2248 
L 249.941137 52.828013 
L 252.477899 69.732875 
L 253.74628 56.336089 
L 257.551423 81.693383 
L 258.819804 68.296596 
L 263.893328 102.106321 
L 265.161709 88.709534 
L 267.698471 105.614397 
L 268.966852 92.21761 
L 270.235233 100.670041 
L 271.503614 87.273254 
L 272.771995 95.725685 
L 274.040376 82.328899 
L 275.308757 90.78133 
L 276.577138 77.384543 
L 281.650662 111.194268 
L 282.919042 97.797481 
L 285.455804 114.702344 
L 286.724185 101.305556 
L 290.529328 126.66285 
L 291.797709 113.266061 
L 295.602852 138.623355 
L 296.871233 125.226562 
L 298.139614 133.678993 
L 299.407995 120.282202 
L 300.676376 128.734634 
L 301.944757 115.337844 
L 303.213138 123.790275 
L 304.481519 110.393487 
L 307.018281 127.298349 
L 308.286662 113.90156 
L 310.823424 130.806423 
L 312.091805 117.409633 
L 314.628567 134.314495 
L 315.896948 120.917704 
L 317.165329 129.370136 
L 318.43371 115.973346 
L 319.702091 124.425777 
L 320.970472 111.028989 
L 322.238853 119.48142 
L 323.507234 106.084632 
L 324.775614 114.537063 
L 326.043995 101.140276 
L 329.849138 126.49757 
L 331.117519 113.100781 
L 332.3859 121.553212 
L 333.654281 108.156424 
L 334.922662 116.608855 
L 336.191043 103.212067 
L 339.996186 128.569361 
L 341.264567 115.172572 
L 342.532948 123.625003 
L 343.801329 110.228215 
L 345.06971 118.680646 
L 346.338091 105.283858 
L 350.143234 130.641152 
L 351.411615 117.244362 
L 352.679996 125.696793 
L 353.948377 112.300004 
L 355.216758 120.752436 
L 356.485139 107.355648 
L 357.75352 115.808079 
L 359.021901 102.411291 
L 360.290282 110.863722 
L 361.558663 97.466935 
L 362.827044 105.919366 
L 364.095425 92.522579 
L 366.632186 109.427442 
L 367.900567 96.030655 
L 369.168948 104.483086 
L 370.437329 91.086299 
L 371.70571 99.53873 
L 372.974091 86.141943 
L 374.242472 94.594375 
L 375.510853 81.197588 
L 378.047615 98.10245 
L 379.315996 84.705664 
L 383.121139 110.062958 
L 384.38952 96.66617 
L 385.657901 105.118602 
L 386.926282 91.721814 
L 389.463044 108.626677 
L 390.731425 95.22989 
L 391.999806 103.682321 
L 393.268187 90.285534 
L 394.536568 98.737965 
L 395.804949 85.341179 
L 397.07333 93.79361 
L 398.341711 80.396823 
L 399.610092 88.849254 
L 400.878473 75.452468 
L 402.146854 83.904899 
L 403.415235 70.508112 
L 407.220378 95.865406 
L 408.488758 82.468619 
L 411.02552 99.373482 
L 412.293901 85.976695 
L 413.562282 94.429126 
L 414.830663 81.032339 
L 417.367425 97.937202 
L 418.635806 84.540415 
L 419.904187 92.992846 
L 421.172568 79.59606 
L 422.440949 88.048491 
L 423.70933 74.651704 
L 426.246092 91.556567 
L 427.514473 78.15978 
L 430.051235 95.064643 
L 431.319616 81.667856 
L 432.587997 90.120287 
L 433.856378 76.7235 
L 435.124759 85.175932 
L 436.39314 71.779145 
L 437.661521 80.231576 
L 438.929902 66.834789 
L 445.271807 109.096946 
L 446.540188 95.700159 
L 449.076949 112.605021 
L 450.34533 99.208234 
L 452.882092 116.113097 
L 454.150473 102.716309 
L 455.418854 111.16874 
L 456.687235 97.771953 
L 457.955616 106.224384 
L 459.223997 92.827597 
L 461.760759 109.73246 
L 463.02914 96.335672 
L 464.297521 104.788104 
L 465.565902 91.391317 
L 466.834283 99.843748 
L 468.102664 86.446961 
L 469.371045 94.899392 
L 470.639426 81.502606 
L 473.176188 98.407468 
L 474.444569 85.010681 
L 479.518093 118.820406 
L 480.786474 105.423619 
L 483.323236 122.328481 
L 484.591617 108.931693 
L 489.665141 142.741418 
L 490.933521 129.344622 
L 492.201902 137.797054 
L 493.470283 124.400261 
L 494.738664 132.852692 
L 496.007045 119.455902 
L 498.543807 136.360764 
L 499.812188 122.963973 
L 501.080569 131.416404 
L 502.34895 118.019614 
L 504.885712 134.924476 
L 506.154093 121.527685 
L 507.422474 129.980116 
L 508.690855 116.583326 
L 511.227617 133.488189 
L 512.495998 120.091398 
L 515.03276 136.996261 
L 516.301141 123.599469 
L 518.837903 140.504331 
L 520.106284 127.107537 
L 523.911427 152.464831 
L 525.179808 139.068025 
L 528.984951 164.425318 
L 530.253332 151.028479 
L 534.058474 176.385773 
L 535.326855 162.988845 
L 536.595236 171.441277 
L 537.863617 158.044396 
L 539.131998 166.496827 
L 540.400379 153.099978 
L 541.66876 161.552409 
L 542.937141 148.155581 
L 545.473903 165.060444 
L 546.742284 151.663601 
L 550.547427 177.020895 
L 551.815808 163.62396 
L 553.084189 172.076391 
L 554.35257 158.679506 
L 555.620951 167.131937 
L 556.889332 153.735084 
L 560.694475 179.092378 
L 561.962856 165.695416 
L 564.499618 182.600278 
L 565.767999 169.203257 
L 568.304761 186.10812 
L 569.573142 172.71102 
L 574.646665 206.520746 
L 575.915046 193.122291 
L 580.98857 226.932016 
L 582.256951 213.526338 
L 584.793713 230.431201 
L 586.062094 217.02257 
L 587.330475 225.475001 
L 588.598856 212.070324 
L 589.867237 220.522755 
L 591.135618 207.120711 
L 596.209142 240.930437 
L 597.477523 227.505649 
L 600.014285 244.410512 
L 601.282666 230.976491 
L 605.087809 256.333785 
L 606.35619 242.838258 
L 608.892952 259.743121 
L 610.161333 246.215913 
L 611.429714 254.668344 
L 612.698095 241.185379 
L 613.966476 249.63781 
L 615.234856 236.183907 
L 616.503237 244.636338 
L 617.771618 231.201622 
L 619.039999 239.654054 
L 620.30838 226.232046 
L 622.845142 243.136909 
L 624.113523 229.706575 
L 626.650285 246.611438 
L 627.918666 233.170065 
L 629.187047 241.622496 
L 630.455428 228.196076 
L 632.99219 245.100939 
L 634.260571 231.664752 
L 635.528952 240.117183 
L 636.797333 226.6942 
L 638.065714 235.146632 
L 639.334095 221.732412 
L 641.870857 238.637275 
L 643.139238 225.217283 
L 644.407619 233.669714 
L 645.676 220.257482 
L 646.944381 228.709914 
L 648.212762 215.302841 
L 649.481143 223.755272 
L 650.749524 210.351633 
L 653.286286 227.256495 
L 654.554667 213.850578 
L 658.359809 239.207872 
L 659.62819 225.786769 
L 660.896571 234.239201 
L 662.164952 220.82623 
L 663.433333 229.278662 
L 664.701714 215.871098 
L 667.238476 232.775961 
L 668.506857 219.364819 
L 669.775238 227.817251 
L 671.043619 214.410904 
L 673.580381 231.315766 
L 674.848762 217.906244 
L 676.117143 226.358675 
L 677.385524 212.953406 
L 678.653905 221.405837 
L 679.922286 208.003398 
L 681.190667 216.45583 
L 682.459048 203.055276 
L 683.727429 211.507708 
L 684.99581 198.108411 
L 686.264191 206.560842 
L 687.532572 193.162382 
L 691.337715 218.519676 
L 692.606096 205.118428 
L 693.874477 213.570859 
L 695.142858 200.1711 
L 696.411239 208.623531 
L 697.67962 195.224763 
L 698.948 203.677194 
L 700.216381 190.279086 
L 705.289905 224.088812 
L 706.558286 210.684982 
L 709.095048 227.589845 
L 710.363429 214.183674 
L 712.900191 231.088537 
L 714.168572 217.67925 
L 719.242096 251.488975 
L 720.510477 238.025734 
L 724.31562 263.383028 
L 725.584001 249.810781 
L 726.852382 258.263213 
L 728.120763 244.75084 
L 729.389144 253.203271 
L 730.657525 239.730031 
L 736.99943 281.992187 
L 738.267811 267.8084 
L 743.341334 301.618125 
L 743.341334 301.618125 
" clip-path="url(#pca5e46d201)" style="fill: none; stroke: #ffe09a; stroke-width: 1.35; stroke-linecap: square"/>
   </g>
   <g id="patch_3">
    <path d="M 45.478125 314.918125 
L 45.478125 22.318125 
" style="fill: none; stroke: #5d7590; stroke-width: 0.8; stroke-linejoin: miter; stroke-linecap: square"/>
   </g>
   <g id="patch_4">
    <path d="M 776.572916 314.918125 
L 776.572916 22.318125 
" style="fill: none; stroke: #5d7590; stroke-width: 0.8; stroke-linejoin: miter; stroke-linecap: square"/>
   </g>
   <g id="patch_5">
    <path d="M 45.478125 314.918125 
L 776.572916 314.918125 
" style="fill: none; stroke: #5d7590; stroke-width: 0.8; stroke-linejoin: miter; stroke-linecap: square"/>
   </g>
   <g id="patch_6">
    <path d="M 45.478125 22.318125 
L 776.572916 22.318125 
" style="fill: none; stroke: #5d7590; stroke-width: 0.8; stroke-linejoin: miter; stroke-linecap: square"/>
   </g>
   <g id="text_14">
    <!-- Collatz trajectory for n = 837,799 -->
    <g style="fill: #f1f6fb" transform="translate(310.031458 16.318125) scale(0.12 -0.12)">
     <defs>
      <path id="DejaVuSans-43" d="M 4122 4306 
L 4122 3641 
Q 3803 3938 3442 4084 
Q 3081 4231 2675 4231 
Q 1875 4231 1450 3742 
Q 1025 3253 1025 2328 
Q 1025 1406 1450 917 
Q 1875 428 2675 428 
Q 3081 428 3442 575 
Q 3803 722 4122 1019 
L 4122 359 
Q 3791 134 3420 21 
Q 3050 -91 2638 -91 
Q 1578 -91 968 557 
Q 359 1206 359 2328 
Q 359 3453 968 4101 
Q 1578 4750 2638 4750 
Q 3056 4750 3426 4639 
Q 3797 4528 4122 4306 
z
" transform="scale(0.015625)"/>
      <path id="DejaVuSans-7a" d="M 353 3500 
L 3084 3500 
L 3084 2975 
L 922 459 
L 3084 459 
L 3084 0 
L 275 0 
L 275 525 
L 2438 3041 
L 353 3041 
L 353 3500 
z
" transform="scale(0.015625)"/>
      <path id="DejaVuSans-6a" d="M 603 3500 
L 1178 3500 
L 1178 -63 
Q 1178 -731 923 -1031 
Q 669 -1331 103 -1331 
L -116 -1331 
L -116 -844 
L 38 -844 
Q 366 -844 484 -692 
Q 603 -541 603 -63 
L 603 3500 
z
M 603 4863 
L 1178 4863 
L 1178 4134 
L 603 4134 
L 603 4863 
z
" transform="scale(0.015625)"/>
      <path id="DejaVuSans-79" d="M 2059 -325 
Q 1816 -950 1584 -1140 
Q 1353 -1331 966 -1331 
L 506 -1331 
L 506 -850 
L 844 -850 
Q 1081 -850 1212 -737 
Q 1344 -625 1503 -206 
L 1606 56 
L 191 3500 
L 800 3500 
L 1894 763 
L 2988 3500 
L 3597 3500 
L 2059 -325 
z
" transform="scale(0.015625)"/>
      <path id="DejaVuSans-66" d="M 2375 4863 
L 2375 4384 
L 1825 4384 
Q 1516 4384 1395 4259 
Q 1275 4134 1275 3809 
L 1275 3500 
L 2222 3500 
L 2222 3053 
L 1275 3053 
L 1275 0 
L 697 0 
L 697 3053 
L 147 3053 
L 147 3500 
L 697 3500 
L 697 3744 
Q 697 4328 969 4595 
Q 1241 4863 1831 4863 
L 2375 4863 
z
" transform="scale(0.015625)"/>
      <path id="DejaVuSans-3d" d="M 678 2906 
L 4684 2906 
L 4684 2381 
L 678 2381 
L 678 2906 
z
M 678 1631 
L 4684 1631 
L 4684 1100 
L 678 1100 
L 678 1631 
z
" transform="scale(0.015625)"/>
      <path id="DejaVuSans-38" d="M 2034 2216 
Q 1584 2216 1326 1975 
Q 1069 1734 1069 1313 
Q 1069 891 1326 650 
Q 1584 409 2034 409 
Q 2484 409 2743 651 
Q 3003 894 3003 1313 
Q 3003 1734 2745 1975 
Q 2488 2216 2034 2216 
z
M 1403 2484 
Q 997 2584 770 2862 
Q 544 3141 544 3541 
Q 544 4100 942 4425 
Q 1341 4750 2034 4750 
Q 2731 4750 3128 4425 
Q 3525 4100 3525 3541 
Q 3525 3141 3298 2862 
Q 3072 2584 2669 2484 
Q 3125 2378 3379 2068 
Q 3634 1759 3634 1313 
Q 3634 634 3220 271 
Q 2806 -91 2034 -91 
Q 1263 -91 848 271 
Q 434 634 434 1313 
Q 434 1759 690 2068 
Q 947 2378 1403 2484 
z
M 1172 3481 
Q 1172 3119 1398 2916 
Q 1625 2713 2034 2713 
Q 2441 2713 2670 2916 
Q 2900 3119 2900 3481 
Q 2900 3844 2670 4047 
Q 2441 4250 2034 4250 
Q 1625 4250 1398 4047 
Q 1172 3844 1172 3481 
z
" transform="scale(0.015625)"/>
      <path id="DejaVuSans-2c" d="M 750 794 
L 1409 794 
L 1409 256 
L 897 -744 
L 494 -744 
L 750 256 
L 750 794 
z
" transform="scale(0.015625)"/>
     </defs>
     <use xlink:href="#DejaVuSans-43"/>
     <use xlink:href="#DejaVuSans-6f" transform="translate(69.824219 0)"/>
     <use xlink:href="#DejaVuSans-6c" transform="translate(131.005859 0)"/>
     <use xlink:href="#DejaVuSans-6c" transform="translate(158.789062 0)"/>
     <use xlink:href="#DejaVuSans-61" transform="translate(186.572266 0)"/>
     <use xlink:href="#DejaVuSans-74" transform="translate(247.851562 0)"/>
     <use xlink:href="#DejaVuSans-7a" transform="translate(287.060547 0)"/>
     <use xlink:href="#DejaVuSans-20" transform="translate(339.550781 0)"/>
     <use xlink:href="#DejaVuSans-74" transform="translate(371.337891 0)"/>
     <use xlink:href="#DejaVuSans-72" transform="translate(410.546875 0)"/>
     <use xlink:href="#DejaVuSans-61" transform="translate(451.660156 0)"/>
     <use xlink:href="#DejaVuSans-6a" transform="translate(512.939453 0)"/>
     <use xlink:href="#DejaVuSans-65" transform="translate(540.722656 0)"/>
     <use xlink:href="#DejaVuSans-63" transform="translate(602.246094 0)"/>
     <use xlink:href="#DejaVuSans-74" transform="translate(657.226562 0)"/>
     <use xlink:href="#DejaVuSans-6f" transform="translate(696.435547 0)"/>
     <use xlink:href="#DejaVuSans-72" transform="translate(757.617188 0)"/>
     <use xlink:href="#DejaVuSans-79" transform="translate(798.730469 0)"/>
     <use xlink:href="#DejaVuSans-20" transform="translate(857.910156 0)"/>
     <use xlink:href="#DejaVuSans-66" transform="translate(889.697266 0)"/>
     <use xlink:href="#DejaVuSans-6f" transform="translate(924.902344 0)"/>
     <use xlink:href="#DejaVuSans-72" transform="translate(986.083984 0)"/>
     <use xlink:href="#DejaVuSans-20" transform="translate(1027.197266 0)"/>
     <use xlink:href="#DejaVuSans-6e" transform="translate(1058.984375 0)"/>
     <use xlink:href="#DejaVuSans-20" transform="translate(1122.363281 0)"/>
     <use xlink:href="#DejaVuSans-3d" transform="translate(1154.150391 0)"/>
     <use xlink:href="#DejaVuSans-20" transform="translate(1237.939453 0)"/>
     <use xlink:href="#DejaVuSans-38" transform="translate(1269.726562 0)"/>
     <use xlink:href="#DejaVuSans-33" transform="translate(1333.349609 0)"/>
     <use xlink:href="#DejaVuSans-37" transform="translate(1396.972656 0)"/>
     <use xlink:href="#DejaVuSans-2c" transform="translate(1460.595703 0)"/>
     <use xlink:href="#DejaVuSans-37" transform="translate(1492.382812 0)"/>
     <use xlink:href="#DejaVuSans-39" transform="translate(1556.005859 0)"/>
     <use xlink:href="#DejaVuSans-39" transform="translate(1619.628906 0)"/>
    </g>
   </g>
  </g>
 </g>
 <defs>
  <clipPath id="pca5e46d201">
   <rect x="45.478125" y="22.318125" width="731.094791" height="292.6"/>
  </clipPath>
 </defs>
</svg>
