<?xml version="1.0" encoding="utf-8" standalone="no"?>
<!DOCTYPE svg PUBLIC "-//W3C//DTD SVG 1.1//EN"
  "http://www.w3.org/Graphics/SVG/1.1/DTD/svg11.dtd">
<svg xmlns:xlink="http://www.w3.org/1999/xlink" width="783.298694pt" height="351.274375pt" viewBox="0 0 783.298694 351.274375" xmlns="http://www.w3.org/2000/svg" version="1.1">
 <metadata>
  <rdf:RDF xmlns:dc="http://purl.org/dc/elements/1.1/" xmlns:cc="http://creativecommons.org/ns#" xmlns:rdf="http://www.w3.org/1999/02/22-rdf-syntax-ns#">
   <cc:Work>
    <dc:type rdf:resource="http://purl.org/dc/dcmitype/StillImage"/>
    <dc:date>2026-07-23T23:56:59.142435</dc:date>
    <dc:format>image/svg+xml</dc:format>
    <dc:creator>
     <cc:Agent>
      <dc:title>Matplotlib v3.10.6, https://matplotlib.org/</dc:title>
     </cc:Agent>
    </dc:creator>
   </cc:Work>
  </rdf:RDF>
 </metadata>
 <defs>
  <style type="text/css">*{stroke-linejoin: round; stroke-linecap: butt}</style>
 </defs>
 <g id="figure_1">
  <g id="patch_1">
   <path d="M 0 351.274375 
L 783.298694 351.274375 
L 783.298694 0 
L 0 0 
z
" style="fill: #0c1521"/>
  </g>
  <g id="axes_1">
   <g id="patch_2">
    <path d="M 45.478125 313.718125 
L 776.098694 313.718125 
L 776.098694 22.318125 
L 45.478125 22.318125 
z
" style="fill: #101d2d"/>
   </g>
   <g id="matplotlib.axis_1">
    <g id="xtick_1">
     <g id="line2d_1">
      <path d="M 78.688151 313.718125 
L 78.688151 22.318125 
" clip-path="url(#p28502c6df2)" style="fill: none; stroke: #7890a8; stroke-opacity: 0.25; stroke-width: 0.8; stroke-linecap: square"/>
     </g>
     <g id="line2d_2">
      <defs>
       <path id="m9a571c3717" d="M 0 0 
L 0 3.5 
" style="stroke: #d5e1eb; stroke-width: 0.8"/>
      </defs>
      <g>
       <use xlink:href="#m9a571c3717" x="78.688151" y="313.718125" style="fill: #d5e1eb; stroke: #d5e1eb; stroke-width: 0.8"/>
      </g>
     </g>
     <g id="text_1">
      <!-- 0 -->
      <g style="fill: #d5e1eb" transform="translate(75.506901 328.316562) scale(0.1 -0.1)">
       <defs>
        <path id="DejaVuSans-30" d="M 2034 4250 
Q 1547 4250 1301 3770 
Q 1056 3291 1056 2328 
Q 1056 1369 1301 889 
Q 1547 409 2034 409 
Q 2525 409 2770 889 
Q 3016 1369 3016 2328 
Q 3016 3291 2770 3770 
Q 2525 4250 2034 4250 
z
M 2034 4750 
Q 2819 4750 3233 4129 
Q 3647 3509 3647 2328 
Q 3647 1150 3233 529 
Q 2819 -91 2034 -91 
Q 1250 -91 836 529 
Q 422 1150 422 2328 
Q 422 3509 836 4129 
Q 1250 4750 2034 4750 
z
" transform="scale(0.015625)"/>
       </defs>
       <use xlink:href="#DejaVuSans-30"/>
      </g>
     </g>
    </g>
    <g id="xtick_2">
     <g id="line2d_3">
      <path d="M 205.443975 313.718125 
L 205.443975 22.318125 
" clip-path="url(#p28502c6df2)" style="fill: none; stroke: #7890a8; stroke-opacity: 0.25; stroke-width: 0.8; stroke-linecap: square"/>
     </g>
     <g id="line2d_4">
      <g>
       <use xlink:href="#m9a571c3717" x="205.443975" y="313.718125" style="fill: #d5e1eb; stroke: #d5e1eb; stroke-width: 0.8"/>
      </g>
     </g>
     <g id="text_2">
      <!-- 100 -->
      <g style="fill: #d5e1eb" transform="translate(195.900225 328.316562) scale(0.1 -0.1)">
       <defs>
        <path id="DejaVuSans-31" d="M 794 531 
L 1825 531 
L 1825 4091 
L 703 3866 
L 703 4441 
L 1819 4666 
L 2450 4666 
L 2450 531 
L 3481 531 
L 3481 0 
L 794 0 
L 794 531 
z
" transform="scale(0.015625)"/>
       </defs>
       <use xlink:href="#DejaVuSans-31"/>
       <use xlink:href="#DejaVuSans-30" transform="translate(63.623047 0)"/>
       <use xlink:href="#DejaVuSans-30" transform="translate(127.246094 0)"/>
      </g>
     </g>
    </g>
    <g id="xtick_3">
     <g id="line2d_5">
      <path d="M 332.199799 313.718125 
L 332.199799 22.318125 
" clip-path="url(#p28502c6df2)" style="fill: none; stroke: #7890a8; stroke-opacity: 0.25; stroke-width: 0.8; stroke-linecap: square"/>
     </g>
     <g id="line2d_6">
      <g>
       <use xlink:href="#m9a571c3717" x="332.199799" y="313.718125" style="fill: #d5e1eb; stroke: #d5e1eb; stroke-width: 0.8"/>
      </g>
     </g>
     <g id="text_3">
      <!-- 200 -->
      <g style="fill: #d5e1eb" transform="translate(322.656049 328.316562) scale(0.1 -0.1)">
       <defs>
        <path id="DejaVuSans-32" d="M 1228 531 
L 3431 531 
L 3431 0 
L 469 0 
L 469 531 
Q 828 903 1448 1529 
Q 2069 2156 2228 2338 
Q 2531 2678 2651 2914 
Q 2772 3150 2772 3378 
Q 2772 3750 2511 3984 
Q 2250 4219 1831 4219 
Q 1534 4219 1204 4116 
Q 875 4013 500 3803 
L 500 4441 
Q 881 4594 1212 4672 
Q 1544 4750 1819 4750 
Q 2544 4750 2975 4387 
Q 3406 4025 3406 3419 
Q 3406 3131 3298 2873 
Q 3191 2616 2906 2266 
Q 2828 2175 2409 1742 
Q 1991 1309 1228 531 
z
" transform="scale(0.015625)"/>
       </defs>
       <use xlink:href="#DejaVuSans-32"/>
       <use xlink:href="#DejaVuSans-30" transform="translate(63.623047 0)"/>
       <use xlink:href="#DejaVuSans-30" transform="translate(127.246094 0)"/>
      </g>
     </g>
    </g>
    <g id="xtick_4">
     <g id="line2d_7">
      <path d="M 458.955623 313.718125 
L 458.955623 22.318125 
" clip-path="url(#p28502c6df2)" style="fill: none; stroke: #7890a8; stroke-opacity: 0.25; stroke-width: 0.8; stroke-linecap: square"/>
     </g>
     <g id="line2d_8">
      <g>
       <use xlink:href="#m9a571c3717" x="458.955623" y="313.718125" style="fill: #d5e1eb; stroke: #d5e1eb; stroke-width: 0.8"/>
      </g>
     </g>
     <g id="text_4">
      <!-- 300 -->
      <g style="fill: #d5e1eb" transform="translate(449.411873 328.316562) scale(0.1 -0.1)">
       <defs>
        <path id="DejaVuSans-33" d="M 2597 2516 
Q 3050 2419 3304 2112 
Q 3559 1806 3559 1356 
Q 3559 666 3084 287 
Q 2609 -91 1734 -91 
Q 1441 -91 1130 -33 
Q 819 25 488 141 
L 488 750 
Q 750 597 1062 519 
Q 1375 441 1716 441 
Q 2309 441 2620 675 
Q 2931 909 2931 1356 
Q 2931 1769 2642 2001 
Q 2353 2234 1838 2234 
L 1294 2234 
L 1294 2753 
L 1863 2753 
Q 2328 2753 2575 2939 
Q 2822 3125 2822 3475 
Q 2822 3834 2567 4026 
Q 2313 4219 1838 4219 
Q 1578 4219 1281 4162 
Q 984 4106 628 3988 
L 628 4550 
Q 988 4650 1302 4700 
Q 1616 4750 1894 4750 
Q 2613 4750 3031 4423 
Q 3450 4097 3450 3541 
Q 3450 3153 3228 2886 
Q 3006 2619 2597 2516 
z
" transform="scale(0.015625)"/>
       </defs>
       <use xlink:href="#DejaVuSans-33"/>
       <use xlink:href="#DejaVuSans-30" transform="translate(63.623047 0)"/>
       <use xlink:href="#DejaVuSans-30" transform="translate(127.246094 0)"/>
      </g>
     </g>
    </g>
    <g id="xtick_5">
     <g id="line2d_9">
      <path d="M 585.711447 313.718125 
L 585.711447 22.318125 
" clip-path="url(#p28502c6df2)" style="fill: none; stroke: #7890a8; stroke-opacity: 0.25; stroke-width: 0.8; stroke-linecap: square"/>
     </g>
     <g id="line2d_10">
      <g>
       <use xlink:href="#m9a571c3717" x="585.711447" y="313.718125" style="fill: #d5e1eb; stroke: #d5e1eb; stroke-width: 0.8"/>
      </g>
     </g>
     <g id="text_5">
      <!-- 400 -->
      <g style="fill: #d5e1eb" transform="translate(576.167697 328.316562) scale(0.1 -0.1)">
       <defs>
        <path id="DejaVuSans-34" d="M 2419 4116 
L 825 1625 
L 2419 1625 
L 2419 4116 
z
M 2253 4666 
L 3047 4666 
L 3047 1625 
L 3713 1625 
L 3713 1100 
L 3047 1100 
L 3047 0 
L 2419 0 
L 2419 1100 
L 313 1100 
L 313 1709 
L 2253 4666 
z
" transform="scale(0.015625)"/>
       </defs>
       <use xlink:href="#DejaVuSans-34"/>
       <use xlink:href="#DejaVuSans-30" transform="translate(63.623047 0)"/>
       <use xlink:href="#DejaVuSans-30" transform="translate(127.246094 0)"/>
      </g>
     </g>
    </g>
    <g id="xtick_6">
     <g id="line2d_11">
      <path d="M 712.467271 313.718125 
L 712.467271 22.318125 
" clip-path="url(#p28502c6df2)" style="fill: none; stroke: #7890a8; stroke-opacity: 0.25; stroke-width: 0.8; stroke-linecap: square"/>
     </g>
     <g id="line2d_12">
      <g>
       <use xlink:href="#m9a571c3717" x="712.467271" y="313.718125" style="fill: #d5e1eb; stroke: #d5e1eb; stroke-width: 0.8"/>
      </g>
     </g>
     <g id="text_6">
      <!-- 500 -->
      <g style="fill: #d5e1eb" transform="translate(702.923521 328.316562) scale(0.1 -0.1)">
       <defs>
        <path id="DejaVuSans-35" d="M 691 4666 
L 3169 4666 
L 3169 4134 
L 1269 4134 
L 1269 2991 
Q 1406 3038 1543 3061 
Q 1681 3084 1819 3084 
Q 2600 3084 3056 2656 
Q 3513 2228 3513 1497 
Q 3513 744 3044 326 
Q 2575 -91 1722 -91 
Q 1428 -91 1123 -41 
Q 819 9 494 109 
L 494 744 
Q 775 591 1075 516 
Q 1375 441 1709 441 
Q 2250 441 2565 725 
Q 2881 1009 2881 1497 
Q 2881 1984 2565 2268 
Q 2250 2553 1709 2553 
Q 1456 2553 1204 2497 
Q 953 2441 691 2322 
L 691 4666 
z
" transform="scale(0.015625)"/>
       </defs>
       <use xlink:href="#DejaVuSans-35"/>
       <use xlink:href="#DejaVuSans-30" transform="translate(63.623047 0)"/>
       <use xlink:href="#DejaVuSans-30" transform="translate(127.246094 0)"/>
      </g>
     </g>
    </g>
    <g id="text_7">
     <!-- Step number -->
     <g style="fill: #e7edf4" transform="translate(378.300128 341.994687) scale(0.1 -0.1)">
      <defs>
       <path id="DejaVuSans-53" d="M 3425 4513 
L 3425 3897 
Q 3066 4069 2747 4153 
Q 2428 4238 2131 4238 
Q 1616 4238 1336 4038 
Q 1056 3838 1056 3469 
Q 1056 3159 1242 3001 
Q 1428 2844 1947 2747 
L 2328 2669 
Q 3034 2534 3370 2195 
Q 3706 1856 3706 1288 
Q 3706 609 3251 259 
Q 2797 -91 1919 -91 
Q 1588 -91 1214 -16 
Q 841 59 441 206 
L 441 856 
Q 825 641 1194 531 
Q 1563 422 1919 422 
Q 2459 422 2753 634 
Q 3047 847 3047 1241 
Q 3047 1584 2836 1778 
Q 2625 1972 2144 2069 
L 1759 2144 
Q 1053 2284 737 2584 
Q 422 2884 422 3419 
Q 422 4038 858 4394 
Q 1294 4750 2059 4750 
Q 2388 4750 2728 4690 
Q 3069 4631 3425 4513 
z
" transform="scale(0.015625)"/>
       <path id="DejaVuSans-74" d="M 1172 4494 
L 1172 3500 
L 2356 3500 
L 2356 3053 
L 1172 3053 
L 1172 1153 
Q 1172 725 1289 603 
Q 1406 481 1766 481 
L 2356 481 
L 2356 0 
L 1766 0 
Q 1100 0 847 248 
Q 594 497 594 1153 
L 594 3053 
L 172 3053 
L 172 3500 
L 594 3500 
L 594 4494 
L 1172 4494 
z
" transform="scale(0.015625)"/>
       <path id="DejaVuSans-65" d="M 3597 1894 
L 3597 1613 
L 953 1613 
Q 991 1019 1311 708 
Q 1631 397 2203 397 
Q 2534 397 2845 478 
Q 3156 559 3463 722 
L 3463 178 
Q 3153 47 2828 -22 
Q 2503 -91 2169 -91 
Q 1331 -91 842 396 
Q 353 884 353 1716 
Q 353 2575 817 3079 
Q 1281 3584 2069 3584 
Q 2775 3584 3186 3129 
Q 3597 2675 3597 1894 
z
M 3022 2063 
Q 3016 2534 2758 2815 
Q 2500 3097 2075 3097 
Q 1594 3097 1305 2825 
Q 1016 2553 972 2059 
L 3022 2063 
z
" transform="scale(0.015625)"/>
       <path id="DejaVuSans-70" d="M 1159 525 
L 1159 -1331 
L 581 -1331 
L 581 3500 
L 1159 3500 
L 1159 2969 
Q 1341 3281 1617 3432 
Q 1894 3584 2278 3584 
Q 2916 3584 3314 3078 
Q 3713 2572 3713 1747 
Q 3713 922 3314 415 
Q 2916 -91 2278 -91 
Q 1894 -91 1617 61 
Q 1341 213 1159 525 
z
M 3116 1747 
Q 3116 2381 2855 2742 
Q 2594 3103 2138 3103 
Q 1681 3103 1420 2742 
Q 1159 2381 1159 1747 
Q 1159 1113 1420 752 
Q 1681 391 2138 391 
Q 2594 391 2855 752 
Q 3116 1113 3116 1747 
z
" transform="scale(0.015625)"/>
       <path id="DejaVuSans-20" transform="scale(0.015625)"/>
       <path id="DejaVuSans-6e" d="M 3513 2113 
L 3513 0 
L 2938 0 
L 2938 2094 
Q 2938 2591 2744 2837 
Q 2550 3084 2163 3084 
Q 1697 3084 1428 2787 
Q 1159 2491 1159 1978 
L 1159 0 
L 581 0 
L 581 3500 
L 1159 3500 
L 1159 2956 
Q 1366 3272 1645 3428 
Q 1925 3584 2291 3584 
Q 2894 3584 3203 3211 
Q 3513 2838 3513 2113 
z
" transform="scale(0.015625)"/>
       <path id="DejaVuSans-75" d="M 544 1381 
L 544 3500 
L 1119 3500 
L 1119 1403 
Q 1119 906 1312 657 
Q 1506 409 1894 409 
Q 2359 409 2629 706 
Q 2900 1003 2900 1516 
L 2900 3500 
L 3475 3500 
L 3475 0 
L 2900 0 
L 2900 538 
Q 2691 219 2414 64 
Q 2138 -91 1772 -91 
Q 1169 -91 856 284 
Q 544 659 544 1381 
z
M 1991 3584 
L 1991 3584 
z
" transform="scale(0.015625)"/>
       <path id="DejaVuSans-6d" d="M 3328 2828 
Q 3544 3216 3844 3400 
Q 4144 3584 4550 3584 
Q 5097 3584 5394 3201 
Q 5691 2819 5691 2113 
L 5691 0 
L 5113 0 
L 5113 2094 
Q 5113 2597 4934 2840 
Q 4756 3084 4391 3084 
Q 3944 3084 3684 2787 
Q 3425 2491 3425 1978 
L 3425 0 
L 2847 0 
L 2847 2094 
Q 2847 2600 2669 2842 
Q 2491 3084 2119 3084 
Q 1678 3084 1418 2786 
Q 1159 2488 1159 1978 
L 1159 0 
L 581 0 
L 581 3500 
L 1159 3500 
L 1159 2956 
Q 1356 3278 1631 3431 
Q 1906 3584 2284 3584 
Q 2666 3584 2933 3390 
Q 3200 3197 3328 2828 
z
" transform="scale(0.015625)"/>
       <path id="DejaVuSans-62" d="M 3116 1747 
Q 3116 2381 2855 2742 
Q 2594 3103 2138 3103 
Q 1681 3103 1420 2742 
Q 1159 2381 1159 1747 
Q 1159 1113 1420 752 
Q 1681 391 2138 391 
Q 2594 391 2855 752 
Q 3116 1113 3116 1747 
z
M 1159 2969 
Q 1341 3281 1617 3432 
Q 1894 3584 2278 3584 
Q 2916 3584 3314 3078 
Q 3713 2572 3713 1747 
Q 3713 922 3314 415 
Q 2916 -91 2278 -91 
Q 1894 -91 1617 61 
Q 1341 213 1159 525 
L 1159 0 
L 581 0 
L 581 4863 
L 1159 4863 
L 1159 2969 
z
" transform="scale(0.015625)"/>
       <path id="DejaVuSans-72" d="M 2631 2963 
Q 2534 3019 2420 3045 
Q 2306 3072 2169 3072 
Q 1681 3072 1420 2755 
Q 1159 2438 1159 1844 
L 1159 0 
L 581 0 
L 581 3500 
L 1159 3500 
L 1159 2956 
Q 1341 3275 1631 3429 
Q 1922 3584 2338 3584 
Q 2397 3584 2469 3576 
Q 2541 3569 2628 3553 
L 2631 2963 
z
" transform="scale(0.015625)"/>
      </defs>
      <use xlink:href="#DejaVuSans-53"/>
      <use xlink:href="#DejaVuSans-74" transform="translate(63.476562 0)"/>
      <use xlink:href="#DejaVuSans-65" transform="translate(102.685547 0)"/>
      <use xlink:href="#DejaVuSans-70" transform="translate(164.208984 0)"/>
      <use xlink:href="#DejaVuSans-20" transform="translate(227.685547 0)"/>
      <use xlink:href="#DejaVuSans-6e" transform="translate(259.472656 0)"/>
      <use xlink:href="#DejaVuSans-75" transform="translate(322.851562 0)"/>
      <use xlink:href="#DejaVuSans-6d" transform="translate(386.230469 0)"/>
      <use xlink:href="#DejaVuSans-62" transform="translate(483.642578 0)"/>
      <use xlink:href="#DejaVuSans-65" transform="translate(547.119141 0)"/>
      <use xlink:href="#DejaVuSans-72" transform="translate(608.642578 0)"/>
     </g>
    </g>
   </g>
   <g id="matplotlib.axis_2">
    <g id="ytick_1">
     <g id="line2d_13">
      <path d="M 45.478125 272.509455 
L 776.098694 272.509455 
" clip-path="url(#p28502c6df2)" style="fill: none; stroke: #7890a8; stroke-opacity: 0.25; stroke-width: 0.8; stroke-linecap: square"/>
     </g>
     <g id="line2d_14">
      <defs>
       <path id="mb3ced54fce" d="M 0 0 
L -3.5 0 
" style="stroke: #d5e1eb; stroke-width: 0.8"/>
      </defs>
      <g>
       <use xlink:href="#mb3ced54fce" x="45.478125" y="272.509455" style="fill: #d5e1eb; stroke: #d5e1eb; stroke-width: 0.8"/>
      </g>
     </g>
     <g id="text_8">
      <!-- $\mathdefault{10^{1}}$ -->
      <g style="fill: #d5e1eb" transform="translate(20.878125 276.308674) scale(0.1 -0.1)">
       <use xlink:href="#DejaVuSans-31" transform="translate(0 0.684375)"/>
       <use xlink:href="#DejaVuSans-30" transform="translate(63.623047 0.684375)"/>
       <use xlink:href="#DejaVuSans-31" transform="translate(128.203125 38.965625) scale(0.7)"/>
      </g>
     </g>
    </g>
    <g id="ytick_2">
     <g id="line2d_15">
      <path d="M 45.478125 216.583025 
L 776.098694 216.583025 
" clip-path="url(#p28502c6df2)" style="fill: none; stroke: #7890a8; stroke-opacity: 0.25; stroke-width: 0.8; stroke-linecap: square"/>
     </g>
     <g id="line2d_16">
      <g>
       <use xlink:href="#mb3ced54fce" x="45.478125" y="216.583025" style="fill: #d5e1eb; stroke: #d5e1eb; stroke-width: 0.8"/>
      </g>
     </g>
     <g id="text_9">
      <!-- $\mathdefault{10^{3}}$ -->
      <g style="fill: #d5e1eb" transform="translate(20.878125 220.382244) scale(0.1 -0.1)">
       <use xlink:href="#DejaVuSans-31" transform="translate(0 0.765625)"/>
       <use xlink:href="#DejaVuSans-30" transform="translate(63.623047 0.765625)"/>
       <use xlink:href="#DejaVuSans-33" transform="translate(128.203125 39.046875) scale(0.7)"/>
      </g>
     </g>
    </g>
    <g id="ytick_3">
     <g id="line2d_17">
      <path d="M 45.478125 160.656595 
L 776.098694 160.656595 
" clip-path="url(#p28502c6df2)" style="fill: none; stroke: #7890a8; stroke-opacity: 0.25; stroke-width: 0.8; stroke-linecap: square"/>
     </g>
     <g id="line2d_18">
      <g>
       <use xlink:href="#mb3ced54fce" x="45.478125" y="160.656595" style="fill: #d5e1eb; stroke: #d5e1eb; stroke-width: 0.8"/>
      </g>
     </g>
     <g id="text_10">
      <!-- $\mathdefault{10^{5}}$ -->
      <g style="fill: #d5e1eb" transform="translate(20.878125 164.455814) scale(0.1 -0.1)">
       <use xlink:href="#DejaVuSans-31" transform="translate(0 0.684375)"/>
       <use xlink:href="#DejaVuSans-30" transform="translate(63.623047 0.684375)"/>
       <use xlink:href="#DejaVuSans-35" transform="translate(128.203125 38.965625) scale(0.7)"/>
      </g>
     </g>
    </g>
    <g id="ytick_4">
     <g id="line2d_19">
      <path d="M 45.478125 104.730165 
L 776.098694 104.730165 
" clip-path="url(#p28502c6df2)" style="fill: none; stroke: #7890a8; stroke-opacity: 0.25; stroke-width: 0.8; stroke-linecap: square"/>
     </g>
     <g id="line2d_20">
      <g>
       <use xlink:href="#mb3ced54fce" x="45.478125" y="104.730165" style="fill: #d5e1eb; stroke: #d5e1eb; stroke-width: 0.8"/>
      </g>
     </g>
     <g id="text_11">
      <!-- $\mathdefault{10^{7}}$ -->
      <g style="fill: #d5e1eb" transform="translate(20.878125 108.529384) scale(0.1 -0.1)">
       <defs>
        <path id="DejaVuSans-37" d="M 525 4666 
L 3525 4666 
L 3525 4397 
L 1831 0 
L 1172 0 
L 2766 4134 
L 525 4134 
L 525 4666 
z
" transform="scale(0.015625)"/>
       </defs>
       <use xlink:href="#DejaVuSans-31" transform="translate(0 0.684375)"/>
       <use xlink:href="#DejaVuSans-30" transform="translate(63.623047 0.684375)"/>
       <use xlink:href="#DejaVuSans-37" transform="translate(128.203125 38.965625) scale(0.7)"/>
      </g>
     </g>
    </g>
    <g id="ytick_5">
     <g id="line2d_21">
      <path d="M 45.478125 48.803735 
L 776.098694 48.803735 
" clip-path="url(#p28502c6df2)" style="fill: none; stroke: #7890a8; stroke-opacity: 0.25; stroke-width: 0.8; stroke-linecap: square"/>
     </g>
     <g id="line2d_22">
      <g>
       <use xlink:href="#mb3ced54fce" x="45.478125" y="48.803735" style="fill: #d5e1eb; stroke: #d5e1eb; stroke-width: 0.8"/>
      </g>
     </g>
     <g id="text_12">
      <!-- $\mathdefault{10^{9}}$ -->
      <g style="fill: #d5e1eb" transform="translate(20.878125 52.602953) scale(0.1 -0.1)">
       <defs>
        <path id="DejaVuSans-39" d="M 703 97 
L 703 672 
Q 941 559 1184 500 
Q 1428 441 1663 441 
Q 2288 441 2617 861 
Q 2947 1281 2994 2138 
Q 2813 1869 2534 1725 
Q 2256 1581 1919 1581 
Q 1219 1581 811 2004 
Q 403 2428 403 3163 
Q 403 3881 828 4315 
Q 1253 4750 1959 4750 
Q 2769 4750 3195 4129 
Q 3622 3509 3622 2328 
Q 3622 1225 3098 567 
Q 2575 -91 1691 -91 
Q 1453 -91 1209 -44 
Q 966 3 703 97 
z
M 1959 2075 
Q 2384 2075 2632 2365 
Q 2881 2656 2881 3163 
Q 2881 3666 2632 3958 
Q 2384 4250 1959 4250 
Q 1534 4250 1286 3958 
Q 1038 3666 1038 3163 
Q 1038 2656 1286 2365 
Q 1534 2075 1959 2075 
z
" transform="scale(0.015625)"/>
       </defs>
       <use xlink:href="#DejaVuSans-31" transform="translate(0 0.765625)"/>
       <use xlink:href="#DejaVuSans-30" transform="translate(63.623047 0.765625)"/>
       <use xlink:href="#DejaVuSans-39" transform="translate(128.203125 39.046875) scale(0.7)"/>
      </g>
     </g>
    </g>
    <g id="text_13">
     <!-- Term value (logarithmic scale) -->
     <g style="fill: #e7edf4" transform="translate(14.798437 243.615781) rotate(-90) scale(0.1 -0.1)">
      <defs>
       <path id="DejaVuSans-54" d="M -19 4666 
L 3928 4666 
L 3928 4134 
L 2272 4134 
L 2272 0 
L 1638 0 
L 1638 4134 
L -19 4134 
L -19 4666 
z
" transform="scale(0.015625)"/>
       <path id="DejaVuSans-76" d="M 191 3500 
L 800 3500 
L 1894 563 
L 2988 3500 
L 3597 3500 
L 2284 0 
L 1503 0 
L 191 3500 
z
" transform="scale(0.015625)"/>
       <path id="DejaVuSans-61" d="M 2194 1759 
Q 1497 1759 1228 1600 
Q 959 1441 959 1056 
Q 959 750 1161 570 
Q 1363 391 1709 391 
Q 2188 391 2477 730 
Q 2766 1069 2766 1631 
L 2766 1759 
L 2194 1759 
z
M 3341 1997 
L 3341 0 
L 2766 0 
L 2766 531 
Q 2569 213 2275 61 
Q 1981 -91 1556 -91 
Q 1019 -91 701 211 
Q 384 513 384 1019 
Q 384 1609 779 1909 
Q 1175 2209 1959 2209 
L 2766 2209 
L 2766 2266 
Q 2766 2663 2505 2880 
Q 2244 3097 1772 3097 
Q 1472 3097 1187 3025 
Q 903 2953 641 2809 
L 641 3341 
Q 956 3463 1253 3523 
Q 1550 3584 1831 3584 
Q 2591 3584 2966 3190 
Q 3341 2797 3341 1997 
z
" transform="scale(0.015625)"/>
       <path id="DejaVuSans-6c" d="M 603 4863 
L 1178 4863 
L 1178 0 
L 603 0 
L 603 4863 
z
" transform="scale(0.015625)"/>
       <path id="DejaVuSans-28" d="M 1984 4856 
Q 1566 4138 1362 3434 
Q 1159 2731 1159 2009 
Q 1159 1288 1364 580 
Q 1569 -128 1984 -844 
L 1484 -844 
Q 1016 -109 783 600 
Q 550 1309 550 2009 
Q 550 2706 781 3412 
Q 1013 4119 1484 4856 
L 1984 4856 
z
" transform="scale(0.015625)"/>
       <path id="DejaVuSans-6f" d="M 1959 3097 
Q 1497 3097 1228 2736 
Q 959 2375 959 1747 
Q 959 1119 1226 758 
Q 1494 397 1959 397 
Q 2419 397 2687 759 
Q 2956 1122 2956 1747 
Q 2956 2369 2687 2733 
Q 2419 3097 1959 3097 
z
M 1959 3584 
Q 2709 3584 3137 3096 
Q 3566 2609 3566 1747 
Q 3566 888 3137 398 
Q 2709 -91 1959 -91 
Q 1206 -91 779 398 
Q 353 888 353 1747 
Q 353 2609 779 3096 
Q 1206 3584 1959 3584 
z
" transform="scale(0.015625)"/>
       <path id="DejaVuSans-67" d="M 2906 1791 
Q 2906 2416 2648 2759 
Q 2391 3103 1925 3103 
Q 1463 3103 1205 2759 
Q 947 2416 947 1791 
Q 947 1169 1205 825 
Q 1463 481 1925 481 
Q 2391 481 2648 825 
Q 2906 1169 2906 1791 
z
M 3481 434 
Q 3481 -459 3084 -895 
Q 2688 -1331 1869 -1331 
Q 1566 -1331 1297 -1286 
Q 1028 -1241 775 -1147 
L 775 -588 
Q 1028 -725 1275 -790 
Q 1522 -856 1778 -856 
Q 2344 -856 2625 -561 
Q 2906 -266 2906 331 
L 2906 616 
Q 2728 306 2450 153 
Q 2172 0 1784 0 
Q 1141 0 747 490 
Q 353 981 353 1791 
Q 353 2603 747 3093 
Q 1141 3584 1784 3584 
Q 2172 3584 2450 3431 
Q 2728 3278 2906 2969 
L 2906 3500 
L 3481 3500 
L 3481 434 
z
" transform="scale(0.015625)"/>
       <path id="DejaVuSans-69" d="M 603 3500 
L 1178 3500 
L 1178 0 
L 603 0 
L 603 3500 
z
M 603 4863 
L 1178 4863 
L 1178 4134 
L 603 4134 
L 603 4863 
z
" transform="scale(0.015625)"/>
       <path id="DejaVuSans-68" d="M 3513 2113 
L 3513 0 
L 2938 0 
L 2938 2094 
Q 2938 2591 2744 2837 
Q 2550 3084 2163 3084 
Q 1697 3084 1428 2787 
Q 1159 2491 1159 1978 
L 1159 0 
L 581 0 
L 581 4863 
L 1159 4863 
L 1159 2956 
Q 1366 3272 1645 3428 
Q 1925 3584 2291 3584 
Q 2894 3584 3203 3211 
Q 3513 2838 3513 2113 
z
" transform="scale(0.015625)"/>
       <path id="DejaVuSans-63" d="M 3122 3366 
L 3122 2828 
Q 2878 2963 2633 3030 
Q 2388 3097 2138 3097 
Q 1578 3097 1268 2742 
Q 959 2388 959 1747 
Q 959 1106 1268 751 
Q 1578 397 2138 397 
Q 2388 397 2633 464 
Q 2878 531 3122 666 
L 3122 134 
Q 2881 22 2623 -34 
Q 2366 -91 2075 -91 
Q 1284 -91 818 406 
Q 353 903 353 1747 
Q 353 2603 823 3093 
Q 1294 3584 2113 3584 
Q 2378 3584 2631 3529 
Q 2884 3475 3122 3366 
z
" transform="scale(0.015625)"/>
       <path id="DejaVuSans-73" d="M 2834 3397 
L 2834 2853 
Q 2591 2978 2328 3040 
Q 2066 3103 1784 3103 
Q 1356 3103 1142 2972 
Q 928 2841 928 2578 
Q 928 2378 1081 2264 
Q 1234 2150 1697 2047 
L 1894 2003 
Q 2506 1872 2764 1633 
Q 3022 1394 3022 966 
Q 3022 478 2636 193 
Q 2250 -91 1575 -91 
Q 1294 -91 989 -36 
Q 684 19 347 128 
L 347 722 
Q 666 556 975 473 
Q 1284 391 1588 391 
Q 1994 391 2212 530 
Q 2431 669 2431 922 
Q 2431 1156 2273 1281 
Q 2116 1406 1581 1522 
L 1381 1569 
Q 847 1681 609 1914 
Q 372 2147 372 2553 
Q 372 3047 722 3315 
Q 1072 3584 1716 3584 
Q 2034 3584 2315 3537 
Q 2597 3491 2834 3397 
z
" transform="scale(0.015625)"/>
       <path id="DejaVuSans-29" d="M 513 4856 
L 1013 4856 
Q 1481 4119 1714 3412 
Q 1947 2706 1947 2009 
Q 1947 1309 1714 600 
Q 1481 -109 1013 -844 
L 513 -844 
Q 928 -128 1133 580 
Q 1338 1288 1338 2009 
Q 1338 2731 1133 3434 
Q 928 4138 513 4856 
z
" transform="scale(0.015625)"/>
      </defs>
      <use xlink:href="#DejaVuSans-54"/>
      <use xlink:href="#DejaVuSans-65" transform="translate(44.083984 0)"/>
      <use xlink:href="#DejaVuSans-72" transform="translate(105.607422 0)"/>
      <use xlink:href="#DejaVuSans-6d" transform="translate(144.970703 0)"/>
      <use xlink:href="#DejaVuSans-20" transform="translate(242.382812 0)"/>
      <use xlink:href="#DejaVuSans-76" transform="translate(274.169922 0)"/>
      <use xlink:href="#DejaVuSans-61" transform="translate(333.349609 0)"/>
      <use xlink:href="#DejaVuSans-6c" transform="translate(394.628906 0)"/>
      <use xlink:href="#DejaVuSans-75" transform="translate(422.412109 0)"/>
      <use xlink:href="#DejaVuSans-65" transform="translate(485.791016 0)"/>
      <use xlink:href="#DejaVuSans-20" transform="translate(547.314453 0)"/>
      <use xlink:href="#DejaVuSans-28" transform="translate(579.101562 0)"/>
      <use xlink:href="#DejaVuSans-6c" transform="translate(618.115234 0)"/>
      <use xlink:href="#DejaVuSans-6f" transform="translate(645.898438 0)"/>
      <use xlink:href="#DejaVuSans-67" transform="translate(707.080078 0)"/>
      <use xlink:href="#DejaVuSans-61" transform="translate(770.556641 0)"/>
      <use xlink:href="#DejaVuSans-72" transform="translate(831.835938 0)"/>
      <use xlink:href="#DejaVuSans-69" transform="translate(872.949219 0)"/>
      <use xlink:href="#DejaVuSans-74" transform="translate(900.732422 0)"/>
      <use xlink:href="#DejaVuSans-68" transform="translate(939.941406 0)"/>
      <use xlink:href="#DejaVuSans-6d" transform="translate(1003.320312 0)"/>
      <use xlink:href="#DejaVuSans-69" transform="translate(1100.732422 0)"/>
      <use xlink:href="#DejaVuSans-63" transform="translate(1128.515625 0)"/>
      <use xlink:href="#DejaVuSans-20" transform="translate(1183.496094 0)"/>
      <use xlink:href="#DejaVuSans-73" transform="translate(1215.283203 0)"/>
      <use xlink:href="#DejaVuSans-63" transform="translate(1267.382812 0)"/>
      <use xlink:href="#DejaVuSans-61" transform="translate(1322.363281 0)"/>
      <use xlink:href="#DejaVuSans-6c" transform="translate(1383.642578 0)"/>
      <use xlink:href="#DejaVuSans-65" transform="translate(1411.425781 0)"/>
      <use xlink:href="#DejaVuSans-29" transform="translate(1472.949219 0)"/>
     </g>
    </g>
   </g>
   <g id="line2d_23">
    <path d="M 78.688151 134.842637 
L 79.955709 121.500788 
L 81.223267 129.918555 
L 82.490826 116.576707 
L 83.758384 124.994474 
L 85.025942 111.652627 
L 87.561059 128.48816 
L 88.828617 115.146313 
L 90.096175 123.56408 
L 91.363733 110.222233 
L 93.89885 127.057766 
L 95.166408 113.71592 
L 96.433966 122.133686 
L 97.701524 108.79184 
L 98.969083 117.209607 
L 100.236641 103.867761 
L 101.504199 112.285528 
L 102.771757 98.943683 
L 105.306874 115.779216 
L 106.574432 102.437371 
L 107.84199 110.855137 
L 109.109549 97.513292 
L 110.377107 105.931059 
L 111.644665 92.589214 
L 112.912223 101.00698 
L 114.179782 87.665136 
L 115.44734 96.082902 
L 116.714898 82.741058 
L 117.982456 91.158824 
L 119.250015 77.81698 
L 120.517573 86.234747 
L 121.785131 72.892902 
L 124.320247 89.728435 
L 125.587806 76.386591 
L 126.855364 84.804357 
L 128.122922 71.462513 
L 129.39048 79.880279 
L 130.658039 66.538435 
L 131.925597 74.956202 
L 133.193155 61.614357 
L 134.460713 70.032124 
L 135.728272 56.69028 
L 136.99583 65.108046 
L 138.263388 51.766202 
L 139.530946 60.183968 
L 140.798505 46.842124 
L 142.066063 55.259891 
L 143.333621 41.918046 
L 145.868738 58.753579 
L 147.136296 45.411735 
L 148.403854 53.829502 
L 149.671412 40.487657 
L 150.938971 48.905424 
L 152.206529 35.56358 
L 161.079436 94.487945 
L 162.346995 81.146101 
L 163.614553 89.563867 
L 164.882111 76.222023 
L 168.684786 101.475322 
L 169.952344 88.133478 
L 171.219902 96.551244 
L 172.487461 83.2094 
L 173.755019 91.627166 
L 175.022577 78.285322 
L 176.290135 86.703089 
L 177.557694 73.361244 
L 178.825252 81.779011 
L 180.09281 68.437166 
L 181.360368 76.854933 
L 182.627926 63.513089 
L 183.895485 71.930855 
L 185.163043 58.589011 
L 186.430601 67.006777 
L 187.698159 53.664933 
L 191.500834 78.918233 
L 192.768392 65.576388 
L 194.035951 73.994155 
L 195.303509 60.65231 
L 196.571067 69.070077 
L 197.838625 55.728233 
L 200.373742 72.563766 
L 201.6413 59.221921 
L 202.908858 67.639688 
L 204.176417 54.297844 
L 206.711533 71.133377 
L 207.979091 57.791532 
L 209.24665 66.209299 
L 210.514208 52.867455 
L 213.049324 69.702988 
L 214.316882 56.361143 
L 215.584441 64.77891 
L 216.851999 51.437066 
L 219.387115 68.272599 
L 220.654674 54.930754 
L 221.922232 63.348521 
L 223.18979 50.006677 
L 224.457348 58.424443 
L 225.724907 45.082599 
L 226.992465 53.500365 
L 228.260023 40.158521 
L 232.062698 65.411821 
L 233.330256 52.069976 
L 238.400489 85.741042 
L 239.668047 72.399198 
L 240.935606 80.816965 
L 242.203164 67.47512 
L 243.470722 75.892887 
L 244.73828 62.551042 
L 246.005838 70.968809 
L 247.273397 57.626965 
L 248.540955 66.044731 
L 249.808513 52.702887 
L 252.34363 69.53842 
L 253.611188 56.196576 
L 257.413863 81.449875 
L 258.681421 68.108031 
L 263.751654 101.779097 
L 265.019212 88.437252 
L 267.554329 105.272785 
L 268.821887 91.930941 
L 270.089445 100.348707 
L 271.357003 87.006863 
L 272.624561 95.424629 
L 273.89212 82.082785 
L 275.159678 90.500551 
L 276.427236 77.158707 
L 281.497469 110.829773 
L 282.765027 97.487928 
L 285.300144 114.323461 
L 286.567702 100.981616 
L 290.370377 126.234915 
L 291.637935 112.893069 
L 295.44061 138.146368 
L 296.708168 124.804518 
L 297.975726 133.222284 
L 299.243285 119.880436 
L 300.510843 128.298202 
L 301.778401 114.956355 
L 303.045959 123.374122 
L 304.313517 110.032275 
L 306.848634 126.867809 
L 308.116192 113.525962 
L 310.651309 130.361495 
L 311.918867 117.019647 
L 314.453983 133.85518 
L 315.721542 120.513331 
L 316.9891 128.931098 
L 318.256658 115.589251 
L 319.524216 124.007017 
L 320.791775 110.665171 
L 322.059333 119.082938 
L 323.326891 105.741092 
L 324.594449 114.158858 
L 325.862008 100.817013 
L 329.664682 126.070313 
L 330.93224 112.728466 
L 332.199799 121.146233 
L 333.467357 107.804387 
L 334.734915 116.222153 
L 336.002473 102.880308 
L 339.805148 128.133608 
L 341.072706 114.791761 
L 342.340265 123.209527 
L 343.607823 109.867681 
L 344.875381 118.285448 
L 346.142939 104.943602 
L 349.945614 130.196902 
L 351.213172 116.855054 
L 352.480731 125.272821 
L 353.748289 111.930974 
L 355.015847 120.348741 
L 356.283405 107.006895 
L 357.550964 115.424661 
L 358.818522 102.082816 
L 360.08608 110.500583 
L 361.353638 97.158738 
L 362.621196 105.576504 
L 363.888755 92.23466 
L 366.423871 109.070193 
L 367.691429 95.728348 
L 368.958988 104.146114 
L 370.226546 90.80427 
L 371.494104 99.222036 
L 372.761662 85.880192 
L 374.029221 94.297958 
L 375.296779 80.956114 
L 377.831895 97.791647 
L 379.099454 84.449802 
L 382.902128 109.703102 
L 384.169687 96.361257 
L 385.437245 104.779023 
L 386.704803 91.437179 
L 389.23992 108.272712 
L 390.507478 94.930867 
L 391.775036 103.348633 
L 393.042594 90.006789 
L 394.310152 98.424555 
L 395.577711 85.082711 
L 396.845269 93.500477 
L 398.112827 80.158633 
L 399.380385 88.576399 
L 400.647944 75.234555 
L 401.915502 83.652322 
L 403.18306 70.310477 
L 406.985735 95.563777 
L 408.253293 82.221932 
L 410.78841 99.057465 
L 412.055968 85.715621 
L 413.323526 94.133387 
L 414.591084 80.791543 
L 417.126201 97.627076 
L 418.393759 84.285231 
L 419.661317 92.702998 
L 420.928875 79.361154 
L 422.196434 87.77892 
L 423.463992 74.437076 
L 425.999108 91.272609 
L 427.266667 77.930764 
L 429.801783 94.766297 
L 431.069341 81.424453 
L 432.3369 89.842219 
L 433.604458 76.500375 
L 434.872016 84.918142 
L 436.139574 71.576297 
L 437.407133 79.994064 
L 438.674691 66.652219 
L 445.012482 108.741052 
L 446.28004 95.399207 
L 448.815157 112.23474 
L 450.082715 98.892895 
L 452.617831 115.728428 
L 453.88539 102.386583 
L 455.152948 110.804349 
L 456.420506 97.462505 
L 457.688064 105.880271 
L 458.955623 92.538426 
L 461.490739 109.373959 
L 462.758297 96.032114 
L 464.025856 104.449881 
L 465.293414 91.108036 
L 466.560972 99.525803 
L 467.82853 86.183958 
L 469.096089 94.601725 
L 470.363647 81.25988 
L 472.898763 98.095413 
L 474.166322 84.753569 
L 479.236555 118.424635 
L 480.504113 105.082789 
L 483.039229 121.918323 
L 484.306787 108.576477 
L 489.37702 142.247543 
L 490.644579 128.905689 
L 491.912137 137.323456 
L 493.179695 123.981606 
L 494.447253 132.399372 
L 495.714812 119.057524 
L 498.249928 135.893057 
L 499.517486 122.551208 
L 500.785045 130.968974 
L 502.052603 117.627126 
L 504.587719 134.462659 
L 505.855278 121.12081 
L 507.122836 129.538577 
L 508.390394 116.19673 
L 510.92551 133.032263 
L 512.193069 119.690414 
L 514.728185 136.525947 
L 515.995743 123.184097 
L 518.53086 140.01963 
L 519.798418 126.677779 
L 523.601093 151.931078 
L 524.868651 138.589214 
L 528.671326 163.842514 
L 529.938884 150.500617 
L 533.741559 175.753916 
L 535.009117 162.411932 
L 536.276675 170.829698 
L 537.544234 157.487761 
L 538.811792 165.905527 
L 540.07935 152.56362 
L 541.346908 160.981387 
L 542.614466 147.639501 
L 545.149583 164.475034 
L 546.417141 151.133134 
L 550.219816 176.386434 
L 551.487374 163.044442 
L 552.754932 171.462208 
L 554.022491 158.120266 
L 555.290049 166.538032 
L 556.557607 153.196122 
L 560.360282 178.449422 
L 561.62784 165.107402 
L 564.162957 181.942935 
L 565.430515 168.600857 
L 567.965631 185.43639 
L 569.233189 172.094235 
L 574.303422 205.765301 
L 575.570981 192.421796 
L 580.641214 226.092862 
L 581.908772 212.742163 
L 584.443888 229.577696 
L 585.711447 216.224055 
L 586.979005 224.641822 
L 588.246563 211.29212 
L 589.514121 219.709886 
L 590.78168 206.362806 
L 595.851913 240.033872 
L 597.119471 226.664142 
L 599.654587 243.499675 
L 600.922145 230.120749 
L 604.72482 255.374049 
L 605.992378 241.93387 
L 608.527495 258.769403 
L 609.795053 245.297672 
L 611.062611 253.715438 
L 612.33017 240.287769 
L 613.597728 248.705535 
L 614.865286 235.306809 
L 616.132844 243.724575 
L 617.400403 230.344957 
L 618.667961 238.762724 
L 619.935519 225.395762 
L 622.470636 242.231295 
L 623.738194 228.856042 
L 626.27331 245.691575 
L 627.540869 232.305327 
L 628.808427 240.723094 
L 630.075985 227.351737 
L 632.611101 244.18727 
L 633.87866 230.806188 
L 635.146218 239.223954 
L 636.413776 225.856021 
L 637.681334 234.273788 
L 638.948893 220.914582 
L 641.484009 237.750115 
L 642.751567 224.385161 
L 644.019126 232.802927 
L 645.286684 219.445701 
L 646.554242 227.863467 
L 647.8218 214.511379 
L 649.089359 222.929146 
L 650.356917 209.580477 
L 652.892033 226.41601 
L 654.159592 213.065072 
L 657.962266 238.318372 
L 659.229824 224.952311 
L 660.497383 233.370078 
L 661.764941 220.012117 
L 663.032499 228.429883 
L 664.300057 215.077306 
L 666.835174 231.912839 
L 668.102732 218.556699 
L 669.37029 226.974465 
L 670.637849 213.6231 
L 673.172965 230.458633 
L 674.440523 217.104105 
L 675.708082 225.521872 
L 676.97564 212.171579 
L 678.243198 220.589346 
L 679.510756 207.241873 
L 680.778315 215.659639 
L 682.045873 202.314044 
L 683.313431 210.731811 
L 684.580989 197.387466 
L 685.848548 205.805233 
L 687.116106 192.461722 
L 690.91878 217.715021 
L 692.186339 204.368734 
L 693.453897 212.786501 
L 694.721455 199.441696 
L 695.989013 207.859462 
L 697.256572 194.515644 
L 698.52413 202.933411 
L 699.791688 189.590251 
L 704.861921 223.261317 
L 706.129479 209.912459 
L 708.664596 226.747992 
L 709.932154 213.396803 
L 712.467271 230.232336 
L 713.734829 216.878042 
L 718.805062 250.549108 
L 720.07262 237.141083 
L 723.875295 262.394382 
L 725.142853 248.877797 
L 726.410411 257.295564 
L 727.677969 243.838607 
L 728.945528 252.256373 
L 730.213086 238.838389 
L 736.550877 280.927222 
L 737.818435 266.801604 
L 742.888668 300.47267 
L 742.888668 300.47267 
" clip-path="url(#p28502c6df2)" style="fill: none; stroke: #ffe09a; stroke-width: 1.35; stroke-linecap: square"/>
   </g>
   <g id="patch_3">
    <path d="M 45.478125 313.718125 
L 45.478125 22.318125 
" style="fill: none; stroke: #5d7590; stroke-width: 0.8; stroke-linejoin: miter; stroke-linecap: square"/>
   </g>
   <g id="patch_4">
    <path d="M 776.098694 313.718125 
L 776.098694 22.318125 
" style="fill: none; stroke: #5d7590; stroke-width: 0.8; stroke-linejoin: miter; stroke-linecap: square"/>
   </g>
   <g id="patch_5">
    <path d="M 45.478125 313.718125 
L 776.098694 313.718125 
" style="fill: none; stroke: #5d7590; stroke-width: 0.8; stroke-linejoin: miter; stroke-linecap: square"/>
   </g>
   <g id="patch_6">
    <path d="M 45.478125 22.318125 
L 776.098694 22.318125 
" style="fill: none; stroke: #5d7590; stroke-width: 0.8; stroke-linejoin: miter; stroke-linecap: square"/>
   </g>
   <g id="text_14">
    <!-- Collatz trajectory for n = 837,799 -->
    <g style="fill: #f1f6fb" transform="translate(309.794347 16.318125) scale(0.12 -0.12)">
     <defs>
      <path id="DejaVuSans-43" d="M 4122 4306 
L 4122 3641 
Q 3803 3938 3442 4084 
Q 3081 4231 2675 4231 
Q 1875 4231 1450 3742 
Q 1025 3253 1025 2328 
Q 1025 1406 1450 917 
Q 1875 428 2675 428 
Q 3081 428 3442 575 
Q 3803 722 4122 1019 
L 4122 359 
Q 3791 134 3420 21 
Q 3050 -91 2638 -91 
Q 1578 -91 968 557 
Q 359 1206 359 2328 
Q 359 3453 968 4101 
Q 1578 4750 2638 4750 
Q 3056 4750 3426 4639 
Q 3797 4528 4122 4306 
z
" transform="scale(0.015625)"/>
      <path id="DejaVuSans-7a" d="M 353 3500 
L 3084 3500 
L 3084 2975 
L 922 459 
L 3084 459 
L 3084 0 
L 275 0 
L 275 525 
L 2438 3041 
L 353 3041 
L 353 3500 
z
" transform="scale(0.015625)"/>
      <path id="DejaVuSans-6a" d="M 603 3500 
L 1178 3500 
L 1178 -63 
Q 1178 -731 923 -1031 
Q 669 -1331 103 -1331 
L -116 -1331 
L -116 -844 
L 38 -844 
Q 366 -844 484 -692 
Q 603 -541 603 -63 
L 603 3500 
z
M 603 4863 
L 1178 4863 
L 1178 4134 
L 603 4134 
L 603 4863 
z
" transform="scale(0.015625)"/>
      <path id="DejaVuSans-79" d="M 2059 -325 
Q 1816 -950 1584 -1140 
Q 1353 -1331 966 -1331 
L 506 -1331 
L 506 -850 
L 844 -850 
Q 1081 -850 1212 -737 
Q 1344 -625 1503 -206 
L 1606 56 
L 191 3500 
L 800 3500 
L 1894 763 
L 2988 3500 
L 3597 3500 
L 2059 -325 
z
" transform="scale(0.015625)"/>
      <path id="DejaVuSans-66" d="M 2375 4863 
L 2375 4384 
L 1825 4384 
Q 1516 4384 1395 4259 
Q 1275 4134 1275 3809 
L 1275 3500 
L 2222 3500 
L 2222 3053 
L 1275 3053 
L 1275 0 
L 697 0 
L 697 3053 
L 147 3053 
L 147 3500 
L 697 3500 
L 697 3744 
Q 697 4328 969 4595 
Q 1241 4863 1831 4863 
L 2375 4863 
z
" transform="scale(0.015625)"/>
      <path id="DejaVuSans-3d" d="M 678 2906 
L 4684 2906 
L 4684 2381 
L 678 2381 
L 678 2906 
z
M 678 1631 
L 4684 1631 
L 4684 1100 
L 678 1100 
L 678 1631 
z
" transform="scale(0.015625)"/>
      <path id="DejaVuSans-38" d="M 2034 2216 
Q 1584 2216 1326 1975 
Q 1069 1734 1069 1313 
Q 1069 891 1326 650 
Q 1584 409 2034 409 
Q 2484 409 2743 651 
Q 3003 894 3003 1313 
Q 3003 1734 2745 1975 
Q 2488 2216 2034 2216 
z
M 1403 2484 
Q 997 2584 770 2862 
Q 544 3141 544 3541 
Q 544 4100 942 4425 
Q 1341 4750 2034 4750 
Q 2731 4750 3128 4425 
Q 3525 4100 3525 3541 
Q 3525 3141 3298 2862 
Q 3072 2584 2669 2484 
Q 3125 2378 3379 2068 
Q 3634 1759 3634 1313 
Q 3634 634 3220 271 
Q 2806 -91 2034 -91 
Q 1263 -91 848 271 
Q 434 634 434 1313 
Q 434 1759 690 2068 
Q 947 2378 1403 2484 
z
M 1172 3481 
Q 1172 3119 1398 2916 
Q 1625 2713 2034 2713 
Q 2441 2713 2670 2916 
Q 2900 3119 2900 3481 
Q 2900 3844 2670 4047 
Q 2441 4250 2034 4250 
Q 1625 4250 1398 4047 
Q 1172 3844 1172 3481 
z
" transform="scale(0.015625)"/>
      <path id="DejaVuSans-2c" d="M 750 794 
L 1409 794 
L 1409 256 
L 897 -744 
L 494 -744 
L 750 256 
L 750 794 
z
" transform="scale(0.015625)"/>
     </defs>
     <use xlink:href="#DejaVuSans-43"/>
     <use xlink:href="#DejaVuSans-6f" transform="translate(69.824219 0)"/>
     <use xlink:href="#DejaVuSans-6c" transform="translate(131.005859 0)"/>
     <use xlink:href="#DejaVuSans-6c" transform="translate(158.789062 0)"/>
     <use xlink:href="#DejaVuSans-61" transform="translate(186.572266 0)"/>
     <use xlink:href="#DejaVuSans-74" transform="translate(247.851562 0)"/>
     <use xlink:href="#DejaVuSans-7a" transform="translate(287.060547 0)"/>
     <use xlink:href="#DejaVuSans-20" transform="translate(339.550781 0)"/>
     <use xlink:href="#DejaVuSans-74" transform="translate(371.337891 0)"/>
     <use xlink:href="#DejaVuSans-72" transform="translate(410.546875 0)"/>
     <use xlink:href="#DejaVuSans-61" transform="translate(451.660156 0)"/>
     <use xlink:href="#DejaVuSans-6a" transform="translate(512.939453 0)"/>
     <use xlink:href="#DejaVuSans-65" transform="translate(540.722656 0)"/>
     <use xlink:href="#DejaVuSans-63" transform="translate(602.246094 0)"/>
     <use xlink:href="#DejaVuSans-74" transform="translate(657.226562 0)"/>
     <use xlink:href="#DejaVuSans-6f" transform="translate(696.435547 0)"/>
     <use xlink:href="#DejaVuSans-72" transform="translate(757.617188 0)"/>
     <use xlink:href="#DejaVuSans-79" transform="translate(798.730469 0)"/>
     <use xlink:href="#DejaVuSans-20" transform="translate(857.910156 0)"/>
     <use xlink:href="#DejaVuSans-66" transform="translate(889.697266 0)"/>
     <use xlink:href="#DejaVuSans-6f" transform="translate(924.902344 0)"/>
     <use xlink:href="#DejaVuSans-72" transform="translate(986.083984 0)"/>
     <use xlink:href="#DejaVuSans-20" transform="translate(1027.197266 0)"/>
     <use xlink:href="#DejaVuSans-6e" transform="translate(1058.984375 0)"/>
     <use xlink:href="#DejaVuSans-20" transform="translate(1122.363281 0)"/>
     <use xlink:href="#DejaVuSans-3d" transform="translate(1154.150391 0)"/>
     <use xlink:href="#DejaVuSans-20" transform="translate(1237.939453 0)"/>
     <use xlink:href="#DejaVuSans-38" transform="translate(1269.726562 0)"/>
     <use xlink:href="#DejaVuSans-33" transform="translate(1333.349609 0)"/>
     <use xlink:href="#DejaVuSans-37" transform="translate(1396.972656 0)"/>
     <use xlink:href="#DejaVuSans-2c" transform="translate(1460.595703 0)"/>
     <use xlink:href="#DejaVuSans-37" transform="translate(1492.382812 0)"/>
     <use xlink:href="#DejaVuSans-39" transform="translate(1556.005859 0)"/>
     <use xlink:href="#DejaVuSans-39" transform="translate(1619.628906 0)"/>
    </g>
   </g>
  </g>
 </g>
 <defs>
  <clipPath id="p28502c6df2">
   <rect x="45.478125" y="22.318125" width="730.620569" height="291.4"/>
  </clipPath>
 </defs>
</svg>
